<svg width="32" height="32" viewBox="0 0 32 32" fill="none" xmlns="http://www.w3.org/2000/svg">
<path d="M19.9882 24.9652C19.9882 23.2541 20.0045 21.539 19.9801 19.8279C19.972 19.2927 20.1545 19.0981 20.6897 19.1224C21.4236 19.1549 22.1575 19.1224 22.8914 19.1305C23.1914 19.1305 23.3901 19.0697 23.4266 18.7089C23.528 17.7803 23.6496 16.8478 23.7915 15.9233C23.8645 15.4611 23.6699 15.3638 23.2604 15.3759C22.3845 15.3962 21.5087 15.3678 20.6329 15.384C20.1666 15.3921 19.968 15.2178 19.9842 14.7353C20.0085 14.0419 19.9801 13.3486 19.9963 12.6552C20.0247 11.4145 20.6086 10.8428 21.8615 10.8104C22.4129 10.7942 22.9644 10.7942 23.5117 10.8104C23.8767 10.8185 24.0267 10.6766 24.0186 10.3076C24.0024 9.51288 24.0105 8.71817 24.0186 7.92345C24.0186 7.63557 23.9334 7.46528 23.6172 7.43284C22.3359 7.29903 21.0506 7.20172 19.7815 7.445C17.6284 7.85858 16.2458 9.4845 16.1485 11.6821C16.1039 12.6796 16.112 13.6811 16.1282 14.6785C16.1363 15.2097 15.9214 15.4084 15.4024 15.3881C14.6888 15.3638 13.9752 15.3921 13.2616 15.38C12.8682 15.3719 12.7142 15.5341 12.7223 15.9274C12.7385 16.8032 12.7426 17.679 12.7223 18.5548C12.7142 18.9724 12.8561 19.1468 13.2859 19.1305C14.0198 19.1062 14.7537 19.1387 15.4876 19.1184C15.9174 19.1062 16.1282 19.2522 16.1282 19.7104C16.1201 23.4204 16.1201 27.1304 16.1282 30.8404C16.1282 31.3432 15.8849 31.4527 15.443 31.4405C9.77454 31.2459 5.35496 28.7604 2.38289 23.9759C-3.56125 14.4312 2.18826 1.99553 13.2859 0.199318C21.975 -1.20765 30.2668 4.99599 31.3251 13.6973C32.2414 21.2349 27.9719 28.1197 20.8235 30.6255C20.0572 30.8931 19.9923 30.8526 19.9882 30.0376C19.9882 28.3468 19.9882 26.6519 19.9882 24.9612V24.9652Z" fill="white"/>
</svg>
