<svg width="33" height="32" viewBox="0 0 33 32" fill="none" xmlns="http://www.w3.org/2000/svg">
<path d="M16.6329 0.407223C25.2288 0.273419 32.3974 7.50694 32.3853 16.1353C32.3731 24.719 25.2369 31.8471 16.6451 31.843C8.0289 31.839 0.856193 24.6663 0.933232 16.0582C1.01027 7.3853 7.94374 0.411277 16.6329 0.407223ZM25.5694 16.1353C25.5045 14.631 25.618 13.1267 25.4437 11.6184C25.168 9.2545 23.5177 7.52721 21.1498 7.3407C18.1615 7.10147 15.1692 7.10147 12.1809 7.3407C9.80078 7.53127 8.09377 9.20584 7.88698 11.6021C7.62748 14.5864 7.6437 17.5828 7.88293 20.5711C8.0735 22.9876 9.78051 24.6947 12.193 24.8852C15.1813 25.1245 18.1737 25.1245 21.162 24.8852C23.5177 24.6947 25.1761 22.9593 25.4477 20.5954C25.6221 19.1114 25.5045 17.6233 25.5734 16.1393L25.5694 16.1353Z" fill="white"/>
<path d="M9.19194 16.1153C9.14734 14.7894 9.21221 13.4676 9.28114 12.1458C9.39062 10.1184 10.6881 8.84121 12.7235 8.73579C15.351 8.60199 17.9743 8.59793 20.6018 8.73579C22.6372 8.84121 23.9185 10.1306 24.0239 12.166C24.1618 14.7935 24.1618 17.4168 24.0239 20.0442C23.9185 22.0959 22.6088 23.3853 20.545 23.4867C17.9379 23.6164 15.3348 23.6164 12.7276 23.4867C10.6678 23.3812 9.37034 22.0878 9.27303 20.024C9.20816 18.7224 9.14734 17.4209 9.18789 16.1153H9.19194ZM16.6687 20.6241C19.2151 20.62 21.1775 18.6373 21.1694 16.0828C21.1613 13.5649 19.1948 11.6024 16.6728 11.5984C14.1102 11.5943 12.1397 13.5527 12.1397 16.1072C12.1397 18.6576 14.1143 20.6281 16.6687 20.6241ZM21.4614 10.2968C20.9261 10.2968 20.4639 10.7834 20.4801 11.3348C20.4923 11.9025 20.8937 12.2917 21.4532 12.2877C22.0087 12.2836 22.4872 11.8092 22.471 11.2781C22.4547 10.7915 21.9439 10.2968 21.4654 10.3009L21.4614 10.2968Z" fill="white"/>
<path d="M16.6734 13.0336C18.352 13.0458 19.7468 14.4568 19.7347 16.1274C19.7225 17.8019 18.3115 19.2008 16.645 19.1927C14.9785 19.1805 13.5675 17.7573 13.5797 16.099C13.5918 14.4325 15.015 13.0215 16.6734 13.0336Z" fill="white"/>
</svg>
