<svg width="33" height="32" viewBox="0 0 33 32" fill="none" xmlns="http://www.w3.org/2000/svg">
<path d="M16.9554 0.00584481C25.1702 -0.0955218 32.8619 6.54602 32.8903 15.892C32.9186 25.2096 25.2918 31.9566 16.8703 31.9079C8.09598 31.8593 0.935451 24.7069 0.959779 15.9001C0.984107 6.95148 8.38385 -0.11985 16.9554 0.00179015V0.00584481ZM21.9873 12.2996C21.9751 11.2454 21.9062 10.3777 21.4723 9.57891C20.3127 7.45426 17.7258 6.46898 15.2038 7.25558C13.3346 7.83946 12.179 9.08424 11.8749 11.0791C11.729 12.0279 11.8992 12.9524 11.9155 13.889C11.9236 14.5013 11.6965 14.7162 11.1005 14.631C10.8086 14.5905 10.5247 14.4769 10.2409 14.3918C9.90435 14.2904 9.62459 14.404 9.46646 14.6837C9.284 15.0203 9.56782 15.2068 9.81515 15.3244C10.1963 15.5109 10.6099 15.6366 10.9991 15.8109C11.7736 16.1637 11.956 16.6543 11.587 17.4125C10.8045 19.0101 9.67325 20.2346 7.90542 20.7455C7.74323 20.7941 7.53237 20.8103 7.50399 21.009C7.47155 21.2442 7.69456 21.3253 7.8608 21.4064C8.30276 21.6253 8.78122 21.7551 9.26778 21.8199C9.77462 21.8889 10.0909 22.1078 10.1598 22.6471C10.2044 22.9877 10.3342 23.2593 10.7923 23.1418C12.2317 22.7647 13.4481 23.1904 14.6159 24.0703C16.0107 25.1245 17.7137 25.1367 19.1531 24.0946C20.3046 23.2593 21.4764 22.7647 22.9077 23.1012C23.305 23.1945 23.5889 23.0526 23.6416 22.6187C23.7105 22.0673 24.0673 21.8848 24.562 21.8199C25.0485 21.7551 25.527 21.6253 25.9649 21.3983C26.1149 21.3212 26.2974 21.2442 26.2974 21.0414C26.2974 20.8225 26.0946 20.7941 25.9324 20.7495C24.1241 20.2589 22.9928 19.0101 22.1981 17.3922C21.8454 16.6705 22.0237 16.1718 22.7617 15.8312C23.1307 15.6609 23.524 15.5514 23.8889 15.3771C24.1525 15.2514 24.4971 15.0811 24.3349 14.7162C24.1808 14.3675 23.8321 14.2783 23.4591 14.3837C23.232 14.4486 23.0171 14.5459 22.786 14.5905C22.0967 14.7283 21.8575 14.5418 21.8778 13.8525C21.8981 13.2768 21.9589 12.7051 21.9873 12.2996Z" fill="white"/>
</svg>
