<svg width="33" height="32" viewBox="0 0 33 32" fill="none" xmlns="http://www.w3.org/2000/svg">
<path d="M16.6241 0.406921C25.1673 0.289336 32.3116 7.49042 32.2832 16.1025C32.2548 24.6376 25.147 31.7373 16.5795 31.713C8.01201 31.6927 0.908244 24.5524 0.952846 15.9606C0.997447 7.45393 8.07283 0.285281 16.6282 0.406921H16.6241ZM16.6403 9.24203C14.4549 9.33529 12.3018 9.39206 10.1569 9.52181C8.23095 9.63939 7.46463 10.2841 7.20513 12.1127C6.82399 14.7969 6.81182 17.4933 7.24567 20.1734C7.493 21.7101 8.14174 22.2778 9.69874 22.4886C10.2015 22.5576 10.7084 22.5859 11.2111 22.6224C15.1847 22.8981 19.1623 22.8535 23.1318 22.5657C25.0456 22.4278 25.7674 21.7872 26.0228 19.9869C26.3959 17.3635 26.404 14.7239 26.0228 12.1006C25.7714 10.3855 25.1632 9.83401 23.4724 9.59479C21.1937 9.27042 18.8907 9.42449 16.6403 9.24203Z" fill="white"/>
<path d="M14.6254 16.0097C14.6254 15.1988 14.6294 14.3838 14.6254 13.5729C14.6254 13.1877 14.7632 13.0985 15.1038 13.2931C16.5635 14.1365 18.0232 14.9758 19.4869 15.8151C19.7829 15.9854 19.7424 16.1354 19.4748 16.2895C18.0151 17.1288 16.5513 17.9641 15.0917 18.8074C14.7227 19.0183 14.6294 18.8561 14.6294 18.5033C14.6335 17.6721 14.6294 16.8369 14.6294 16.0057L14.6254 16.0097Z" fill="white"/>
</svg>
