<svg width="30" height="22" viewBox="0 0 30 22" fill="none" xmlns="http://www.w3.org/2000/svg">
<g id="Group 48096966">
<path id="Vector" d="M29.0634 5.90264C28.9833 6.19544 28.8723 6.69192 28.7147 7.17821C27.3253 11.4123 25.9308 15.6439 24.5259 19.8729C23.9371 21.6475 23.0126 22.0956 21.2229 21.5278C18.2995 20.5985 15.3762 19.6692 12.4528 18.7246C10.6399 18.1364 10.1957 17.2632 10.7845 15.4707C12.2074 11.1322 13.6381 6.79376 15.0714 2.46037C15.6912 0.594109 16.5589 0.161279 18.4338 0.757057C21.3934 1.6991 24.3452 2.65132 27.3021 3.59337C28.3403 3.9269 29.0711 4.50231 29.0608 5.90264H29.0634ZM24.278 10.1546C24.278 8.50726 22.775 7.48883 21.303 8.2501C20.5231 8.65493 20.35 8.36977 20.0221 7.77654C19.2628 6.46023 17.6823 6.35075 16.6855 7.52448C16.1302 8.17882 15.8927 9.03684 16.0347 9.87958C16.2568 11.5269 17.0754 12.8992 18.0671 14.2002C18.2944 14.5949 18.7902 14.7527 19.2086 14.5669C20.3475 14.241 21.4321 13.7445 22.4186 13.0978C23.4387 12.3849 24.2754 11.5065 24.2806 10.1571L24.278 10.1546Z" fill="white"/>
<path id="Vector_2" d="M8.78568 19.2134C6.73518 20.2318 5.62729 19.7913 4.96101 17.7952C3.55355 13.5687 2.15642 9.3372 0.774786 5.09546C0.0465224 2.86766 0.441644 2.15222 2.66517 1.42405C3.50706 1.14907 4.36187 0.909744 5.19343 0.601671C5.97335 0.311421 6.30649 0.53802 6.28841 1.35276C6.27291 2.37373 6.28841 3.3947 6.28841 4.4233V14.3835C6.29357 16.4271 7.126 18.0371 8.78568 19.2134Z" fill="white"/>
<path id="Vector_3" d="M10.8698 19.4476C8.82444 19.9924 7.5616 19.1166 7.5616 17.1103C7.55385 12.4383 7.55385 7.7637 7.5616 3.08914C7.5616 1.42911 8.31827 0.675476 9.98139 0.639832C10.9808 0.619463 11.9828 0.680569 12.9797 0.622009C14.0359 0.56345 14.1444 0.978457 13.8448 1.86194C12.5329 5.73958 11.2649 9.62996 9.97623 13.5152C8.89675 16.8048 8.88383 16.8048 10.8698 19.4476Z" fill="white"/>
</g>
</svg>
