<svg width="11" height="13" viewBox="0 0 11 13" fill="none" xmlns="http://www.w3.org/2000/svg">
<path d="M6.91623 13H2.04152C0.915658 13 -0.000244141 12.0888 -0.000244141 10.9688V4.08789C-0.000244141 2.96783 0.915658 2.05664 2.04152 2.05664H6.91623C8.04209 2.05664 8.95799 2.96783 8.95799 4.08789V10.9688C8.95799 12.0888 8.04209 13 6.91623 13ZM2.04152 3.07227C1.47864 3.07227 1.02064 3.52791 1.02064 4.08789V10.9688C1.02064 11.5287 1.47864 11.9844 2.04152 11.9844H6.91623C7.47911 11.9844 7.93711 11.5287 7.93711 10.9688V4.08789C7.93711 3.52791 7.47911 3.07227 6.91623 3.07227H2.04152ZM10.9998 9.69922V2.03125C10.9998 0.911186 10.0839 0 8.95799 0H3.2921C3.01016 0 2.78166 0.227325 2.78166 0.507812C2.78166 0.7883 3.01016 1.01562 3.2921 1.01562H8.95799C9.52087 1.01562 9.97887 1.47127 9.97887 2.03125V9.69922C9.97887 9.97971 10.2074 10.207 10.4893 10.207C10.7713 10.207 10.9998 9.97971 10.9998 9.69922Z" fill="url(#paint0_linear_0_1927)"/>
<defs>
<linearGradient id="paint0_linear_0_1927" x1="1.61124" y1="13.0393" x2="10.3978" y2="1.6881" gradientUnits="userSpaceOnUse">
<stop stop-color="#3790FB"/>
<stop offset="1" stop-color="#D141F6"/>
</linearGradient>
</defs>
</svg>
