<svg width="22" height="22" viewBox="0 0 22 22" fill="none" xmlns="http://www.w3.org/2000/svg">
<g filter="url(#filter0_d_0_1558)">
<g clip-path="url(#clip0_0_1558)">
<path d="M17.9952 10.7845C17.9952 11.7373 17.9872 12.6885 18 13.6413C18.0031 13.8993 17.9346 14.0016 17.6654 14.0016C15.8955 13.9919 14.1256 13.9951 12.3573 14C12.1247 14 12.0132 13.9432 12.0163 13.6737C12.0291 12.6479 12.0259 11.6204 12.0179 10.5945C12.0163 10.377 12.0721 10.2569 12.3047 10.2748C12.4289 10.2845 12.5341 10.2423 12.6185 10.1417C12.8177 9.90143 13.0168 9.6612 13.2207 9.42584C13.3004 9.33494 13.2876 9.27651 13.1984 9.19859C12.6536 8.72787 12.781 8.75546 12.4066 9.22294C12.2298 9.44532 12.0355 9.52486 11.7551 9.52161C10.0584 9.50862 8.36181 9.51187 6.66358 9.51999C6.43259 9.51999 6.27487 9.45181 6.1315 9.26515C5.85271 8.90155 5.5548 8.55094 5.25371 8.2052C5.12467 8.05587 5.13104 7.93413 5.29194 7.8481C5.9228 7.51697 5.97059 6.95535 5.93077 6.32555C5.89731 5.81262 5.8782 5.86944 6.36727 5.74445C7.13992 5.5448 7.91256 5.33865 8.6868 5.14387C8.87319 5.0968 9.01179 5.01077 9.1233 4.84683C9.35589 4.50596 9.60601 4.17483 9.84815 3.84045C10.334 3.16845 10.984 2.82596 11.8045 2.82596C12.6026 2.82596 13.4023 2.81784 14.2005 2.83083C14.4569 2.8357 14.5541 2.75616 14.5477 2.48509C14.5334 1.79199 14.5398 1.09888 14.5462 0.40416C14.5462 0.26132 14.4808 0.0632907 14.7007 0.014595C14.9094 -0.0324774 15.0798 0.014595 15.2073 0.227233C15.6613 0.988508 15.9592 1.80497 16.0771 2.68636C16.1058 2.89575 16.1249 3.10839 16.1313 3.32103C16.136 3.45413 16.1902 3.54665 16.2826 3.63106C16.8163 4.11152 17.1445 4.71535 17.3293 5.4117C17.5172 6.1259 17.7275 6.83361 17.9314 7.54294C17.9761 7.69552 17.992 7.84973 17.992 8.00717C17.9904 8.93239 17.992 9.85599 17.992 10.7812L17.9952 10.7845ZM11.1003 5.24126C11.1003 4.98047 10.9803 4.85007 10.7403 4.85007C10.5003 4.85007 10.3739 4.96586 10.3611 5.19744C10.3601 5.46688 10.4764 5.60215 10.71 5.60323C10.9702 5.60323 11.1003 5.48312 11.1003 5.24288V5.24126Z" fill="white"/>
<path d="M5.1885 6.56089C5.3032 6.94072 4.98458 7.11765 4.7265 7.32866C4.64844 7.39359 4.57675 7.37898 4.51462 7.30431C4.36328 7.12252 4.1976 6.95046 4.06697 6.75243C3.93155 6.54629 4.0128 6.36449 4.24539 6.29794C4.45408 6.2395 4.66437 6.18918 4.87466 6.134C5.17256 6.05771 5.18372 6.06745 5.1885 6.37098C5.1885 6.41643 5.1885 6.4635 5.1885 6.56089Z" fill="white"/>
</g>
</g>
<defs>
<filter id="filter0_d_0_1558" x="0" y="0" width="22" height="22" filterUnits="userSpaceOnUse" color-interpolation-filters="sRGB">
<feFlood flood-opacity="0" result="BackgroundImageFix"/>
<feColorMatrix in="SourceAlpha" type="matrix" values="0 0 0 0 0 0 0 0 0 0 0 0 0 0 0 0 0 0 127 0" result="hardAlpha"/>
<feOffset dy="4"/>
<feGaussianBlur stdDeviation="2"/>
<feComposite in2="hardAlpha" operator="out"/>
<feColorMatrix type="matrix" values="0 0 0 0 0 0 0 0 0 0 0 0 0 0 0 0 0 0 0.25 0"/>
<feBlend mode="normal" in2="BackgroundImageFix" result="effect1_dropShadow_0_1558"/>
<feBlend mode="normal" in="SourceGraphic" in2="effect1_dropShadow_0_1558" result="shape"/>
</filter>
<clipPath id="clip0_0_1558">
<rect width="14" height="14" fill="white" transform="translate(4)"/>
</clipPath>
</defs>
</svg>
