<svg width="14" height="15" viewBox="0 0 14 15" fill="none" xmlns="http://www.w3.org/2000/svg">
<path d="M2.12366 11.8508C-0.0375199 8.85602 1.48769 6.51713 1.48769 6.51713C1.13333 6.41863 0 7.11603 0 7.11603C0.63743 4.92264 4.14346 3.05915 4.14346 3.05915C3.75426 2.92541 2.65626 3.19105 2.65626 3.19105C5.52461 0.598976 9.03105 1.56286 9.03105 1.56286C9.13686 0.997122 10.873 0 10.873 0C10.6954 0.165143 10.6238 1.06422 10.6238 1.06422C10.8009 0.764501 11.3685 0.465318 11.3685 0.465318C11.05 1.16272 11.3685 2.65879 11.3685 2.65879C12.2892 3.52401 13.3159 6.51721 13.3159 6.51721L13.7065 7.04909C14.2025 7.71508 14.0202 8.76218 13.529 9.01054C11.688 9.94378 11.5099 8.24627 11.5099 8.24627C9.98687 8.07998 8.85346 6.48328 8.85346 6.48328C6.80005 7.48063 7.94371 10.2942 8.83035 11.3747C9.96954 12.7596 9.13539 15 9.13539 15C9.13539 15 4.25765 14.8103 2.12366 11.8508Z" fill="white"/>
</svg>
