<svg width="14" height="14" viewBox="0 0 14 14" fill="none" xmlns="http://www.w3.org/2000/svg">
<path d="M6.34426 0.0269775C4.77813 0.173021 3.24929 0.847148 2.04777 2.04799C0.846244 3.24849 0.172801 4.77733 0.0270996 6.3455C1.74679 6.5449 3.57524 7.4239 5.07638 8.92504C6.5782 10.4265 7.45822 12.2563 7.65591 13.9747C9.22648 13.829 10.7516 13.1552 11.9541 11.955C13.1553 10.7549 13.8281 9.22533 13.9731 7.6575C12.2575 7.45844 10.426 6.57945 8.92482 5.07797C7.42471 3.57683 6.54468 1.74667 6.34426 0.0269775Z" fill="white"/>
<path d="M14.0011 6.78915C13.9501 5.06706 13.2688 3.36106 11.9562 2.04666C10.6428 0.73227 8.93473 0.0533555 7.21265 0C7.40623 1.50387 8.20485 3.11993 9.54353 4.45895C10.8822 5.79797 12.4962 6.59522 14.0011 6.78915Z" fill="white"/>
<path d="M0.00146484 7.21326C0.0520842 8.93466 0.733735 10.641 2.04779 11.9547C3.36081 13.2677 5.06682 13.9501 6.78856 14C6.59498 12.4982 5.79738 10.8832 4.45802 9.54414C3.12003 8.20581 1.50431 7.40821 0.00146484 7.21326Z" fill="white"/>
</svg>
