<svg width="180" height="44" viewBox="0 0 180 44" fill="none" xmlns="http://www.w3.org/2000/svg">
<path d="M20.0261 3.82031V5.44922C19.9655 5.5293 19.8708 5.61719 19.7419 5.71289C19.6149 5.80664 19.446 5.8877 19.235 5.95605C19.0241 6.02441 18.7614 6.05859 18.447 6.05859C18.1794 6.05859 17.9343 6.01367 17.7116 5.92383C17.4889 5.83203 17.2966 5.69824 17.1345 5.52246C16.9743 5.34668 16.8503 5.13281 16.7624 4.88086C16.6745 4.62695 16.6305 4.33789 16.6305 4.01367V3.71777C16.6305 3.39551 16.6706 3.1084 16.7507 2.85645C16.8327 2.60254 16.9499 2.3877 17.1022 2.21191C17.2546 2.03613 17.4382 1.90332 17.653 1.81348C17.8698 1.72168 18.1149 1.67578 18.3884 1.67578C18.738 1.67578 19.027 1.73438 19.2555 1.85156C19.486 1.9668 19.6637 2.12695 19.7887 2.33203C19.9137 2.53711 19.9929 2.77148 20.0261 3.03516H19.3054C19.2819 2.88672 19.236 2.75391 19.1677 2.63672C19.1012 2.51953 19.0055 2.42773 18.8805 2.36133C18.7575 2.29297 18.5973 2.25879 18.4001 2.25879C18.2302 2.25879 18.0807 2.29102 17.9518 2.35547C17.8229 2.41992 17.7155 2.51465 17.6296 2.63965C17.5456 2.76465 17.4821 2.91699 17.4391 3.09668C17.3962 3.27637 17.3747 3.48145 17.3747 3.71191V4.01367C17.3747 4.24805 17.3991 4.45605 17.4479 4.6377C17.4987 4.81934 17.571 4.97266 17.6647 5.09766C17.7604 5.22266 17.8766 5.31738 18.0134 5.38184C18.1501 5.44434 18.3044 5.47559 18.4762 5.47559C18.6442 5.47559 18.7819 5.46191 18.8893 5.43457C18.9968 5.40527 19.0817 5.37109 19.1442 5.33203C19.2087 5.29102 19.2585 5.25195 19.2936 5.21484V4.36816H18.4059V3.82031H20.0261ZM27.2925 5.41699V6H25.0279V5.41699H27.2925ZM25.2359 1.73438V6H24.5005V1.73438H25.2359ZM26.9966 3.51562V4.08984H25.0279V3.51562H26.9966ZM27.2779 1.73438V2.32031H25.0279V1.73438H27.2779ZM33.3666 1.73438V6H32.6371V1.73438H33.3666ZM34.7054 1.73438V2.32031H31.3099V1.73438H34.7054ZM45.6026 2.30273L44.3282 6H43.5577L45.1631 1.73438H45.6553L45.6026 2.30273ZM46.669 6L45.3916 2.30273L45.336 1.73438H45.8311L47.4424 6H46.669ZM46.6075 4.41797V5.00098H44.2871V4.41797H46.6075ZM60.1179 1.73438V6H59.3825L57.4695 2.94434V6H56.7341V1.73438H57.4695L59.3884 4.7959V1.73438H60.1179ZM67.4459 5.41699V6H65.1812V5.41699H67.4459ZM65.3892 1.73438V6H64.6539V1.73438H65.3892ZM67.15 3.51562V4.08984H65.1812V3.51562H67.15ZM67.4312 1.73438V2.32031H65.1812V1.73438H67.4312ZM72.7758 5.04199L73.6254 1.73438H74.0707L74.0209 2.58691L73.1127 6H72.6498L72.7758 5.04199ZM72.14 1.73438L72.8285 5.01562L72.89 6H72.3979L71.4105 1.73438H72.14ZM75.0346 5.00684L75.7143 1.73438H76.4467L75.4594 6H74.9672L75.0346 5.00684ZM74.2436 1.73438L75.0844 5.05078L75.2074 6H74.7445L73.851 2.58691L73.8041 1.73438H74.2436ZM86.5909 1.73438V6H85.8555V1.73438H86.5909ZM92.4042 6H91.4931L91.4989 5.41699H92.4042C92.6679 5.41699 92.8886 5.35938 93.0663 5.24414C93.246 5.12891 93.3808 4.96387 93.4706 4.74902C93.5624 4.53418 93.6083 4.27832 93.6083 3.98145V3.75C93.6083 3.51953 93.582 3.31543 93.5292 3.1377C93.4784 2.95996 93.4023 2.81055 93.3007 2.68945C93.2011 2.56836 93.078 2.47656 92.9316 2.41406C92.787 2.35156 92.62 2.32031 92.4306 2.32031H91.4755V1.73438H92.4306C92.7138 1.73438 92.9726 1.78223 93.207 1.87793C93.4413 1.97168 93.6435 2.10742 93.8134 2.28516C93.9853 2.46289 94.1171 2.67578 94.2089 2.92383C94.3007 3.17188 94.3466 3.44922 94.3466 3.75586V3.98145C94.3466 4.28809 94.3007 4.56543 94.2089 4.81348C94.1171 5.06152 93.9853 5.27441 93.8134 5.45215C93.6415 5.62793 93.4364 5.76367 93.1982 5.85938C92.9618 5.95312 92.6972 6 92.4042 6ZM91.9003 1.73438V6H91.165V1.73438H91.9003ZM104.684 1.73438V6H103.949V1.73438H104.684ZM112.642 1.73438V6H111.907L109.994 2.94434V6H109.258V1.73438H109.994L111.913 4.7959V1.73438H112.642ZM119.422 4.90137C119.422 4.81348 119.408 4.73535 119.381 4.66699C119.356 4.59863 119.31 4.53613 119.243 4.47949C119.177 4.42285 119.083 4.36816 118.962 4.31543C118.843 4.26074 118.691 4.20508 118.505 4.14844C118.302 4.08594 118.115 4.0166 117.943 3.94043C117.773 3.8623 117.624 3.77246 117.497 3.6709C117.37 3.56738 117.272 3.44922 117.201 3.31641C117.131 3.18164 117.096 3.02637 117.096 2.85059C117.096 2.67676 117.132 2.51855 117.204 2.37598C117.279 2.2334 117.383 2.11035 117.518 2.00684C117.655 1.90137 117.816 1.82031 118.001 1.76367C118.187 1.70508 118.392 1.67578 118.616 1.67578C118.933 1.67578 119.205 1.73438 119.434 1.85156C119.664 1.96875 119.841 2.12598 119.964 2.32324C120.089 2.52051 120.152 2.73828 120.152 2.97656H119.422C119.422 2.83594 119.392 2.71191 119.331 2.60449C119.273 2.49512 119.183 2.40918 119.062 2.34668C118.943 2.28418 118.791 2.25293 118.608 2.25293C118.434 2.25293 118.289 2.2793 118.174 2.33203C118.059 2.38477 117.973 2.45605 117.916 2.5459C117.86 2.63574 117.831 2.7373 117.831 2.85059C117.831 2.93066 117.85 3.00391 117.887 3.07031C117.924 3.13477 117.981 3.19531 118.057 3.25195C118.133 3.30664 118.229 3.3584 118.344 3.40723C118.459 3.45605 118.595 3.50293 118.751 3.54785C118.988 3.61816 119.194 3.69629 119.369 3.78223C119.545 3.86621 119.692 3.96191 119.809 4.06934C119.926 4.17676 120.014 4.29883 120.073 4.43555C120.131 4.57031 120.16 4.72363 120.16 4.89551C120.16 5.0752 120.124 5.2373 120.052 5.38184C119.98 5.52441 119.876 5.64648 119.741 5.74805C119.609 5.84766 119.449 5.9248 119.261 5.97949C119.075 6.03223 118.868 6.05859 118.64 6.05859C118.435 6.05859 118.233 6.03125 118.033 5.97656C117.836 5.92188 117.657 5.83887 117.494 5.72754C117.332 5.61426 117.203 5.47363 117.108 5.30566C117.012 5.13574 116.964 4.9375 116.964 4.71094H117.699C117.699 4.84961 117.723 4.96777 117.77 5.06543C117.819 5.16309 117.886 5.24316 117.972 5.30566C118.058 5.36621 118.158 5.41113 118.271 5.44043C118.386 5.46973 118.509 5.48438 118.64 5.48438C118.812 5.48438 118.955 5.45996 119.071 5.41113C119.188 5.3623 119.276 5.29395 119.334 5.20605C119.393 5.11816 119.422 5.0166 119.422 4.90137ZM126.226 1.73438V6H125.496V1.73438H126.226ZM127.565 1.73438V2.32031H124.169V1.73438H127.565ZM133.167 2.30273L131.893 6H131.122L132.728 1.73438H133.22L133.167 2.30273ZM134.233 6L132.956 2.30273L132.9 1.73438H133.395L135.007 6H134.233ZM134.172 4.41797V5.00098H131.852V4.41797H134.172ZM142.528 1.73438V6H141.793L139.88 2.94434V6H139.144V1.73438H139.88L141.799 4.7959V1.73438H142.528ZM148.731 1.73438V6H148.002V1.73438H148.731ZM150.07 1.73438V2.32031H146.674V1.73438H150.07ZM156.964 5.41699V6H154.823V5.41699H156.964ZM155.028 1.73438V6H154.292V1.73438H155.028ZM160.856 1.73438L161.846 3.77051L162.836 1.73438H163.651L162.215 4.42969V6H161.474V4.42969L160.038 1.73438H160.856Z" fill="url(#paint0_linear_0_1290)"/>
<path d="M6.34553 16.596V30.204C6.34553 32.004 7.13753 32.688 8.39753 32.688C9.65753 32.688 10.4495 32.004 10.4495 30.204V16.596C10.4495 14.796 9.65753 14.112 8.39753 14.112C7.13753 14.112 6.34553 14.796 6.34553 16.596ZM2.38553 29.952V16.848C2.38553 12.816 4.50953 10.512 8.39753 10.512C12.2855 10.512 14.4095 12.816 14.4095 16.848V29.952C14.4095 33.984 12.2855 36.288 8.39753 36.288C4.50953 36.288 2.38553 33.984 2.38553 29.952ZM19.8998 10.8L22.9238 31.356L25.9478 10.8H29.5838L25.6958 36H19.7918L15.9038 10.8H19.8998ZM35.3922 14.4V21.42H40.8282V25.02H35.3922V32.4H42.2322V36H31.4322V10.8H42.2322V14.4H35.3922ZM56.9981 36H52.9661C52.7501 35.352 52.6061 34.956 52.6061 32.904V28.944C52.6061 26.604 51.8141 25.74 50.0141 25.74H48.6461V36H44.6861V10.8H50.6621C54.7661 10.8 56.5301 12.708 56.5301 16.596V18.576C56.5301 21.168 55.7021 22.86 53.9381 23.688C55.9181 24.516 56.5661 26.424 56.5661 29.052V32.94C56.5661 34.164 56.6021 35.064 56.9981 36ZM50.5541 14.4H48.6461V22.14H50.1941C51.6701 22.14 52.5701 21.492 52.5701 19.476V16.992C52.5701 15.192 51.9581 14.4 50.5541 14.4Z" fill="white"/>
<path d="M73.0761 36L72.8275 36.0267L72.8515 36.25H73.0761V36ZM71.6361 22.572L71.8847 22.5453H71.3875L71.6361 22.572ZM70.1961 36V36.25H70.4207L70.4447 36.0267L70.1961 36ZM64.7601 36L64.5116 36.0277L64.5364 36.25H64.7601V36ZM61.9521 10.8V10.55H61.6727L61.7036 10.8277L61.9521 10.8ZM65.8041 10.8L66.0527 10.7734L66.0288 10.55H65.8041V10.8ZM67.9281 30.672L67.6795 30.6986L68.177 30.6959L67.9281 30.672ZM69.8361 10.8V10.55H69.609L69.5873 10.7761L69.8361 10.8ZM73.6521 10.8L73.9009 10.7754L73.8786 10.55H73.6521V10.8ZM75.6321 30.816L75.3833 30.8406L75.8808 30.8415L75.6321 30.816ZM77.6841 10.8V10.55H77.4584L77.4354 10.7745L77.6841 10.8ZM81.1401 10.8L81.3886 10.8277L81.4195 10.55H81.1401V10.8ZM78.3321 36V36.25H78.5558L78.5806 36.0277L78.3321 36ZM73.3247 35.9733L71.8847 22.5453L71.3875 22.5987L72.8275 36.0267L73.3247 35.9733ZM71.3875 22.5453L69.9475 35.9733L70.4447 36.0267L71.8847 22.5987L71.3875 22.5453ZM70.1961 35.75H64.7601V36.25H70.1961V35.75ZM65.0086 35.9723L62.2006 10.7723L61.7036 10.8277L64.5116 36.0277L65.0086 35.9723ZM61.9521 11.05H65.8041V10.55H61.9521V11.05ZM65.5555 10.8266L67.6795 30.6986L68.1767 30.6454L66.0527 10.7734L65.5555 10.8266ZM68.177 30.6959L70.085 10.8239L69.5873 10.7761L67.6793 30.6481L68.177 30.6959ZM69.8361 11.05H73.6521V10.55H69.8361V11.05ZM73.4033 10.8246L75.3833 30.8406L75.8809 30.7914L73.9009 10.7754L73.4033 10.8246ZM75.8808 30.8415L77.9328 10.8255L77.4354 10.7745L75.3834 30.7905L75.8808 30.8415ZM77.6841 11.05H81.1401V10.55H77.6841V11.05ZM80.8916 10.7723L78.0836 35.9723L78.5806 36.0277L81.3886 10.8277L80.8916 10.7723ZM78.3321 35.75H73.0761V36.25H78.3321V35.75ZM87.0973 25.2V24.95H86.8473V25.2H87.0973ZM87.0973 36V36.25H87.3473V36H87.0973ZM83.1373 36H82.8873V36.25H83.1373V36ZM83.1373 10.8V10.55H82.8873V10.8H83.1373ZM87.0973 10.8H87.3473V10.55H87.0973V10.8ZM87.0973 21.6H86.8473V21.85H87.0973V21.6ZM91.5973 21.6V21.85H91.8473V21.6H91.5973ZM91.5973 10.8V10.55H91.3473V10.8H91.5973ZM95.6293 10.8H95.8793V10.55H95.6293V10.8ZM95.6293 36V36.25H95.8793V36H95.6293ZM91.5973 36H91.3473V36.25H91.5973V36ZM91.5973 25.2H91.8473V24.95H91.5973V25.2ZM86.8473 25.2V36H87.3473V25.2H86.8473ZM87.0973 35.75H83.1373V36.25H87.0973V35.75ZM83.3873 36V10.8H82.8873V36H83.3873ZM83.1373 11.05H87.0973V10.55H83.1373V11.05ZM86.8473 10.8V21.6H87.3473V10.8H86.8473ZM87.0973 21.85H91.5973V21.35H87.0973V21.85ZM91.8473 21.6V10.8H91.3473V21.6H91.8473ZM91.5973 11.05H95.6293V10.55H91.5973V11.05ZM95.3793 10.8V36H95.8793V10.8H95.3793ZM95.6293 35.75H91.5973V36.25H95.6293V35.75ZM91.8473 36V25.2H91.3473V36H91.8473ZM91.5973 24.95H87.0973V25.45H91.5973V24.95ZM107.285 10.8L107.531 10.7605L107.498 10.55H107.285V10.8ZM111.317 36V36.25H111.61L111.563 35.9605L111.317 36ZM107.321 36L107.073 36.037L107.105 36.25H107.321V36ZM106.637 31.428L106.884 31.391L106.852 31.178H106.637V31.428ZM101.777 31.428V31.178H101.561L101.529 31.391L101.777 31.428ZM101.093 36V36.25H101.308L101.34 36.037L101.093 36ZM97.4565 36L97.2097 35.9605L97.1634 36.25H97.4565V36ZM101.489 10.8V10.55H101.275L101.242 10.7605L101.489 10.8ZM104.189 15.264L104.436 15.227H103.941L104.189 15.264ZM102.281 28.008L102.033 27.971L101.99 28.258H102.281V28.008ZM106.097 28.008V28.258H106.387L106.344 27.971L106.097 28.008ZM107.038 10.8395L111.07 36.0395L111.563 35.9605L107.531 10.7605L107.038 10.8395ZM111.317 35.75H107.321V36.25H111.317V35.75ZM107.568 35.963L106.884 31.391L106.389 31.465L107.073 36.037L107.568 35.963ZM106.637 31.178H101.777V31.678H106.637V31.178ZM101.529 31.391L100.845 35.963L101.34 36.037L102.024 31.465L101.529 31.391ZM101.093 35.75H97.4565V36.25H101.093V35.75ZM97.7034 36.0395L101.735 10.8395L101.242 10.7605L97.2097 35.9605L97.7034 36.0395ZM101.489 11.05H107.285V10.55H101.489V11.05ZM103.941 15.227L102.033 27.971L102.528 28.045L104.436 15.301L103.941 15.227ZM102.281 28.258H106.097V27.758H102.281V28.258ZM106.344 27.971L104.436 15.227L103.941 15.301L105.849 28.045L106.344 27.971ZM110.71 14.4H110.46V14.65H110.71V14.4ZM110.71 10.8V10.55H110.46V10.8H110.71ZM122.95 10.8H123.2V10.55H122.95V10.8ZM122.95 14.4V14.65H123.2V14.4H122.95ZM118.81 14.4V14.15H118.56V14.4H118.81ZM118.81 36V36.25H119.06V36H118.81ZM114.85 36H114.6V36.25H114.85V36ZM114.85 14.4H115.1V14.15H114.85V14.4ZM110.96 14.4V10.8H110.46V14.4H110.96ZM110.71 11.05H122.95V10.55H110.71V11.05ZM122.7 10.8V14.4H123.2V10.8H122.7ZM122.95 14.15H118.81V14.65H122.95V14.15ZM118.56 14.4V36H119.06V14.4H118.56ZM118.81 35.75H114.85V36.25H118.81V35.75ZM115.1 36V14.4H114.6V36H115.1ZM114.85 14.15H110.71V14.65H114.85V14.15ZM135.922 17.82V18.07H136.172V17.82H135.922ZM132.178 17.82H131.928V18.07H132.178V17.82ZM124.15 28.224V27.974H123.9V28.224H124.15ZM127.894 28.224H128.144V27.974H127.894V28.224ZM124.508 16.848C124.508 14.8695 124.994 13.3543 125.915 12.3357C126.832 11.3212 128.215 10.762 130.09 10.762V10.262C128.113 10.262 126.58 10.8548 125.544 12.0003C124.512 13.1417 124.008 14.7945 124.008 16.848H124.508ZM130.09 10.762C131.965 10.762 133.348 11.3212 134.265 12.3357C135.186 13.3543 135.672 14.8695 135.672 16.848H136.172C136.172 14.7945 135.668 13.1417 134.636 12.0003C133.6 10.8548 132.067 10.262 130.09 10.262V10.762ZM135.672 16.848V17.82H136.172V16.848H135.672ZM135.922 17.57H132.178V18.07H135.922V17.57ZM132.428 17.82V16.596H131.928V17.82H132.428ZM132.428 16.596C132.428 15.6701 132.244 14.9783 131.851 14.5168C131.45 14.0466 130.873 13.862 130.198 13.862V14.362C130.783 14.362 131.196 14.5194 131.47 14.8412C131.752 15.1717 131.928 15.7219 131.928 16.596H132.428ZM130.198 13.862C129.523 13.862 128.946 14.0466 128.545 14.5168C128.152 14.9783 127.968 15.6701 127.968 16.596H128.468C128.468 15.7219 128.644 15.1717 128.926 14.8412C129.2 14.5194 129.613 14.362 130.198 14.362V13.862ZM127.968 16.596C127.968 17.9624 128.481 19.0477 129.23 20.0109C129.972 20.9644 130.962 21.8161 131.918 22.7015C133.845 24.4844 135.708 26.4637 135.708 29.952H136.208C136.208 26.2403 134.202 24.1336 132.258 22.3345C131.28 21.4289 130.334 20.6156 129.625 19.7039C128.923 18.8018 128.468 17.8216 128.468 16.596H127.968ZM135.708 29.952C135.708 31.9295 135.214 33.4443 134.28 34.4631C133.349 35.4783 131.948 36.038 130.054 36.038V36.538C132.048 36.538 133.599 35.9457 134.649 34.8009C135.695 33.6597 136.208 32.0065 136.208 29.952H135.708ZM130.054 36.038C128.16 36.038 126.759 35.4783 125.829 34.4631C124.895 33.4443 124.4 31.9295 124.4 29.952H123.9C123.9 32.0065 124.414 33.6597 125.46 34.8009C126.509 35.9457 128.06 36.538 130.054 36.538V36.038ZM124.4 29.952V28.224H123.9V29.952H124.4ZM124.15 28.474H127.894V27.974H124.15V28.474ZM127.644 28.224V30.204H128.144V28.224H127.644ZM127.644 30.204C127.644 31.1348 127.848 31.82 128.264 32.2721C128.683 32.7288 129.276 32.902 129.946 32.902V32.402C129.357 32.402 128.923 32.2512 128.632 31.9339C128.336 31.612 128.144 31.0732 128.144 30.204H127.644ZM129.946 32.902C130.617 32.902 131.209 32.7288 131.629 32.2721C132.044 31.82 132.248 31.1348 132.248 30.204H131.748C131.748 31.0732 131.556 31.612 131.261 31.9339C130.969 32.2512 130.536 32.402 129.946 32.402V32.902ZM132.248 30.204C132.248 28.8376 131.736 27.7523 130.986 26.7891C130.244 25.8356 129.255 24.9839 128.298 24.0985C126.372 22.3156 124.508 20.3363 124.508 16.848H124.008C124.008 20.5597 126.015 22.6664 127.958 24.4655C128.937 25.3711 129.882 26.1844 130.592 27.0961C131.293 27.9982 131.748 28.9784 131.748 30.204H132.248ZM147.011 10.8L147.258 10.7605L147.224 10.55H147.011V10.8ZM151.043 36V36.25H151.336L151.29 35.9605L151.043 36ZM147.047 36L146.8 36.037L146.832 36.25H147.047V36ZM146.363 31.428L146.61 31.391L146.578 31.178H146.363V31.428ZM141.503 31.428V31.178H141.288L141.256 31.391L141.503 31.428ZM140.819 36V36.25H141.034L141.066 36.037L140.819 36ZM137.183 36L136.936 35.9605L136.89 36.25H137.183V36ZM141.215 10.8V10.55H141.002L140.968 10.7605L141.215 10.8ZM143.915 15.264L144.162 15.227H143.668L143.915 15.264ZM142.007 28.008L141.76 27.971L141.717 28.258H142.007V28.008ZM145.823 28.008V28.258H146.113L146.07 27.971L145.823 28.008ZM146.764 10.8395L150.796 36.0395L151.29 35.9605L147.258 10.7605L146.764 10.8395ZM151.043 35.75H147.047V36.25H151.043V35.75ZM147.294 35.963L146.61 31.391L146.116 31.465L146.8 36.037L147.294 35.963ZM146.363 31.178H141.503V31.678H146.363V31.178ZM141.256 31.391L140.572 35.963L141.066 36.037L141.75 31.465L141.256 31.391ZM140.819 35.75H137.183V36.25H140.819V35.75ZM137.43 36.0395L141.462 10.8395L140.968 10.7605L136.936 35.9605L137.43 36.0395ZM141.215 11.05H147.011V10.55H141.215V11.05ZM143.668 15.227L141.76 27.971L142.254 28.045L144.162 15.301L143.668 15.227ZM142.007 28.258H145.823V27.758H142.007V28.258ZM146.07 27.971L144.162 15.227L143.668 15.301L145.576 28.045L146.07 27.971ZM156.847 26.532V26.282H156.597V26.532H156.847ZM156.847 36V36.25H157.097V36H156.847ZM152.887 36H152.637V36.25H152.887V36ZM152.887 10.8V10.55H152.637V10.8H152.887ZM156.847 14.4V14.15H156.597V14.4H156.847ZM156.847 22.932H156.597V23.182H156.847V22.932ZM158.719 11.05C160.654 11.05 162.054 11.5854 162.973 12.5724C163.896 13.5626 164.373 15.0484 164.373 17.028H164.873C164.873 14.9756 164.379 13.3474 163.339 12.2316C162.297 11.1126 160.745 10.55 158.719 10.55V11.05ZM164.373 17.028V20.304H164.873V17.028H164.373ZM164.373 20.304C164.373 22.2836 163.896 23.7694 162.973 24.7596C162.054 25.7466 160.654 26.282 158.719 26.282V26.782C160.745 26.782 162.297 26.2194 163.339 25.1004C164.379 23.9846 164.873 22.3564 164.873 20.304H164.373ZM158.719 26.282H156.847V26.782H158.719V26.282ZM156.597 26.532V36H157.097V26.532H156.597ZM156.847 35.75H152.887V36.25H156.847V35.75ZM153.137 36V10.8H152.637V36H153.137ZM152.887 11.05H158.719V10.55H152.887V11.05ZM158.719 14.15H156.847V14.65H158.719V14.15ZM156.597 14.4V22.932H157.097V14.4H156.597ZM156.847 23.182H158.719V22.682H156.847V23.182ZM158.719 23.182C159.383 23.182 159.954 23.0304 160.35 22.5852C160.74 22.1479 160.913 21.4782 160.913 20.556H160.413C160.413 21.4338 160.245 21.9521 159.977 22.2528C159.716 22.5456 159.316 22.682 158.719 22.682V23.182ZM160.913 20.556V16.776H160.413V20.556H160.913ZM160.913 16.776C160.913 15.8538 160.74 15.1841 160.35 14.7468C159.954 14.3016 159.383 14.15 158.719 14.15V14.65C159.316 14.65 159.716 14.7864 159.977 15.0792C160.245 15.3799 160.413 15.8982 160.413 16.776H160.913ZM170.418 26.532V26.282H170.168V26.532H170.418ZM170.418 36V36.25H170.668V36H170.418ZM166.458 36H166.208V36.25H166.458V36ZM166.458 10.8V10.55H166.208V10.8H166.458ZM170.418 14.4V14.15H170.168V14.4H170.418ZM170.418 22.932H170.168V23.182H170.418V22.932ZM172.29 11.05C174.224 11.05 175.624 11.5854 176.544 12.5724C177.466 13.5626 177.944 15.0484 177.944 17.028H178.444C178.444 14.9756 177.949 13.3474 176.91 12.2316C175.867 11.1126 174.315 10.55 172.29 10.55V11.05ZM177.944 17.028V20.304H178.444V17.028H177.944ZM177.944 20.304C177.944 22.2836 177.466 23.7694 176.544 24.7596C175.624 25.7466 174.224 26.282 172.29 26.282V26.782C174.315 26.782 175.867 26.2194 176.91 25.1004C177.949 23.9846 178.444 22.3564 178.444 20.304H177.944ZM172.29 26.282H170.418V26.782H172.29V26.282ZM170.168 26.532V36H170.668V26.532H170.168ZM170.418 35.75H166.458V36.25H170.418V35.75ZM166.708 36V10.8H166.208V36H166.708ZM166.458 11.05H172.29V10.55H166.458V11.05ZM172.29 14.15H170.418V14.65H172.29V14.15ZM170.168 14.4V22.932H170.668V14.4H170.168ZM170.418 23.182H172.29V22.682H170.418V23.182ZM172.29 23.182C172.953 23.182 173.525 23.0304 173.921 22.5852C174.31 22.1479 174.484 21.4782 174.484 20.556H173.984C173.984 21.4338 173.815 21.9521 173.547 22.2528C173.287 22.5456 172.886 22.682 172.29 22.682V23.182ZM174.484 20.556V16.776H173.984V20.556H174.484ZM174.484 16.776C174.484 15.8538 174.31 15.1841 173.921 14.7468C173.525 14.3016 172.953 14.15 172.29 14.15V14.65C172.886 14.65 173.287 14.7864 173.547 15.0792C173.815 15.3799 173.984 15.8982 173.984 16.776H174.484Z" fill="white"/>
<defs>
<linearGradient id="paint0_linear_0_1290" x1="26.3698" y1="36.1088" x2="32.8436" y2="-13.3118" gradientUnits="userSpaceOnUse">
<stop stop-color="#3790FB"/>
<stop offset="1" stop-color="#D141F6"/>
</linearGradient>
</defs>
</svg>
