<svg width="393" height="3011" viewBox="0 0 393 3011" fill="none" xmlns="http://www.w3.org/2000/svg">
<g filter="url(#filter0_df_0_630)">
<path d="M0 57.7048L84.0753 141.78M225.545 283.25L142.09 199.795M142.09 199.795L171.098 170.788M142.09 199.795L84.0753 141.78M284.181 225.855L200.105 141.78L171.098 170.788M171.098 170.788L254.087 253.777M84.0753 141.78L55.0678 170.788M0 173.735L26.0602 199.795L55.0678 170.788M55.0678 170.788L0 115.72M0 228.958L26.0602 255.018L84.0753 197.003L204.139 317.066M0 0L142.09 142.09L200.105 84.0753C235.783 120.994 307.511 194.459 309 192.97" stroke="url(#paint0_linear_0_630)" stroke-opacity="0.8"/>
<path d="M0 295.705L84.0753 379.78M225.545 521.25L142.09 437.795M142.09 437.795L171.098 408.788M142.09 437.795L84.0753 379.78M284.181 463.855L200.105 379.78L171.098 408.788M171.098 408.788L254.087 491.777M84.0753 379.78L55.0678 408.788M0 411.735L26.0602 437.795L55.0678 408.788M55.0678 408.788L0 353.72M0 466.958L26.0602 493.018L84.0753 435.003L204.139 555.066M0 238L142.09 380.09L200.105 322.075C235.783 358.994 307.511 432.459 309 430.97" stroke="url(#paint1_linear_0_630)" stroke-opacity="0.8"/>
<path d="M393 575.705L308.925 659.78M167.455 801.25L250.91 717.795M250.91 717.795L221.902 688.788M250.91 717.795L308.925 659.78M108.819 743.855L192.895 659.78L221.902 688.788M221.902 688.788L138.913 771.777M308.925 659.78L337.932 688.788M393 691.735L366.94 717.795L337.932 688.788M337.932 688.788L393 633.72M393 746.958L366.94 773.018L308.925 715.003L188.861 835.066M393 518L250.91 660.09L192.895 602.075C157.217 638.994 85.4892 712.459 84 710.97" stroke="url(#paint2_linear_0_630)" stroke-opacity="0.8"/>
<path d="M393 900.705L308.925 984.78M167.455 1126.25L250.91 1042.8M250.91 1042.8L221.902 1013.79M250.91 1042.8L308.925 984.78M108.819 1068.86L192.895 984.78L221.902 1013.79M221.902 1013.79L138.913 1096.78M308.925 984.78L337.932 1013.79M393 1016.73L366.94 1042.8L337.932 1013.79M337.932 1013.79L393 958.72M393 1071.96L366.94 1098.02L308.925 1040L188.861 1160.07M393 843L250.91 985.09L192.895 927.075C157.217 963.994 85.4892 1037.46 84 1035.97" stroke="url(#paint3_linear_0_630)" stroke-opacity="0.8"/>
<path d="M393 1151.7L308.925 1235.78M167.455 1377.25L250.91 1293.8M250.91 1293.8L221.902 1264.79M250.91 1293.8L308.925 1235.78M108.819 1319.86L192.895 1235.78L221.902 1264.79M221.902 1264.79L138.913 1347.78M308.925 1235.78L337.932 1264.79M393 1267.73L366.94 1293.8L337.932 1264.79M337.932 1264.79L393 1209.72M393 1322.96L366.94 1349.02L308.925 1291L188.861 1411.07M393 1094L250.91 1236.09L192.895 1178.08C157.217 1214.99 85.4892 1288.46 84 1286.97" stroke="url(#paint4_linear_0_630)" stroke-opacity="0.8"/>
<path d="M393 1625.7L308.925 1709.78M167.455 1851.25L250.91 1767.8M250.91 1767.8L221.902 1738.79M250.91 1767.8L308.925 1709.78M108.819 1793.86L192.895 1709.78L221.902 1738.79M221.902 1738.79L138.913 1821.78M308.925 1709.78L337.932 1738.79M393 1741.73L366.94 1767.8L337.932 1738.79M337.932 1738.79L393 1683.72M393 1796.96L366.94 1823.02L308.925 1765L188.861 1885.07M393 1568L250.91 1710.09L192.895 1652.08C157.217 1688.99 85.4892 1762.46 84 1760.97" stroke="url(#paint5_linear_0_630)" stroke-opacity="0.8"/>
<g filter="url(#filter1_b_0_630)">
<path d="M393 1918.7L308.925 2002.78M167.455 2144.25L250.91 2060.8M250.91 2060.8L221.902 2031.79M250.91 2060.8L308.925 2002.78M108.819 2086.86L186.735 2008.94C190.137 2005.54 195.652 2005.54 199.054 2008.94L221.902 2031.79M221.902 2031.79L138.913 2114.78M308.925 2002.78L337.932 2031.79M393 2034.73L373.099 2054.64C369.697 2058.04 364.182 2058.04 360.78 2054.64L337.932 2031.79M337.932 2031.79L393 1976.72M393 2089.96L373.099 2109.86C369.697 2113.26 364.182 2113.26 360.78 2109.86L315.084 2064.16C311.682 2060.76 306.167 2060.76 302.765 2064.16L188.861 2178.07M393 1861L257.069 1996.93C253.667 2000.33 248.152 2000.33 244.75 1996.93L199.16 1951.34C195.717 1947.9 190.138 1947.93 186.75 1951.43C149.599 1989.79 85.4079 2055.38 84 2053.97" stroke="white" stroke-opacity="0.07"/>
</g>
<path d="M393 2188.7L308.925 2272.78M167.455 2414.25L250.91 2330.8M250.91 2330.8L221.902 2301.79M250.91 2330.8L308.925 2272.78M108.819 2356.86L192.895 2272.78L221.902 2301.79M221.902 2301.79L138.913 2384.78M308.925 2272.78L337.932 2301.79M393 2304.73L366.94 2330.8L337.932 2301.79M337.932 2301.79L393 2246.72M393 2359.96L366.94 2386.02L308.925 2328L188.861 2448.07M393 2131L250.91 2273.09L192.895 2215.08C157.217 2251.99 85.4892 2325.46 84 2323.97" stroke="url(#paint6_linear_0_630)" stroke-opacity="0.8"/>
<path d="M393 2427.7L308.925 2511.78M167.455 2653.25L250.91 2569.8M250.91 2569.8L221.902 2540.79M250.91 2569.8L308.925 2511.78M108.819 2595.86L192.895 2511.78L221.902 2540.79M221.902 2540.79L138.913 2623.78M308.925 2511.78L337.932 2540.79M393 2543.73L366.94 2569.8L337.932 2540.79M337.932 2540.79L393 2485.72M393 2598.96L366.94 2625.02L308.925 2567L188.861 2687.07M393 2370L250.91 2512.09L192.895 2454.08C157.217 2490.99 85.4892 2564.46 84 2562.97" stroke="url(#paint7_linear_0_630)" stroke-opacity="0.8"/>
<path d="M393 2736.7L308.925 2820.78M167.455 2962.25L250.91 2878.8M250.91 2878.8L221.902 2849.79M250.91 2878.8L308.925 2820.78M108.819 2904.86L192.895 2820.78L221.902 2849.79M221.902 2849.79L138.913 2932.78M308.925 2820.78L337.932 2849.79M393 2852.73L366.94 2878.8L337.932 2849.79M337.932 2849.79L393 2794.72M393 2907.96L366.94 2934.02L308.925 2876L188.861 2996.07M393 2679L250.91 2821.09L192.895 2763.08C157.217 2799.99 85.4892 2873.46 84 2871.97" stroke="url(#paint8_linear_0_630)" stroke-opacity="0.8"/>
<path d="M393 3045.7L308.925 3129.78M167.455 3271.25L250.91 3187.8M250.91 3187.8L221.902 3158.79M250.91 3187.8L308.925 3129.78M108.819 3213.86L192.895 3129.78L221.902 3158.79M221.902 3158.79L138.913 3241.78M308.925 3129.78L337.932 3158.79M393 3161.73L366.94 3187.8L337.932 3158.79M337.932 3158.79L393 3103.72M393 3216.96L366.94 3243.02L308.925 3185L188.861 3305.07M393 2988L250.91 3130.09L192.895 3072.08C157.217 3108.99 85.4892 3182.46 84 3180.97" stroke="url(#paint9_linear_0_630)" stroke-opacity="0.8"/>
<path d="M393 250.705L308.925 334.78M167.455 476.25L250.91 392.795M250.91 392.795L221.902 363.788M250.91 392.795L308.925 334.78M108.819 418.855L192.895 334.78L221.902 363.788M221.902 363.788L138.913 446.777M308.925 334.78L337.932 363.788M393 366.735L366.94 392.795L337.932 363.788M337.932 363.788L393 308.72M393 421.958L366.94 448.018L308.925 390.003L188.861 510.066M393 193L250.91 335.09L192.895 277.075C157.217 313.994 85.4892 387.459 84 385.97" stroke="url(#paint10_linear_0_630)" stroke-opacity="0.8"/>
<path d="M0 651.705L84.0753 735.78M225.545 877.25L142.09 793.795M142.09 793.795L171.098 764.788M142.09 793.795L84.0753 735.78M284.181 819.855L200.105 735.78L171.098 764.788M171.098 764.788L254.087 847.777M84.0753 735.78L55.0678 764.788M0 767.735L26.0602 793.795L55.0678 764.788M55.0678 764.788L0 709.72M0 822.958L26.0602 849.018L84.0753 791.003L204.139 911.066M0 594L142.09 736.09L200.105 678.075C235.783 714.994 307.511 788.459 309 786.97" stroke="url(#paint11_linear_0_630)" stroke-opacity="0.8"/>
<path d="M0 1012.7L84.0753 1096.78M225.545 1238.25L142.09 1154.8M142.09 1154.8L171.098 1125.79M142.09 1154.8L84.0753 1096.78M284.181 1180.86L200.105 1096.78L171.098 1125.79M171.098 1125.79L254.087 1208.78M84.0753 1096.78L55.0678 1125.79M0 1128.73L26.0602 1154.8L55.0678 1125.79M55.0678 1125.79L0 1070.72M0 1183.96L26.0602 1210.02L84.0753 1152L204.139 1272.07M0 955L142.09 1097.09L200.105 1039.08C235.783 1075.99 307.511 1149.46 309 1147.97" stroke="url(#paint12_linear_0_630)" stroke-opacity="0.8"/>
<path d="M393 1374.7L308.925 1458.78M167.455 1600.25L250.91 1516.8M250.91 1516.8L221.902 1487.79M250.91 1516.8L308.925 1458.78M108.819 1542.86L192.895 1458.78L221.902 1487.79M221.902 1487.79L138.913 1570.78M308.925 1458.78L337.932 1487.79M393 1490.73L366.94 1516.8L337.932 1487.79M337.932 1487.79L393 1432.72M393 1545.96L366.94 1572.02L308.925 1514L188.861 1634.07M393 1317L250.91 1459.09L192.895 1401.08C157.217 1437.99 85.4892 1511.46 84 1509.97" stroke="url(#paint13_linear_0_630)" stroke-opacity="0.8"/>
<path d="M0 1374.7L84.0753 1458.78M225.545 1600.25L142.09 1516.8M142.09 1516.8L171.098 1487.79M142.09 1516.8L84.0753 1458.78M284.181 1542.86L200.105 1458.78L171.098 1487.79M171.098 1487.79L254.087 1570.78M84.0753 1458.78L55.0678 1487.79M0 1490.73L26.0602 1516.8L55.0678 1487.79M55.0678 1487.79L0 1432.72M0 1545.96L26.0602 1572.02L84.0753 1514L204.139 1634.07M0 1317L142.09 1459.09L200.105 1401.08C235.783 1437.99 307.511 1511.46 309 1509.97" stroke="url(#paint14_linear_0_630)" stroke-opacity="0.8"/>
<path d="M0 1683.79L91.6938 1775.27M245.983 1929.2L154.966 1838.4M154.966 1838.4L186.602 1806.83M154.966 1838.4L91.6938 1775.27M309.932 1866.75L218.238 1775.27L186.602 1806.83M186.602 1806.83L277.111 1897.14M91.6938 1775.27L60.0577 1806.83M0 1810.04L28.4217 1838.4L60.0577 1806.83M60.0577 1806.83L0 1746.91M0 1870.13L28.4217 1898.49L91.6938 1835.36L222.637 1966M0 1621L154.966 1775.61L218.238 1712.48C257.149 1752.65 335.376 1832.59 337 1830.97" stroke="url(#paint15_linear_0_630)" stroke-opacity="0.8"/>
<path d="M0 1998.79L91.6938 2090.27M245.983 2244.2L154.966 2153.4M154.966 2153.4L186.602 2121.83M154.966 2153.4L91.6938 2090.27M309.932 2181.75L218.238 2090.27L186.602 2121.83M186.602 2121.83L277.111 2212.14M91.6938 2090.27L60.0577 2121.83M0 2125.04L28.4217 2153.4L60.0577 2121.83M60.0577 2121.83L0 2061.91M0 2185.13L28.4217 2213.49L91.6938 2150.36L222.637 2281M0 1936L154.966 2090.61L218.238 2027.48C257.149 2067.65 335.376 2147.59 337 2145.97" stroke="url(#paint16_linear_0_630)" stroke-opacity="0.8"/>
<path d="M0 2325.79L91.6938 2417.27M245.983 2571.2L154.966 2480.4M154.966 2480.4L186.602 2448.83M154.966 2480.4L91.6938 2417.27M309.932 2508.75L218.238 2417.27L186.602 2448.83M186.602 2448.83L277.111 2539.14M91.6938 2417.27L60.0577 2448.83M0 2452.04L28.4217 2480.4L60.0577 2448.83M60.0577 2448.83L0 2388.91M0 2512.13L28.4217 2540.49L91.6938 2477.36L222.637 2608M0 2263L154.966 2417.61L218.238 2354.48C257.149 2394.65 335.376 2474.59 337 2472.97" stroke="url(#paint17_linear_0_630)" stroke-opacity="0.8"/>
<path d="M393 -27.2952L308.925 56.7801M167.455 198.25L250.91 114.795M250.91 114.795L221.902 85.7876M250.91 114.795L308.925 56.7801M108.819 140.855L192.895 56.7801L221.902 85.7876M221.902 85.7876L138.913 168.777M308.925 56.7801L337.932 85.7876M393 88.7349L366.94 114.795L337.932 85.7876M337.932 85.7876L393 30.7199M393 143.958L366.94 170.018L308.925 112.003L188.861 232.066M393 -85L250.91 57.0904L192.895 -0.924701C157.217 35.994 85.4892 109.459 84 107.97" stroke="url(#paint18_linear_0_630)" stroke-opacity="0.8"/>
<path d="M0 2576.79L91.6938 2668.27M245.983 2822.2L154.966 2731.4M154.966 2731.4L186.602 2699.83M154.966 2731.4L91.6938 2668.27M309.932 2759.75L218.238 2668.27L186.602 2699.83M186.602 2699.83L277.111 2790.14M91.6938 2668.27L60.0577 2699.83M0 2703.04L28.4217 2731.4L60.0577 2699.83M60.0577 2699.83L0 2639.91M0 2763.13L28.4217 2791.49L91.6938 2728.36L222.637 2859M0 2514L154.966 2668.61L218.238 2605.48C257.149 2645.65 335.376 2725.59 337 2723.97" stroke="url(#paint19_linear_0_630)" stroke-opacity="0.8"/>
<path d="M0 2885.79L91.6938 2977.27M245.983 3131.2L154.966 3040.4M154.966 3040.4L186.602 3008.83M154.966 3040.4L91.6938 2977.27M309.932 3068.75L218.238 2977.27L186.602 3008.83M186.602 3008.83L277.111 3099.14M91.6938 2977.27L60.0577 3008.83M0 3012.04L28.4217 3040.4L60.0577 3008.83M60.0577 3008.83L0 2948.91M0 3072.13L28.4217 3100.49L91.6938 3037.36L222.637 3168M0 2823L154.966 2977.61L218.238 2914.48C257.149 2954.65 335.376 3034.59 337 3032.97" stroke="url(#paint20_linear_0_630)" stroke-opacity="0.8"/>
</g>
<defs>
<filter id="filter0_df_0_630" x="-6.35352" y="-87.3535" width="405.707" height="3735.71" filterUnits="userSpaceOnUse" color-interpolation-filters="sRGB">
<feFlood flood-opacity="0" result="BackgroundImageFix"/>
<feColorMatrix in="SourceAlpha" type="matrix" values="0 0 0 0 0 0 0 0 0 0 0 0 0 0 0 0 0 0 127 0" result="hardAlpha"/>
<feOffset dy="4"/>
<feGaussianBlur stdDeviation="3"/>
<feComposite in2="hardAlpha" operator="out"/>
<feColorMatrix type="matrix" values="0 0 0 0 0 0 0 0 0 0 0 0 0 0 0 0 0 0 0.9 0"/>
<feBlend mode="normal" in2="BackgroundImageFix" result="effect1_dropShadow_0_630"/>
<feBlend mode="normal" in="SourceGraphic" in2="effect1_dropShadow_0_630" result="shape"/>
<feGaussianBlur stdDeviation="1" result="effect2_foregroundBlur_0_630"/>
</filter>
<filter id="filter1_b_0_630" x="78.4465" y="1855.45" width="320.107" height="328.173" filterUnits="userSpaceOnUse" color-interpolation-filters="sRGB">
<feFlood flood-opacity="0" result="BackgroundImageFix"/>
<feGaussianBlur in="BackgroundImageFix" stdDeviation="2.6"/>
<feComposite in2="SourceAlpha" operator="in" result="effect1_backgroundBlur_0_630"/>
<feBlend mode="normal" in="SourceGraphic" in2="effect1_backgroundBlur_0_630" result="shape"/>
</filter>
<linearGradient id="paint0_linear_0_630" x1="1.90789e-06" y1="15.5" x2="162.5" y2="176.5" gradientUnits="userSpaceOnUse">
<stop offset="0.724206" stop-color="#00010E"/>
<stop offset="1" stop-color="#03060A" stop-opacity="0"/>
</linearGradient>
<linearGradient id="paint1_linear_0_630" x1="1.90789e-06" y1="253.5" x2="162.5" y2="414.5" gradientUnits="userSpaceOnUse">
<stop offset="0.724206" stop-color="#00010E"/>
<stop offset="1" stop-color="#03060A" stop-opacity="0"/>
</linearGradient>
<linearGradient id="paint2_linear_0_630" x1="393" y1="533.5" x2="230.5" y2="694.5" gradientUnits="userSpaceOnUse">
<stop offset="0.724206" stop-color="#00010E"/>
<stop offset="1" stop-color="#03060A" stop-opacity="0"/>
</linearGradient>
<linearGradient id="paint3_linear_0_630" x1="393" y1="858.5" x2="230.5" y2="1019.5" gradientUnits="userSpaceOnUse">
<stop offset="0.724206" stop-color="#00010E"/>
<stop offset="1" stop-color="#03060A" stop-opacity="0"/>
</linearGradient>
<linearGradient id="paint4_linear_0_630" x1="393" y1="1109.5" x2="230.5" y2="1270.5" gradientUnits="userSpaceOnUse">
<stop offset="0.724206" stop-color="#00010E"/>
<stop offset="1" stop-color="#03060A" stop-opacity="0"/>
</linearGradient>
<linearGradient id="paint5_linear_0_630" x1="393" y1="1583.5" x2="230.5" y2="1744.5" gradientUnits="userSpaceOnUse">
<stop offset="0.724206" stop-color="#00010E"/>
<stop offset="1" stop-color="#03060A" stop-opacity="0"/>
</linearGradient>
<linearGradient id="paint6_linear_0_630" x1="393" y1="2146.5" x2="230.5" y2="2307.5" gradientUnits="userSpaceOnUse">
<stop offset="0.724206" stop-color="#00010E"/>
<stop offset="1" stop-color="#03060A" stop-opacity="0"/>
</linearGradient>
<linearGradient id="paint7_linear_0_630" x1="393" y1="2385.5" x2="230.5" y2="2546.5" gradientUnits="userSpaceOnUse">
<stop offset="0.724206" stop-color="#00010E"/>
<stop offset="1" stop-color="#03060A" stop-opacity="0"/>
</linearGradient>
<linearGradient id="paint8_linear_0_630" x1="393" y1="2694.5" x2="230.5" y2="2855.5" gradientUnits="userSpaceOnUse">
<stop offset="0.724206" stop-color="#00010E"/>
<stop offset="1" stop-color="#03060A" stop-opacity="0"/>
</linearGradient>
<linearGradient id="paint9_linear_0_630" x1="393" y1="3003.5" x2="230.5" y2="3164.5" gradientUnits="userSpaceOnUse">
<stop offset="0.724206" stop-color="#00010E"/>
<stop offset="1" stop-color="#03060A" stop-opacity="0"/>
</linearGradient>
<linearGradient id="paint10_linear_0_630" x1="393" y1="208.5" x2="230.5" y2="369.5" gradientUnits="userSpaceOnUse">
<stop offset="0.724206" stop-color="#00010E"/>
<stop offset="1" stop-color="#03060A" stop-opacity="0"/>
</linearGradient>
<linearGradient id="paint11_linear_0_630" x1="1.90789e-06" y1="609.5" x2="162.5" y2="770.5" gradientUnits="userSpaceOnUse">
<stop offset="0.724206" stop-color="#00010E"/>
<stop offset="1" stop-color="#03060A" stop-opacity="0"/>
</linearGradient>
<linearGradient id="paint12_linear_0_630" x1="1.90789e-06" y1="970.5" x2="162.5" y2="1131.5" gradientUnits="userSpaceOnUse">
<stop offset="0.724206" stop-color="#00010E"/>
<stop offset="1" stop-color="#03060A" stop-opacity="0"/>
</linearGradient>
<linearGradient id="paint13_linear_0_630" x1="393" y1="1332.5" x2="230.5" y2="1493.5" gradientUnits="userSpaceOnUse">
<stop offset="0.724206" stop-color="#00010E"/>
<stop offset="1" stop-color="#03060A" stop-opacity="0"/>
</linearGradient>
<linearGradient id="paint14_linear_0_630" x1="1.90789e-06" y1="1332.5" x2="162.5" y2="1493.5" gradientUnits="userSpaceOnUse">
<stop offset="0.724206" stop-color="#00010E"/>
<stop offset="1" stop-color="#03060A" stop-opacity="0"/>
</linearGradient>
<linearGradient id="paint15_linear_0_630" x1="2.08077e-06" y1="1637.87" x2="176.82" y2="1813.46" gradientUnits="userSpaceOnUse">
<stop offset="0.724206" stop-color="#00010E"/>
<stop offset="1" stop-color="#03060A" stop-opacity="0"/>
</linearGradient>
<linearGradient id="paint16_linear_0_630" x1="2.08077e-06" y1="1952.87" x2="176.82" y2="2128.46" gradientUnits="userSpaceOnUse">
<stop offset="0.724206" stop-color="#00010E"/>
<stop offset="1" stop-color="#03060A" stop-opacity="0"/>
</linearGradient>
<linearGradient id="paint17_linear_0_630" x1="2.08077e-06" y1="2279.87" x2="176.82" y2="2455.46" gradientUnits="userSpaceOnUse">
<stop offset="0.724206" stop-color="#00010E"/>
<stop offset="1" stop-color="#03060A" stop-opacity="0"/>
</linearGradient>
<linearGradient id="paint18_linear_0_630" x1="393" y1="-69.5" x2="230.5" y2="91.5" gradientUnits="userSpaceOnUse">
<stop offset="0.724206" stop-color="#00010E"/>
<stop offset="1" stop-color="#03060A" stop-opacity="0"/>
</linearGradient>
<linearGradient id="paint19_linear_0_630" x1="2.08077e-06" y1="2530.87" x2="176.82" y2="2706.46" gradientUnits="userSpaceOnUse">
<stop offset="0.724206" stop-color="#00010E"/>
<stop offset="1" stop-color="#03060A" stop-opacity="0"/>
</linearGradient>
<linearGradient id="paint20_linear_0_630" x1="2.08077e-06" y1="2839.87" x2="176.82" y2="3015.46" gradientUnits="userSpaceOnUse">
<stop offset="0.724206" stop-color="#00010E"/>
<stop offset="1" stop-color="#03060A" stop-opacity="0"/>
</linearGradient>
</defs>
</svg>
