<svg width="101" height="23" viewBox="0 0 101 23" fill="none" xmlns="http://www.w3.org/2000/svg">
<path d="M6.47729 13.6775V12.3576L9.7714 8.78606L9.76761 0H16.6227C19.3504 0 21.5617 2.22248 21.5617 4.964V15.8711C21.5617 15.8711 21.6547 18.1473 19.786 19.6717L12.9762 11.0375L17.3487 6.41346L13.3653 6.40456L6.47729 13.6775Z" fill="url(#paint0_linear_0_1439)"/>
<path d="M16.7745 20.7899L10.9232 13.6822L6.53711 18.378L6.54002 17.9448L10.9369 13.2559L17.1298 20.7924L16.7745 20.7899Z" fill="url(#paint1_linear_0_1439)"/>
<path d="M21.561 15.8711V4.94009C21.561 2.21175 19.3605 0 16.6457 0H9.76685L9.7707 8.79945L9.97008 0.205144L16.7254 0.219952C16.9485 0.221243 17.1718 0.240127 17.3906 0.284077C21.2037 1.05051 21.2784 4.61057 21.2784 4.61057V15.9634C21.2784 18.2679 19.6002 19.4372 19.6002 19.4372L19.7854 19.6717C20.8701 18.7656 21.561 17.3995 21.561 15.8711Z" fill="url(#paint2_linear_0_1439)"/>
<path opacity="0.4" d="M13.3674 6.40419L13.6243 6.146H17.6162L17.3504 6.41309L13.3674 6.40419Z" fill="url(#paint3_linear_0_1439)"/>
<path d="M9.77187 8.78589V9.05903L6.47729 12.6287L6.4777 12.3574L9.77187 8.78589Z" fill="url(#paint4_linear_0_1439)"/>
<path d="M2.65992 1.24662C1.03602 2.81067 1.15037 3.88761 1.02473 4.70364V15.9474C1.02473 15.9474 0.874824 18.8605 3.80301 20.1977C4.55998 20.5434 5.3867 20.7071 6.21808 20.7131L17.3013 21L10.9393 13.2735L6.53959 17.9652V13.6607L6.54007 13.6603V12.3428L6.53959 12.3432V0.0336925C6.53696 0.0333528 6.32068 0 5.97552 0C5.20206 0 3.78051 0.167172 2.65992 1.24662Z" fill="url(#paint5_linear_0_1439)"/>
<path d="M17.1293 20.9955H6.21602C5.32861 20.9891 4.49682 20.8114 3.74384 20.4674C0.762931 19.1062 0.881748 16.1114 0.883302 16.0814L0.883167 4.83399L0.884789 4.82326C0.901618 4.71423 0.914054 4.59943 0.927301 4.47777C1.01023 3.71514 1.12398 2.67061 2.56161 1.28588C3.72316 0.167036 5.19844 0 5.9744 0C6.31247 0 6.51523 0.0301602 6.53949 0.0336925V0.310025C6.51746 0.306697 6.29233 0.282378 5.9744 0.282378C5.24054 0.282378 3.84657 0.439225 2.75613 1.48967C1.39216 2.80334 1.28929 3.74876 1.2067 4.50848C1.19352 4.62939 1.18109 4.74385 1.16419 4.85559V16.0886C1.15831 16.2109 1.05727 18.9303 3.86002 20.2103C4.57691 20.5378 5.37031 20.707 6.21805 20.7131L17.1293 20.7926V20.9955Z" fill="url(#paint6_linear_0_1439)"/>
<path d="M29.0649 0.55326V11.0518H26.9018V0.55326H29.0649ZM35.3525 0.55326L31.192 5.73761L28.7909 8.31898L28.4016 6.27119L30.0239 4.05036L32.699 0.55326H35.3525ZM32.8937 11.0518L29.8004 6.19909L31.4011 4.85793L35.4535 11.0518H32.8937ZM43.2913 4.82909V6.51635H37.8113V4.82909H43.2913ZM38.453 0.55326V11.0518H36.2899V0.55326H38.453ZM44.8343 0.55326V11.0518H42.6784V0.55326H44.8343ZM53.7609 9.3645V11.0518H48.1728V9.3645H53.7609ZM48.8794 0.55326V11.0518H46.7163V0.55326H48.8794ZM53.0327 4.82909V6.47309H48.1728V4.82909H53.0327ZM53.7537 0.55326V2.24773H48.1728V0.55326H53.7537ZM61.7718 9.3645V11.0518H56.4865V9.3645H61.7718ZM57.1859 0.55326V11.0518H55.0228V0.55326H57.1859ZM71.1599 5.55735V6.05488C71.1599 6.85284 71.0517 7.56908 70.8354 8.20361C70.6191 8.83813 70.3139 9.37892 69.9197 9.82597C69.5255 10.2682 69.0544 10.6071 68.5064 10.8427C67.9632 11.0782 67.3599 11.196 66.6966 11.196C66.038 11.196 65.4347 11.0782 64.8867 10.8427C64.3436 10.6071 63.8725 10.2682 63.4735 9.82597C63.0745 9.37892 62.7644 8.83813 62.5433 8.20361C62.327 7.56908 62.2189 6.85284 62.2189 6.05488V5.55735C62.2189 4.75458 62.327 4.03834 62.5433 3.40862C62.7596 2.7741 63.0649 2.23331 63.4591 1.78626C63.858 1.3392 64.3291 0.997907 64.8723 0.762364C65.4203 0.526821 66.0236 0.409049 66.6822 0.409049C67.3455 0.409049 67.9488 0.526821 68.492 0.762364C69.04 0.997907 69.5111 1.3392 69.9053 1.78626C70.3042 2.23331 70.6119 2.7741 70.8282 3.40862C71.0493 4.03834 71.1599 4.75458 71.1599 5.55735ZM68.9751 6.05488V5.54293C68.9751 4.98532 68.9246 4.495 68.8237 4.07199C68.7227 3.64897 68.5737 3.29325 68.3766 3.00483C68.1795 2.71641 67.9392 2.5001 67.6556 2.35589C67.372 2.20687 67.0475 2.13236 66.6822 2.13236C66.3168 2.13236 65.9924 2.20687 65.7087 2.35589C65.4299 2.5001 65.192 2.71641 64.9949 3.00483C64.8026 3.29325 64.656 3.64897 64.5551 4.07199C64.4541 4.495 64.4036 4.98532 64.4036 5.54293V6.05488C64.4036 6.60768 64.4541 7.098 64.5551 7.52582C64.656 7.94884 64.805 8.30696 65.0021 8.60019C65.1992 8.88861 65.4395 9.10732 65.7232 9.25634C66.0068 9.40536 66.3312 9.47987 66.6966 9.47987C67.0619 9.47987 67.3864 9.40536 67.67 9.25634C67.9536 9.10732 68.1916 8.88861 68.3838 8.60019C68.5761 8.30696 68.7227 7.94884 68.8237 7.52582C68.9246 7.098 68.9751 6.60768 68.9751 6.05488ZM73.8422 0.55326L76.0342 5.34104L78.2262 0.55326H80.584L77.1302 7.23019V11.0518H74.9382V7.23019L71.4771 0.55326H73.8422ZM84.8598 2.34868L82.0045 11.0518H79.7043L83.6052 0.55326H85.069L84.8598 2.34868ZM87.2321 11.0518L84.3695 2.34868L84.1388 0.55326H85.617L89.5395 11.0518H87.2321ZM87.1023 7.14366V8.83813H81.5574V7.14366H87.1023ZM90.5129 0.55326H94.4282C95.231 0.55326 95.9208 0.673435 96.4976 0.913785C97.0793 1.15414 97.5263 1.50985 97.8388 1.98094C98.1512 2.45203 98.3074 3.03127 98.3074 3.71867C98.3074 4.28109 98.2113 4.7642 98.019 5.16798C97.8316 5.56697 97.5648 5.90105 97.2187 6.17024C96.8774 6.43463 96.476 6.64614 96.0145 6.80477L95.3295 7.16529H91.9261L91.9117 5.47804H94.4426C94.8224 5.47804 95.1372 5.41074 95.3872 5.27614C95.6372 5.14155 95.8246 4.95407 95.9496 4.71372C96.0794 4.47337 96.1443 4.19457 96.1443 3.8773C96.1443 3.54081 96.0818 3.24999 95.9568 3.00483C95.8318 2.75967 95.642 2.5722 95.3872 2.44241C95.1324 2.31262 94.8128 2.24773 94.4282 2.24773H92.676V11.0518H90.5129V0.55326ZM96.3822 11.0518L93.9883 6.37214L96.2741 6.35772L98.6968 10.9508V11.0518H96.3822Z" fill="white"/>
<path d="M26.6292 14.8657L26.6721 14.8013H33.5306L33.8026 15.3454L33.7596 15.4098H32.743L32.7645 20.5644L32.7073 20.6288L32.0772 20.457L32.0987 17.1853H30.6812C31.0105 17.6936 31.1609 18.1231 31.1609 18.4954C31.1609 19.2185 30.5738 19.7196 29.908 19.7196C28.8556 19.7196 27.925 18.8605 27.1446 16.9132V16.8703L27.5097 16.677C28.154 18.2377 28.8556 18.9679 29.6002 18.9679C30.0226 18.9679 30.6025 18.6529 30.6025 18.0086C30.6025 17.7294 30.3805 17.2998 29.457 17.1853L29.1993 16.5911L29.2422 16.5266H32.0987V15.4098H26.9012L26.6292 14.8657Z" fill="white"/>
<path d="M33.2658 14.8658L33.3088 14.8014H34.3326C34.2395 13.4984 33.724 12.8613 32.958 12.8613C32.4211 12.8613 32.1275 13.2264 32.1275 13.6273C32.1275 13.9638 32.2779 14.2788 32.507 14.5723L32.4569 14.6367L31.8627 14.3647C31.6049 14.0568 31.4331 13.7204 31.4331 13.3696C31.4331 12.7754 31.8555 12.3029 32.643 12.3029C33.724 12.3029 34.7693 13.3409 34.9626 14.8086H35.7715L36.0436 15.3526L36.0006 15.4171H34.984L35.0055 20.5717L34.9482 20.6361L34.3182 20.4643L34.3326 15.4171H33.5307L33.2587 14.873L33.2658 14.8658Z" fill="white"/>
<path d="M35.4993 14.8657L35.5422 14.8013H40.8257L41.0977 15.3454L41.0548 15.4098H40.0382L40.0596 20.5644L40.0024 20.6288L39.3724 20.457L39.3938 17.1638C39.1218 17.1495 38.8283 17.1495 38.5204 17.1495C37.2676 17.1495 36.8022 17.579 36.8022 18.0802C36.8022 18.6529 37.3678 19.3115 38.3916 19.9272L37.9047 20.6216H37.8546C36.7736 19.6337 36.2295 18.6815 36.2295 17.8081C36.2295 16.9347 36.702 16.455 38.1553 16.455C38.592 16.455 39.0001 16.455 39.401 16.4908V15.417H35.7785L35.5064 14.8729L35.4993 14.8657Z" fill="white"/>
<path d="M42.8948 14.8657L42.9377 14.8013H49.832L50.104 15.3454L50.0611 15.4098H47.1258V17.1566L47.1401 17.1709C47.4695 16.8416 47.8561 16.6412 48.2928 16.6412C49.023 16.6412 49.5742 17.3141 49.5742 18.0658C49.5742 18.6815 49.2378 19.2686 48.7724 19.8485H48.7152L48.1209 19.4189C48.6579 18.8032 49.023 18.2233 49.023 17.7079C49.023 17.4358 48.8798 17.2497 48.5863 17.2497C48.0995 17.2497 47.5768 17.6506 47.133 18.209L47.1473 20.5715L47.09 20.636L46.4743 20.4641L46.4958 18.8032L46.4815 18.7889C46.1235 19.1039 45.7298 19.2328 45.336 19.2328C44.3051 19.2328 43.5892 18.4524 43.5892 17.5647C43.5892 16.677 44.298 16.2259 45.2215 16.2259C45.6439 16.2259 46.0734 16.2832 46.503 16.4049V15.417H43.1668L42.8948 14.8729V14.8657ZM46.503 16.8917C46.2309 16.8345 45.9374 16.7987 45.6439 16.7987C44.8564 16.7987 44.2622 17.3284 44.2622 17.9155C44.2622 18.3808 44.5485 18.6242 45.0139 18.6242C45.4792 18.6242 45.9947 18.3522 46.503 17.8009V16.8917Z" fill="white"/>
<path d="M52.3019 15.4171H51.2853L51.3068 20.5717L51.2495 20.6361L50.6195 20.4643L50.6338 15.4171H49.832L49.56 14.873L49.6029 14.8086H50.7126C50.5622 14.4721 50.4047 14.1356 50.2329 13.792C49.9108 13.1477 49.7246 12.8756 49.066 12.8756C48.7295 12.8756 48.393 12.9329 48.0637 13.0188L48.0207 12.983L47.7344 12.2098C48.0422 12.1168 48.4002 12.0667 48.8226 12.0667C49.875 12.0667 50.0969 12.7468 51.1636 14.8086H52.0656L52.3377 15.3527L52.2947 15.4171H52.3019Z" fill="white"/>
<path d="M55.4946 15.2737V15.2308C55.9886 14.9015 56.4611 14.7153 56.8692 14.7153C57.3703 14.7153 57.7856 14.9373 58.122 15.3597C58.3726 15.6818 58.5015 16.0326 58.5015 16.4335C58.5015 16.7628 58.3941 17.0206 58.2008 17.2353C58.3654 17.3427 58.48 17.4573 58.5802 17.5647C58.7234 17.7078 58.9453 17.7866 59.2675 17.7866C59.604 17.7866 59.9261 17.6935 60.1982 17.5002V15.4312H59.1172L58.8451 14.8872L58.8881 14.8227H63.8708L64.1429 15.3668L64.0999 15.4312H63.0833L63.1048 20.5858L63.0475 20.6503L62.4175 20.4784L62.4318 15.4312H60.8425L60.864 20.5858L60.8067 20.6503L60.1839 20.4784V18.388C60.0407 18.4309 59.8832 18.4524 59.697 18.4524C59.382 18.4524 59.0885 18.3593 58.8523 18.1804L58.8379 18.1947C58.9024 18.3665 58.9024 18.5455 58.9024 18.7459C58.9024 19.5263 58.2795 20.0704 57.492 20.0704C56.275 20.0704 55.4302 19.0681 54.7429 17.6864V17.6434L55.0794 17.4358C55.7166 18.6815 56.4325 19.333 57.2057 19.333C57.7641 19.333 58.3296 18.9106 58.3296 18.345C58.3296 17.8654 58.0361 17.5503 57.5207 17.5503C57.2558 17.5503 56.905 17.6506 56.4826 17.8367L56.053 17.1638L56.0674 17.1208C56.6115 16.8989 57.0983 16.7628 57.492 16.7628C57.7712 16.5695 57.9502 16.319 57.9502 16.0183C57.9502 15.689 57.671 15.4241 57.2844 15.4241C56.8978 15.4241 56.4396 15.6102 55.9313 15.9395L55.4946 15.2881V15.2737Z" fill="white"/>
<path d="M63.6133 14.8657L63.6562 14.8013H68.8752L69.1473 15.3454L69.1043 15.4098H67.8515V17.0779L67.8014 17.1351H66.9709C65.668 17.1351 65.0523 17.5432 65.0523 18.2806C65.0523 18.9321 65.5534 19.4332 66.3266 19.4332C66.6273 19.4332 66.9065 19.3545 67.1928 19.2113C67.0425 19.0681 66.9709 18.882 66.9709 18.66C66.9709 18.3307 67.2573 18.0086 67.651 18.0086C67.873 18.0086 68.0591 18.0945 68.2166 18.252C68.3884 18.4238 68.4743 18.6314 68.4743 18.8605C68.4743 19.1612 68.3097 19.4189 67.9947 19.6337C68.5817 20.1706 68.8037 20.6073 68.8037 20.9581C68.8037 21.4163 68.5316 21.7456 68.1379 22.0177H68.0949L67.4291 21.4807C67.8157 21.223 68.0734 20.9438 68.0734 20.593C68.0734 20.3496 67.9517 20.099 67.6797 19.827C67.3432 19.9988 67.0067 20.0489 66.6559 20.0489C65.3028 20.0489 64.365 19.0108 64.365 17.9728C64.365 16.9347 65.1668 16.4837 66.2693 16.4837H67.0497C67.1642 16.4837 67.2215 16.4264 67.2215 16.3262V15.4098H63.8853L63.6133 14.8657Z" fill="white"/>
<path d="M68.6104 14.8657L68.6533 14.8013H73.9367L74.2088 15.3454L74.1658 15.4098H73.1492L73.1707 20.5644L73.1134 20.6288L72.4834 20.457L72.5049 17.1638C72.2329 17.1495 71.9393 17.1495 71.6315 17.1495C70.3787 17.1495 69.9133 17.579 69.9133 18.0802C69.9133 18.6529 70.4789 19.3115 71.5026 19.9272L71.0158 20.6216H70.9657C69.8847 19.6337 69.3406 18.6815 69.3406 17.8081C69.3406 16.9347 69.8131 16.455 71.2664 16.455C71.7031 16.455 72.1112 16.455 72.5121 16.4908V15.417H68.8896L68.6175 14.8729L68.6104 14.8657Z" fill="white"/>
<path d="M76.0056 14.8657L76.0486 14.8013H81.3821L81.6542 15.3454L81.6112 15.4098H80.5946L80.6161 20.5644L80.5588 20.6288L79.9288 20.457L79.9503 18.9464C79.5709 19.2256 79.1413 19.3616 78.6617 19.3616C77.6379 19.3616 76.7001 18.5527 76.7001 17.5719C76.7001 16.7128 77.4231 16.183 78.4182 16.183C78.9122 16.183 79.4277 16.2474 79.9575 16.3834V15.4098H76.2848L76.0128 14.8657H76.0056ZM77.9529 16.9776C77.5591 17.1781 77.3587 17.4931 77.3587 17.9227C77.3587 18.3737 77.6737 18.7531 78.3681 18.7531C78.6259 18.7531 78.8693 18.7102 79.0912 18.6314L77.9529 16.9848V16.9776ZM79.442 18.4524C79.7355 18.2663 79.9575 17.9656 79.9575 17.5504V16.9061C79.6281 16.8201 79.2917 16.7843 78.9695 16.7843C78.7332 16.7843 78.5185 16.7987 78.3395 16.8488L79.4348 18.4596L79.442 18.4524Z" fill="white"/>
<path d="M81.1175 14.8657L81.1605 14.8013H86.3938L86.6658 15.3454L86.6229 15.4098H85.6063L85.6349 20.5644L85.5776 20.6288L84.9405 20.457L84.962 17.5933C84.6899 17.5647 84.425 17.5504 84.1243 17.5504C83.7521 17.5504 83.4299 17.5862 83.1937 17.6578V18.0873C83.1937 18.3379 83.1722 18.5025 83.1364 18.5741C83.0505 18.7173 82.9216 18.7889 82.757 18.7889C82.5064 18.7889 81.769 18.0444 81.769 17.5504C81.769 17.3499 81.8979 17.1709 82.1699 17.0492C82.4706 16.9132 82.85 16.8703 83.2581 16.8703C83.7735 16.8703 84.3463 16.9132 84.9548 16.9776V15.417H81.3824L81.1104 14.8729L81.1175 14.8657Z" fill="white"/>
<path d="M86.1217 14.8657L86.1646 14.8013H88.6274L88.8994 15.3454L88.8565 15.4098H87.8399L87.8613 20.5644L87.8041 20.6288L87.1741 20.457L87.1884 15.4098H86.3866L86.1145 14.8657H86.1217Z" fill="white"/>
<path d="M98.3279 15.4171H97.3113L97.3328 20.5717L97.2755 20.6361L96.6455 20.4643L96.6599 15.4171H95.0705L95.092 20.5717L95.0347 20.6361L94.4119 20.4643V18.3738C94.2687 18.4168 94.1112 18.4382 93.9251 18.4382C93.6101 18.4382 93.3165 18.3452 93.0803 18.1662L93.066 18.1805C93.1304 18.3523 93.1304 18.5313 93.1304 18.7318C93.1304 19.5121 92.5076 20.0562 91.7201 20.0562C90.503 20.0562 89.6582 19.0539 88.9709 17.6722V17.6293L89.3074 17.4216C89.9446 18.6673 90.6605 19.3188 91.4337 19.3188C91.9921 19.3188 92.5577 18.8964 92.5577 18.3309C92.5577 17.8512 92.2641 17.5362 91.7487 17.5362C91.4838 17.5362 91.133 17.6364 90.7106 17.8226L90.2811 17.1496L90.2954 17.1066C90.8395 16.8847 91.3263 16.7487 91.7201 16.7487C91.9993 16.5554 92.1782 16.3048 92.1782 16.0041C92.1782 15.6748 91.899 15.4099 91.5124 15.4099C91.1258 15.4099 90.6677 15.5961 90.1594 15.9254L89.7227 15.2739V15.231C90.2166 14.9016 90.6891 14.7155 91.0972 14.7155C91.5983 14.7155 92.0136 14.9374 92.3501 15.3598C92.6006 15.682 92.7295 16.0328 92.7295 16.4337C92.7295 16.763 92.6221 17.0207 92.4288 17.2355C92.5935 17.3429 92.708 17.4574 92.8082 17.5648C92.9514 17.708 93.1734 17.7868 93.4955 17.7868C93.832 17.7868 94.1542 17.6937 94.4262 17.5004V15.4314H93.3452L93.0731 14.8873L93.1161 14.8229H96.7458C96.5954 14.4864 96.4379 14.1499 96.2661 13.8063C95.9439 13.162 95.7506 12.8899 95.0992 12.8899C94.7627 12.8899 94.4262 12.9472 94.0969 13.0331L94.0539 12.9973L93.7676 12.2241C94.0754 12.131 94.4334 12.0809 94.8558 12.0809C95.9081 12.0809 96.1301 12.761 97.1968 14.8229H98.0988L98.3709 15.367L98.3279 15.4314V15.4171Z" fill="white"/>
<defs>
<linearGradient id="paint0_linear_0_1439" x1="6.47729" y1="9.83586" x2="21.5625" y2="9.83586" gradientUnits="userSpaceOnUse">
<stop stop-color="#F2D71A"/>
<stop offset="1" stop-color="#ECB024"/>
</linearGradient>
<linearGradient id="paint1_linear_0_1439" x1="6.53711" y1="17.0242" x2="17.1298" y2="17.0242" gradientUnits="userSpaceOnUse">
<stop stop-color="#F2D71A"/>
<stop offset="1" stop-color="#ECB024"/>
</linearGradient>
<linearGradient id="paint2_linear_0_1439" x1="9.76685" y1="9.83586" x2="21.561" y2="9.83586" gradientUnits="userSpaceOnUse">
<stop stop-color="#F2D71A"/>
<stop offset="1" stop-color="#ECB024"/>
</linearGradient>
<linearGradient id="paint3_linear_0_1439" x1="13.3674" y1="6.27954" x2="17.6162" y2="6.27954" gradientUnits="userSpaceOnUse">
<stop stop-color="#F2D71A"/>
<stop offset="1" stop-color="#ECB024"/>
</linearGradient>
<linearGradient id="paint4_linear_0_1439" x1="6.47729" y1="10.7073" x2="9.77188" y2="10.7073" gradientUnits="userSpaceOnUse">
<stop stop-color="#F2D71A"/>
<stop offset="1" stop-color="#ECB024"/>
</linearGradient>
<linearGradient id="paint5_linear_0_1439" x1="1.02344" y1="10.5" x2="17.3013" y2="10.5" gradientUnits="userSpaceOnUse">
<stop stop-color="#F2D71A"/>
<stop offset="1" stop-color="#ECB024"/>
</linearGradient>
<linearGradient id="paint6_linear_0_1439" x1="0.882324" y1="10.4978" x2="17.1293" y2="10.4978" gradientUnits="userSpaceOnUse">
<stop stop-color="#F2D71A"/>
<stop offset="1" stop-color="#ECB024"/>
</linearGradient>
</defs>
</svg>
