<svg width="72" height="32" viewBox="0 0 72 32" fill="none" xmlns="http://www.w3.org/2000/svg">
<g id="Group 48097832">
<g id="Group 48097005">
<path id="Vector" d="M14.8901 12.2578C14.7214 12.1064 14.5188 11.9886 14.2994 11.8876C14.4007 11.8203 14.4682 11.7698 14.5695 11.7193C14.8395 11.5678 15.0589 11.349 15.1602 11.0293C15.3796 10.3392 15.2614 9.69971 14.8395 9.11067C14.4682 8.58895 13.9281 8.37016 13.2868 8.37016C12.4767 8.31967 11.6835 8.31967 10.8734 8.31967H9.05063L9 9.59873H9.5907V14.715H9V15.9436H13.0168C13.1855 15.9436 13.3374 15.8931 13.5062 15.8931C13.9788 15.8426 14.4176 15.6743 14.7889 15.3545C15.3121 14.9338 15.5315 14.3952 15.5315 13.7557C15.5315 13.1666 15.3121 12.6281 14.8901 12.2578ZM11.194 9.54825C11.7679 9.59873 12.3079 9.54825 12.8986 9.59873C13.0674 9.59873 13.2193 9.71654 13.3881 9.81752C13.8775 10.1373 13.8775 10.8273 13.3881 11.1976C13.1855 11.3659 12.9661 11.4164 12.6961 11.4164H11.194V9.54825ZM13.0674 14.6645H11.194V12.5439H12.2067C12.4767 12.5439 12.7974 12.5439 13.0674 12.5944C13.4387 12.6954 13.8269 12.9142 13.9281 13.3349C14.1307 13.9745 13.7087 14.5635 13.0674 14.6645Z" fill="#828FA4"/>
<path id="Vector_2" d="M16.8481 11.3323C16.3756 12.0896 16.3081 12.9311 16.4768 13.7894C16.6963 14.6309 17.1182 15.3378 17.9283 15.7585C18.519 16.0783 19.1603 16.1288 19.8017 16.0278C20.5611 15.91 21.1518 15.5397 21.5738 14.9002C21.7257 14.6309 21.8438 14.3616 21.8944 14.0419H21.8438C21.4219 14.0419 20.9324 14.0924 20.5105 14.0924C20.4599 14.0924 20.4092 14.0924 20.4092 14.1429C20.2573 14.5636 19.9367 14.8329 19.4472 14.8834C18.9072 14.9339 18.4346 14.7824 18.1646 14.2943C18.0464 14.0755 17.9958 13.8736 17.9452 13.6548C17.8945 13.5538 17.8945 13.436 17.8945 13.335H22.0126L22.0463 13.3014C22.0463 12.4935 21.8269 11.753 21.405 11.1135C20.2742 9.51467 17.8101 9.68297 16.8481 11.3323ZM20.4599 12.3084L17.9958 12.2579C18.0464 11.6184 18.7384 11.0967 19.3966 11.1808C20.0379 11.2481 20.5105 11.7194 20.4599 12.3084Z" fill="#828FA4"/>
<path id="Vector_3" d="M38.282 11.1473C38.5014 10.9285 38.6533 10.7265 38.8727 10.5077C39.3622 10.087 39.8854 9.91869 40.5267 10.0197C41.0162 10.1207 41.2693 10.3899 41.4381 10.8275C41.4887 10.9285 41.4887 11.0463 41.5393 11.1473C41.59 11.0968 41.6406 10.979 41.7081 10.9285C41.9782 10.5077 42.3495 10.1207 42.8895 10.0197C43.379 9.91869 43.8515 9.91869 44.2228 10.2385C44.5435 10.5077 44.6447 10.878 44.7123 11.2482V15.1023H45.5224V15.7923H43.919V11.669C43.919 11.5007 43.919 11.3997 43.8684 11.2482C43.7671 10.7097 43.379 10.4404 42.8051 10.6087C42.3832 10.7097 42.1132 10.979 41.8431 11.3492C41.6237 11.669 41.5225 12.0392 41.5225 12.4095V15.1359H42.3832V15.8259H40.628V11.6522C40.628 11.4839 40.628 11.3324 40.5773 11.1641C40.4761 10.8443 40.2567 10.676 39.936 10.6255C39.4466 10.5751 39.1259 10.7938 38.8052 11.1136C38.4339 11.5344 38.2145 11.9719 38.2652 12.561V15.1864H39.1259V15.8764H36.6787V15.1864H37.4888V10.7602H36.6787V10.0702H38.3833C38.2314 10.4404 38.2314 10.777 38.282 11.1473Z" fill="#828FA4"/>
<path id="Vector_4" d="M28.4762 12.7965H26.7041C26.7041 12.5777 26.7041 12.3084 26.7547 12.1065H29.4382V15.8427H28.5943V14.6646C28.5606 14.6983 28.5437 14.7319 28.5437 14.7656C28.0036 15.5734 27.3117 15.9942 26.3497 16.0447C25.6071 16.0447 25.0164 15.7754 24.4257 15.3041C23.7843 14.7151 23.413 13.9746 23.2443 13.1668C23.0249 12.1065 23.143 11.0294 23.5649 10.0196C23.8856 9.32958 24.375 8.74054 25.067 8.42077C26.1978 7.88222 27.5817 8.101 28.3918 9.27909C28.3918 9.32958 28.4424 9.32958 28.4931 9.38007V8.20198H29.3032V10.6086H28.4256C28.3749 10.2889 28.2062 10.0196 28.0543 9.75032C27.6323 9.16128 27.0416 8.84151 26.3497 8.84151C25.7083 8.84151 25.1683 9.16128 24.797 9.64934C24.4257 10.0701 24.2569 10.6086 24.1556 11.1977C24.0544 12.0055 24.105 12.746 24.375 13.4865C24.5438 13.9073 24.7463 14.2944 25.1176 14.6141C25.759 15.2032 26.5691 15.3041 27.3117 14.9339C28.0543 14.6141 28.5437 13.7053 28.4762 12.7965Z" fill="#828FA4"/>
<path id="Vector_5" d="M52.0877 12.2242C51.9358 11.5847 51.6657 10.9957 51.1257 10.5749C50.3662 9.93539 49.4548 9.93539 48.7122 10.4739C48.4422 10.6759 48.189 10.9452 48.0203 11.2145C47.9696 11.2145 47.9696 11.2649 47.919 11.3154V7.99997H46.3157V8.68999H47.1258V15.2536H46.3157V15.9436H47.9696V14.9338C48.1215 15.1021 48.2903 15.2536 48.3916 15.4219C48.9316 16.0109 49.7924 16.2297 50.535 15.9605C51.0244 15.7585 51.3957 15.3714 51.6657 14.9507C52.1889 14.0923 52.3071 13.1835 52.0877 12.2242ZM51.1763 12.9648C51.1763 13.4865 51.075 13.9745 50.9569 14.4963C50.7037 15.0348 50.1637 15.3546 49.573 15.3041C48.881 15.2031 48.1722 14.6141 48.0709 13.9241C47.9696 13.5033 48.0203 13.1162 47.9696 12.6955C47.8515 11.8876 48.4422 11.1471 49.0329 10.8779C49.6742 10.5581 50.3831 10.7769 50.805 11.3659C51.0075 11.7362 51.1257 12.1738 51.1763 12.5945V12.9648Z" fill="#828FA4"/>
<path id="Vector_6" d="M35.8178 15.9439C35.8178 15.7419 35.7672 15.4726 35.7672 15.2539H34.9571L34.9233 14.9846V11.5681C34.8221 10.9286 34.5014 10.4574 33.9107 10.1881C33.1681 9.86833 32.4086 9.86833 31.666 10.1881C31.0247 10.5079 30.704 10.9959 30.5352 11.6859H31.2778C31.4466 11.6859 31.4466 11.6186 31.4972 11.5176C31.6154 11.1306 31.8854 10.8108 32.3074 10.7098C32.628 10.6593 32.9993 10.6088 33.32 10.7098C33.7082 10.8108 34.0288 11.0296 34.1301 11.4503C34.1807 11.7196 34.1807 12.0394 34.1807 12.3086C33.7588 12.376 33.32 12.4265 32.9487 12.4769C32.4086 12.5779 31.8854 12.6789 31.396 12.8977C31.0247 13.0492 30.704 13.2175 30.5352 13.5877C30.2146 14.1768 30.3158 14.6985 30.6365 15.237C31.0078 15.8261 31.5479 16.0953 32.2398 16.0449C33.0499 15.9944 33.6913 15.6746 34.1132 14.9846L34.1638 14.9341V15.9439H35.8178ZM34.147 14.1936C33.9951 14.9341 33.185 15.5231 32.4424 15.4726C31.7504 15.4222 31.2778 14.7826 31.3791 14.1431C31.3791 13.8738 31.531 13.7055 31.6998 13.6045C31.9698 13.4026 32.2905 13.2848 32.6111 13.2343C33.1512 13.1333 33.6238 13.0155 34.1132 12.965H34.2145C34.147 13.3353 34.2145 13.7055 34.147 14.1936Z" fill="#828FA4"/>
<path id="Vector_7" d="M59.6319 14.4627C59.4631 14.732 59.3112 14.9845 59.0412 15.1528C58.4505 15.523 57.4885 15.3042 57.0665 14.6647C56.864 14.3449 56.7459 14.0252 56.6952 13.7054C56.6446 13.5371 56.6446 13.3856 56.594 13.1669H60.7626L60.7458 13.049C60.7458 12.4095 60.6445 11.8205 60.3745 11.2819C59.9019 10.3226 58.923 9.78407 57.8598 9.95237C57.1172 10.0702 56.5265 10.4909 56.1552 11.1305C55.6826 11.8878 55.5645 12.7293 55.7332 13.5876C55.9526 14.934 56.864 15.8428 58.1973 15.9438C59.1762 16.0616 60.1888 15.4725 60.5601 14.6142C60.6107 14.5132 60.6107 14.3954 60.6614 14.2945H59.8513C59.7331 14.2945 59.6825 14.3618 59.6319 14.4627ZM58.1804 10.7602C58.7205 10.6592 59.0918 10.878 59.4125 11.2988C59.615 11.669 59.7838 12.0393 59.7838 12.5273H56.6277C56.6952 11.6185 57.1678 10.878 58.1804 10.7602Z" fill="#828FA4"/>
<path id="Vector_8" d="M53.3703 8.6395H52.5602V7.99997H54.2141V15.2031H54.9567V15.8931H52.5602V15.2031H53.3703V8.6395Z" fill="#828FA4"/>
<g id="Group">
<g id="Group_2">
<path id="Vector_9" d="M55.7657 24.9648C55.7657 24.9648 55.7534 24.9614 55.7482 24.9614V24.9648H55.7657Z" fill="#828FA4"/>
<path id="Vector_10" d="M57.1996 19.4276V20.1177C57.1321 19.9998 57.0814 19.9494 57.0308 19.8989C56.4401 19.0405 55.1574 19.192 54.6174 19.9998C54.4655 20.3196 54.2967 20.6394 54.2967 21.0096C54.2461 21.5987 54.2967 22.1204 54.668 22.6085C55.2081 23.3658 56.3895 23.5173 57.0308 22.7768C57.0983 22.7263 57.1489 22.6085 57.1996 22.558V23.5173C57.1489 23.837 57.0477 24.039 56.7776 24.2073C56.1363 24.5944 55.3768 24.4261 55.0055 23.7865C54.9549 23.7865 54.9549 23.7361 54.9043 23.7361H54.2629C54.4317 24.2073 54.7017 24.5271 55.1237 24.7458C55.2722 24.8603 55.5321 24.9108 55.7481 24.9613V24.9478H56.2882C56.3895 24.9478 56.457 24.8973 56.5582 24.8973C57.3008 24.729 57.7903 24.2578 57.7903 23.45V19.9157H58.381V19.4276H57.1996ZM57.1489 21.3967V21.7165C57.1489 22.457 56.2882 23.046 55.5962 22.7768C55.2249 22.6085 55.0562 22.3392 54.9549 21.9689C54.8368 21.4977 54.8368 21.077 55.0055 20.5889C55.2756 19.9325 55.9675 19.7306 56.5582 20.1008C56.8789 20.2691 57.0983 20.5384 57.1489 20.9087V21.3967Z" fill="#828FA4"/>
</g>
<path id="Vector_11" d="M23.7658 19.7307C23.6646 20.2693 23.4958 20.791 23.3945 21.3295C23.2258 22.0701 23.0232 22.8274 22.8545 23.5679C22.8545 23.6184 22.8545 23.6689 22.7532 23.6689H21.3018C21.2511 23.5006 21.2005 23.3491 21.2005 23.1808C20.8292 21.8513 20.4579 20.5049 20.1372 19.1753C20.1372 19.0744 20.0866 19.007 19.9685 19.007H19.5972V17.8794H21.8925V19.007H21.3018C21.5718 20.1346 21.8418 21.2454 22.1119 22.373C22.1625 22.272 22.1625 22.1037 22.2131 22.0027C22.4832 20.6732 22.7532 19.3268 23.0739 18.0477C23.0739 17.9972 23.1245 17.9468 23.1751 17.9468H24.4578C24.5591 17.9468 24.5591 17.9972 24.5591 18.0477C24.8797 19.4278 25.1498 20.8247 25.4704 22.2047C25.4704 22.2384 25.4873 22.272 25.5211 22.3057L26.2637 18.9902H25.673V17.8626H27.9683V18.9902H27.597C27.5463 18.9902 27.4957 18.9902 27.4957 19.0912C27.1244 20.5385 26.6856 22.0196 26.3143 23.4669C26.2637 23.5679 26.2637 23.6352 26.1455 23.6352H24.8629C24.7953 23.6352 24.7391 23.6016 24.6941 23.5342C24.3734 22.3057 24.1034 21.0771 23.7827 19.798C23.8052 19.7868 23.7996 19.7644 23.7658 19.7307Z" fill="#828FA4"/>
<path id="Vector_12" d="M19.3102 22.3898C19.2315 22.3898 19.1752 22.3562 19.1415 22.2889C18.4326 20.2525 17.7913 18.1824 17.0993 16.146C17.0318 16.0955 17.0318 16.045 16.9306 16.045H15.2766C15.1585 16.045 15.1078 16.045 15.1078 16.146C14.4665 18.2329 13.7745 20.2525 13.1332 22.3393C13.0882 22.4067 13.0319 22.4403 12.9644 22.4403H12.475V23.6689H14.2471C14.2808 23.6352 14.2977 23.6016 14.2977 23.5679C14.4496 23.0799 14.5509 22.6086 14.7196 22.1206C14.7196 22.0701 14.7196 22.0196 14.8209 22.0196H17.3356C17.3862 22.0196 17.4369 22.0196 17.4369 22.0701C17.5044 22.2384 17.555 22.3898 17.6056 22.5581C17.7069 22.9452 17.825 23.3155 17.9263 23.6857H19.6309V22.4572C19.479 22.4572 19.3102 22.4572 19.3102 22.3898ZM15.0403 20.9088C15.361 19.7812 15.6816 18.7209 16.0529 17.5934C16.3736 18.6705 16.6943 19.7812 17.0149 20.9088H15.0403Z" fill="#828FA4"/>
<path id="Vector_13" d="M44.2044 18.9062C43.1411 17.4756 40.8796 17.4083 39.8163 18.8557C39.175 19.714 39.0568 20.6733 39.2762 21.6831C39.4956 22.5414 39.9851 23.1809 40.7277 23.5512C41.3184 23.871 41.9091 23.9214 42.5504 23.8205C43.6306 23.6522 44.3225 23.0631 44.6432 22.0533C44.6432 22.0029 44.6938 21.9355 44.6938 21.8346C44.2719 21.885 43.7825 21.885 43.3605 21.885C43.2424 21.885 43.2424 21.9355 43.1917 21.986C43.0399 22.3058 42.8711 22.5246 42.5504 22.6256C42.0779 22.777 41.639 22.7265 41.2678 22.4573C40.8458 22.1375 40.677 21.6663 40.6264 21.1277H44.7445C44.7951 20.4882 44.525 19.4616 44.2044 18.9062ZM40.6264 20.0506C40.677 19.4616 41.3184 18.9398 41.9597 18.9735C42.601 18.9735 43.0905 19.4616 43.0905 20.1011L40.6264 20.0506Z" fill="#828FA4"/>
<path id="Vector_14" d="M33.6054 22.659V21.6492C33.6054 20.9592 33.656 20.3197 33.6054 19.6801C33.5547 18.9901 33.2341 18.4011 32.5421 18.1318C31.6814 17.7615 30.8375 17.7615 29.9768 18.0813C29.5548 18.2496 29.1835 18.5694 28.9641 18.9901C28.7954 19.1921 28.7447 19.4613 28.7447 19.7306L30.1287 19.7811V19.6128C30.1287 19.1921 30.3987 18.9733 30.77 18.8723C30.9725 18.8218 31.2426 18.8218 31.462 18.8723C31.7826 18.9228 32.002 19.1416 32.0527 19.4613C32.0527 19.6296 32.1033 19.8316 32.1033 19.9999C32.0695 19.9999 32.0864 20.0392 32.1539 20.1177C31.6814 20.185 31.2426 20.2355 30.8206 20.286C30.2806 20.3365 29.808 20.4375 29.3186 20.7067C28.2553 21.2285 28.2553 22.6253 28.9473 23.3154C29.7574 24.0559 31.1919 24.1064 32.0527 23.3659L32.2721 23.1471V23.7866H34.0948V22.659H33.6054ZM31.867 22.3056C31.4788 22.6758 30.905 22.8441 30.4156 22.6758C30.0949 22.5749 29.8755 22.3561 29.8755 22.0363C29.8755 21.7165 29.9768 21.4473 30.2974 21.3463C30.5506 21.2285 30.77 21.178 31.04 21.1275C31.3607 21.0097 31.732 21.0097 32.1033 20.9592C32.1708 21.4473 32.1708 21.9185 31.867 22.3056Z" fill="#828FA4"/>
<path id="Vector_15" d="M36.7615 22.5579H37.4535V23.6855H34.77V22.5579H35.3607V19.0405H34.77V17.9129H36.7447V18.7712C36.7953 18.7208 36.8459 18.6029 36.8459 18.5525C37.0653 18.2327 37.3354 17.9129 37.7573 17.8624C38.0779 17.7615 38.4492 17.8119 38.7699 17.8624L38.8205 17.9129V19.192C38.6518 19.192 38.4999 19.1415 38.3311 19.1415C37.9092 19.091 37.4704 19.192 37.1497 19.4613C36.8797 19.6801 36.7784 19.9998 36.7278 20.3196V22.457C36.7165 22.4906 36.7278 22.5243 36.7615 22.5579Z" fill="#828FA4"/>
<path id="Vector_16" d="M50.3306 20.4209C50.0099 19.7309 49.4699 19.3606 48.6766 19.3606C47.8834 19.3606 47.2927 19.7309 46.972 20.4209C46.6514 21.1109 46.702 21.8682 46.972 22.5583C47.2421 23.1978 47.7315 23.6354 48.4235 23.6858C49.183 23.7363 49.7737 23.5176 50.1956 22.878C50.4656 22.5078 50.5669 22.0365 50.5669 21.498C50.5669 21.1782 50.5163 20.808 50.3306 20.4209ZM49.9424 21.8009C49.8918 22.1207 49.8243 22.3395 49.723 22.6087C49.5205 23.0295 49.1323 23.2483 48.6598 23.2483C48.1872 23.2483 47.8665 22.979 47.6471 22.5583C47.529 22.2385 47.4784 21.9187 47.4784 21.599C47.4784 21.2287 47.4784 20.9089 47.6978 20.5723C47.9172 20.2021 48.1872 19.9328 48.6598 19.9328C49.1323 19.9328 49.5036 20.1516 49.723 20.5723C49.9424 20.9426 49.9931 21.3802 49.9424 21.8009Z" fill="#828FA4"/>
<path id="Vector_17" d="M52.9296 23.6349H51.0563V23.1469H51.647V19.9997H51.0563V19.5116H52.2883V20.37C52.5077 19.9997 52.7778 19.6294 53.1997 19.4611C53.4191 19.4107 53.7904 19.4107 54.0098 19.4611V20.0502C53.9085 20.0502 53.7904 20.0502 53.6891 19.9997C52.9465 19.9492 52.3052 20.4878 52.3052 21.2283V23.0964H52.9972L52.9296 23.6349Z" fill="#828FA4"/>
<path id="Vector_18" d="M46.1281 22.9453H45.4362V23.6353H46.1281V22.9453Z" fill="#828FA4"/>
</g>
<path id="Vector_19" d="M62.9091 9.54519C62.9091 10.2419 62.3471 10.794 61.6348 10.794C60.9226 10.794 60.3522 10.2419 60.3522 9.54519C60.3522 8.84844 60.9209 8.30484 61.6416 8.30484C62.3622 8.30484 62.9091 8.85012 62.9091 9.54519ZM60.6712 9.54519C60.6712 10.0972 61.088 10.5365 61.6416 10.5365C62.18 10.5432 62.5901 10.0972 62.5901 9.55361C62.5901 9.01001 62.18 8.5556 61.6264 8.5556C61.0728 8.5556 60.6695 9.00159 60.6695 9.54688L60.6712 9.54519ZM61.4374 10.1881H61.1488V8.94774C61.2619 8.93259 61.4222 8.91071 61.6264 8.91071C61.861 8.91071 61.9673 8.94774 62.0517 9.00832C62.1277 9.0605 62.18 9.15138 62.18 9.27255C62.18 9.42402 62.0669 9.52163 61.9218 9.56707V9.58222C62.0433 9.61925 62.104 9.71854 62.1412 9.88516C62.1783 10.0736 62.2087 10.1427 62.2323 10.1881H61.9285C61.8914 10.1427 61.8677 10.0366 61.8306 9.88516C61.8087 9.75725 61.7327 9.69666 61.5724 9.69666H61.4357V10.1881H61.4374ZM61.4441 9.49134H61.5808C61.7395 9.49134 61.8694 9.43748 61.8694 9.30958C61.8694 9.19682 61.7867 9.12108 61.6045 9.12108C61.5285 9.12108 61.4762 9.12782 61.4458 9.13623V9.49134H61.4441Z" fill="#828FA4"/>
</g>
</g>
</svg>
