<svg width="16" height="12" viewBox="0 0 16 12" fill="none" xmlns="http://www.w3.org/2000/svg">
<g id="Baccarat" clip-path="url(#clip0_167_193)">
<g id="Group">
<path id="Vector" d="M7.99994 8.65625C10.1748 8.65625 12.1991 7.41434 13.1874 5.48325V2.875C13.1874 2.75066 13.2368 2.63144 13.3247 2.54356L15.337 0.53125H0.662842L2.67515 2.54356C2.76306 2.63144 2.81244 2.75066 2.81244 2.875V5.48325C3.80075 7.41434 5.82506 8.65625 7.99994 8.65625ZM7.99994 7.71875C7.74106 7.71875 7.53119 7.50887 7.53119 7.25C7.53119 6.99113 7.74106 6.78125 7.99994 6.78125C8.25881 6.78125 8.46869 6.99113 8.46869 7.25C8.46869 7.50887 8.25881 7.71875 7.99994 7.71875ZM9.87494 7.21634C9.61606 7.21634 9.40619 7.00647 9.40619 6.74759C9.40619 6.48872 9.61606 6.27884 9.87494 6.27884C10.1338 6.27884 10.3437 6.48872 10.3437 6.74759C10.3437 7.00647 10.1338 7.21634 9.87494 7.21634ZM11.7499 3.03125C12.0088 3.03125 12.2187 3.24113 12.2187 3.5C12.2187 3.75887 12.0088 3.96875 11.7499 3.96875C11.4911 3.96875 11.2812 3.75887 11.2812 3.5C11.2812 3.24113 11.4911 3.03125 11.7499 3.03125ZM11.2475 4.90625C11.5064 4.90625 11.7163 5.11613 11.7163 5.375C11.7163 5.63387 11.5064 5.84375 11.2475 5.84375C10.9887 5.84375 10.7788 5.63387 10.7788 5.375C10.7788 5.11613 10.9887 4.90625 11.2475 4.90625ZM6.12494 2.40625H9.87494C10.1338 2.40625 10.3437 2.61613 10.3437 2.875C10.3437 3.13387 10.1338 3.34375 9.87494 3.34375H6.12494C5.86606 3.34375 5.65619 3.13387 5.65619 2.875C5.65619 2.61613 5.86606 2.40625 6.12494 2.40625ZM6.12494 6.27884C6.38381 6.27884 6.59369 6.48872 6.59369 6.74759C6.59369 7.00647 6.38381 7.21634 6.12494 7.21634C5.86606 7.21634 5.65619 7.00647 5.65619 6.74759C5.65619 6.48872 5.86606 6.27884 6.12494 6.27884ZM5.22109 5.375C5.22109 5.63387 5.01122 5.84375 4.75234 5.84375C4.49347 5.84375 4.28359 5.63387 4.28359 5.375C4.28359 5.11613 4.49347 4.90625 4.75234 4.90625C5.01122 4.90625 5.22109 5.11613 5.22109 5.375ZM4.24994 3.03125C4.50881 3.03125 4.71869 3.24113 4.71869 3.5C4.71869 3.75887 4.50881 3.96875 4.24994 3.96875C3.99106 3.96875 3.78119 3.75887 3.78119 3.5C3.78119 3.24113 3.99106 3.03125 4.24994 3.03125Z" fill="white"/>
<path id="Vector_2" d="M14.125 3.06912V5.59384C14.125 5.66515 14.1087 5.7355 14.0774 5.79959C13.5219 6.93678 12.6607 7.89284 11.5868 8.56453C10.5102 9.23781 9.26994 9.59372 7.99997 9.59372C6.73 9.59372 5.48972 9.23781 4.41319 8.56447C3.33931 7.89284 2.47803 6.93672 1.92256 5.79956C1.89125 5.73547 1.875 5.66512 1.875 5.59381V3.06909L0 1.19409V5.99997C0 6.06462 0.013375 6.12859 0.0393125 6.18787L0.0849375 6.29215C1.46069 9.43681 4.56753 11.4687 7.99997 11.4687C11.4324 11.4687 14.5393 9.43681 15.915 6.29215L15.9607 6.18787C15.9866 6.12862 16 6.06465 16 5.99997V1.19412L14.125 3.06912Z" fill="white"/>
</g>
</g>
<defs>
<clipPath id="clip0_167_193">
<rect width="16" height="12" fill="white"/>
</clipPath>
</defs>
</svg>
