<svg width="72" height="32" viewBox="0 0 72 32" fill="none" xmlns="http://www.w3.org/2000/svg">
<g id="Group 48097830">
<g id="Group">
<g id="Group_2">
<path id="Vector" d="M29.4342 10.6146C29.3631 10.643 29.3774 10.7177 29.3489 10.771C29.1784 11.0943 28.9261 11.3004 28.553 11.3289C28.4641 11.336 28.3717 11.3431 28.2829 11.3431C21.9079 11.3431 15.5329 11.3431 9.15799 11.3431C8.87371 11.3431 8.60366 11.3182 8.37268 11.1263C7.78991 10.6466 7.91427 9.77953 8.62497 9.44906C9.48847 9.05107 10.3591 8.66729 11.2261 8.27641C13.543 7.23524 15.8599 6.19406 18.1767 5.15289C18.3011 5.09604 18.4291 5.04984 18.557 5.00009C18.6671 5.00009 18.7808 5.00009 18.891 5.00009C19.3423 5.0605 19.7261 5.30214 20.1276 5.47981C21.4921 6.08746 22.8496 6.69866 24.2106 7.31341C25.4116 7.8571 26.6163 8.39367 27.8138 8.93736C28.1301 9.08305 28.4499 9.22519 28.7697 9.36377C29.1393 9.52368 29.4058 9.75821 29.4378 10.1846V10.6039L29.4342 10.6146Z" fill="#828FA4"/>
<path id="Vector_2" d="M29.4346 25.6827C29.3635 25.7111 29.3742 25.7858 29.3493 25.8391C29.1716 26.2122 28.8767 26.4112 28.4645 26.436C28.429 26.436 28.3934 26.436 28.3614 26.436C21.9332 26.436 15.5013 26.436 9.07309 26.436C8.5756 26.436 8.19894 26.1944 8.0568 25.7858C7.84004 25.1603 8.26646 24.5349 8.94873 24.4781C9.03046 24.471 9.11573 24.4781 9.20101 24.4781C15.5262 24.4781 21.8514 24.4781 28.1766 24.4781C28.93 24.4781 29.1681 24.6344 29.4346 25.3096V25.6863V25.6827Z" fill="#828FA4"/>
<path id="Vector_3" d="M27.231 21.9524C27.0391 21.9524 26.993 21.8991 26.993 21.7108C27.0001 18.9497 26.9965 16.1887 26.993 13.4276C26.993 13.2712 26.993 13.1717 27.2026 13.186C27.4229 13.1966 27.6042 13.0829 27.6859 12.859C27.7499 12.6778 27.7108 12.5108 27.5829 12.3722C27.4443 12.2194 27.2559 12.2052 27.064 12.2052C22.8105 12.2052 18.557 12.2052 14.3035 12.2052C12.9638 12.2052 11.6241 12.2052 10.288 12.2052C9.93979 12.2052 9.72303 12.3864 9.70881 12.6743C9.69815 12.9692 9.89359 13.1824 10.2383 13.186C10.4195 13.186 10.4302 13.257 10.4302 13.4027C10.4302 16.178 10.4302 18.9533 10.4302 21.7285C10.4302 21.7641 10.4302 21.7996 10.4302 21.8316C10.4408 21.9275 10.3946 21.956 10.3093 21.9453C10.256 21.9418 10.1992 21.9453 10.1423 21.9489C9.41386 21.9844 8.98744 22.7591 9.34279 23.3951C9.56311 23.786 9.92204 23.9033 10.3449 23.9033C13.1273 23.9033 15.9097 23.9033 18.692 23.9033C21.4744 23.9033 24.2426 23.9033 27.0178 23.9033C27.1138 23.9033 27.2133 23.8997 27.3092 23.8855C27.8458 23.8215 28.2296 23.3916 28.2047 22.887C28.1799 22.354 27.7748 21.956 27.224 21.9524H27.231ZM15.0924 21.9524C14.2537 21.9418 13.4186 21.9418 12.58 21.9524C12.4166 21.9524 12.3882 21.9062 12.3882 21.7534C12.3917 18.9639 12.3917 16.1744 12.3882 13.385C12.3882 13.2286 12.4272 13.1895 12.5836 13.1931C13.4257 13.2002 14.2715 13.2002 15.1137 13.1931C15.2629 13.1931 15.2984 13.2322 15.2949 13.3779C15.2878 14.7815 15.2949 16.1816 15.2949 17.5852C15.2949 18.9888 15.2949 20.3605 15.2984 21.7499C15.2984 21.9133 15.2594 21.9595 15.0924 21.956V21.9524ZM19.9713 21.9524C19.1291 21.9453 18.2834 21.9453 17.4412 21.9524C17.2813 21.9524 17.2493 21.9098 17.2493 21.757C17.2564 20.3569 17.2529 18.9533 17.2529 17.5532C17.2529 16.1531 17.2529 14.7921 17.2493 13.4134C17.2493 13.2499 17.2742 13.1895 17.4589 13.1931C18.3011 13.2037 19.1469 13.2002 19.9891 13.1931C20.1312 13.1931 20.1774 13.2286 20.1774 13.3779C20.1738 16.1744 20.1738 18.9675 20.1774 21.7641C20.1774 21.9311 20.1205 21.9524 19.9748 21.9524H19.9713ZM25.0421 21.7321C25.0421 21.8956 25.0172 21.956 24.8324 21.956C23.9903 21.9453 23.1445 21.9489 22.3024 21.956C22.1673 21.956 22.1247 21.924 22.1247 21.7854C22.1282 18.9817 22.1282 16.178 22.1247 13.3743C22.1247 13.2393 22.1567 13.1966 22.2988 13.1966C23.1481 13.2037 24.0009 13.2037 24.8502 13.1966C25.003 13.1966 25.0457 13.2286 25.0457 13.3885C25.0386 14.7886 25.0421 16.1922 25.0421 17.5923C25.0421 18.9924 25.0421 20.3533 25.0457 21.7357L25.0421 21.7321Z" fill="#828FA4"/>
</g>
<g id="Group_3">
<path id="Vector_4" d="M34.8107 9.0685C35.1447 9.00809 35.8163 8.95123 36.4595 8.95123C37.2377 8.95123 37.7139 9.02586 38.1332 9.27105C38.5276 9.4807 38.8012 9.86448 38.8012 10.3833C38.8012 10.9021 38.5098 11.3356 37.8738 11.5808V11.5986C38.517 11.7656 38.9967 12.2595 38.9967 12.9773C38.9967 13.4961 38.7621 13.8977 38.4104 14.182C38.0017 14.5089 37.3159 14.6937 36.193 14.6937C35.564 14.6937 35.0985 14.651 34.8142 14.6084V9.0685H34.8107ZM36.0757 11.2255H36.495C37.1737 11.2255 37.5255 10.9483 37.5255 10.5325C37.5255 10.1168 37.1986 9.87869 36.6229 9.87869C36.3387 9.87869 36.1787 9.89646 36.0792 9.91067V11.2255H36.0757ZM36.0757 13.7271C36.2001 13.7449 36.3529 13.7449 36.5696 13.7449C37.1453 13.7449 37.657 13.5175 37.657 12.924C37.657 12.3626 37.1453 12.1387 36.5092 12.1387H36.0757V13.7271Z" fill="#828FA4"/>
<path id="Vector_5" d="M43.2502 13.6432C43.2502 14.027 43.268 14.4037 43.3177 14.6311H42.1699L42.0953 14.2225H42.0704C41.8039 14.5494 41.3846 14.7235 40.8978 14.7235C40.0699 14.7235 39.5759 14.123 39.5759 13.4691C39.5759 12.4066 40.5282 11.9056 41.978 11.9056V11.8558C41.978 11.6284 41.8608 11.3193 41.2318 11.3193C40.8125 11.3193 40.3719 11.4614 40.1018 11.6284L39.8673 10.8076C40.1516 10.6476 40.713 10.438 41.4557 10.438C42.8202 10.438 43.2467 11.2411 43.2467 12.2112V13.6432H43.2502ZM42.0207 12.698C41.3527 12.698 40.8338 12.8579 40.8338 13.3412C40.8338 13.6681 41.0506 13.828 41.3349 13.828C41.644 13.828 41.9105 13.6184 41.9958 13.359C42.0136 13.2914 42.0207 13.2168 42.0207 13.1422V12.698Z" fill="#828FA4"/>
<path id="Vector_6" d="M44.2632 11.8434C44.2632 11.3317 44.2454 10.9053 44.2312 10.5393H45.3363L45.3932 11.1078H45.4181C45.5851 10.8413 45.9937 10.4469 46.6796 10.4469C47.5146 10.4469 48.1436 11.0084 48.1436 12.213V14.6294H46.8714V12.3622C46.8714 11.8363 46.6867 11.4739 46.2283 11.4739C45.8765 11.4739 45.6668 11.7155 45.5744 11.95C45.5424 12.0353 45.5317 12.149 45.5317 12.2663V14.6258H44.2596V11.8399L44.2632 11.8434Z" fill="#828FA4"/>
<path id="Vector_7" d="M50.439 12.2622H50.4568C50.5492 12.0881 50.6486 11.9176 50.7481 11.7683L51.5761 10.5388H53.1077L51.6436 12.1947L53.3173 14.6289H51.7538L50.7588 12.9481L50.4425 13.3496V14.6289H49.1704V8.68744H50.4425V12.2587L50.439 12.2622Z" fill="#828FA4"/>
<path id="Vector_8" d="M35.9052 20.1007H34.3807V19.0311H38.716V20.1007H37.1773V24.6669H35.9052V20.1007Z" fill="#828FA4"/>
<path id="Vector_9" d="M38.9005 21.9276C38.9005 21.327 38.8934 20.9326 38.8685 20.5808H39.9559L40.0057 21.3341H40.0376C40.2473 20.73 40.7412 20.4813 41.1428 20.4813C41.26 20.4813 41.3169 20.4884 41.4093 20.5062V21.7037C41.3098 21.6859 41.2103 21.6717 41.0682 21.6717C40.5991 21.6717 40.2829 21.924 40.1976 22.3149C40.1798 22.4002 40.1727 22.4997 40.1727 22.5992V24.6744H38.9005V21.9311V21.9276Z" fill="#828FA4"/>
<path id="Vector_10" d="M45.393 23.6831C45.393 24.0668 45.4107 24.4435 45.4605 24.6709H44.3127L44.2381 24.2623H44.2132C43.9467 24.5892 43.5274 24.7633 43.0406 24.7633C42.2126 24.7633 41.7186 24.1628 41.7186 23.5089C41.7186 22.4464 42.671 21.9454 44.1208 21.9454V21.8957C44.1208 21.6682 44.0035 21.3591 43.3746 21.3591C42.9553 21.3591 42.5146 21.5012 42.2445 21.6682L42.01 20.8474C42.2943 20.6875 42.8558 20.4778 43.5984 20.4778C44.963 20.4778 45.3894 21.2809 45.3894 22.251V23.6831H45.393ZM44.1634 22.7378C43.4954 22.7378 42.9766 22.8977 42.9766 23.381C42.9766 23.7079 43.1934 23.8678 43.4776 23.8678C43.7868 23.8678 44.0533 23.6582 44.1386 23.3988C44.1563 23.3313 44.1634 23.2566 44.1634 23.182V22.7378Z" fill="#828FA4"/>
<path id="Vector_11" d="M46.4059 21.8858C46.4059 21.3741 46.3881 20.9477 46.3739 20.5817H47.479L47.5359 21.1502H47.5608C47.7278 20.8837 48.1364 20.4893 48.8222 20.4893C49.6573 20.4893 50.2863 21.0507 50.2863 22.2554V24.6717H49.0141V22.4046C49.0141 21.8787 48.8294 21.5162 48.371 21.5162C48.0192 21.5162 47.8095 21.7579 47.7171 21.9924C47.6851 22.0777 47.6744 22.1914 47.6744 22.3087V24.6682H46.4023V21.8823L46.4059 21.8858Z" fill="#828FA4"/>
<path id="Vector_12" d="M51.3024 23.5657C51.5369 23.7079 52.0202 23.8678 52.3968 23.8678C52.7735 23.8678 52.9405 23.7434 52.9405 23.5337C52.9405 23.3241 52.8161 23.2175 52.3471 23.0576C51.4942 22.7733 51.1673 22.3113 51.1744 21.8281C51.1744 21.057 51.8283 20.4813 52.841 20.4813C53.3172 20.4813 53.7365 20.5986 53.9888 20.7229L53.772 21.6006C53.5873 21.5011 53.2284 21.3661 52.8837 21.3661C52.5745 21.3661 52.3968 21.4905 52.3968 21.693C52.3968 21.8956 52.5567 21.9951 53.0578 22.1692C53.836 22.4357 54.1522 22.8373 54.1629 23.4342C54.1629 24.2053 53.5695 24.7632 52.3968 24.7632C51.8603 24.7632 51.3841 24.6389 51.075 24.4719L51.3024 23.5693V23.5657Z" fill="#828FA4"/>
<path id="Vector_13" d="M55.0905 24.6703V21.5148H54.5469V20.5766H55.0905V20.4167C55.0905 19.9228 55.2398 19.3791 55.6023 19.0451C55.9292 18.743 56.3627 18.6364 56.7393 18.6364C57.0165 18.6364 57.2333 18.6791 57.4074 18.7217L57.3577 19.6989C57.2475 19.667 57.116 19.6421 56.949 19.6421C56.5297 19.6421 56.3556 19.969 56.3556 20.3705V20.5802H57.1764V21.5183H56.3663V24.6738H55.0941L55.0905 24.6703Z" fill="#828FA4"/>
<path id="Vector_14" d="M58.6901 23.0291C58.7221 23.555 59.2516 23.8073 59.845 23.8073C60.2785 23.8073 60.6303 23.7504 60.975 23.6332L61.142 24.4931C60.7227 24.6672 60.2145 24.7525 59.6602 24.7525C58.2708 24.7525 57.4784 23.9494 57.4784 22.6702C57.4784 21.6325 58.1216 20.4848 59.5465 20.4848C60.8684 20.4848 61.3694 21.5153 61.3694 22.5245C61.3694 22.7412 61.3446 22.9331 61.3268 23.0255H58.6901V23.0291ZM60.1861 22.1585C60.1861 21.8493 60.0511 21.3305 59.4683 21.3305C58.9318 21.3305 58.715 21.8244 58.683 22.1585H60.1897H60.1861Z" fill="#828FA4"/>
<path id="Vector_15" d="M62.13 21.9276C62.13 21.327 62.1229 20.9326 62.098 20.5808H63.1854L63.2351 21.3341H63.2671C63.4767 20.73 63.9707 20.4813 64.3722 20.4813C64.4895 20.4813 64.5463 20.4884 64.6387 20.5062V21.7037C64.5392 21.6859 64.4397 21.6717 64.2976 21.6717C63.8285 21.6717 63.5123 21.924 63.427 22.3149C63.4093 22.4002 63.4021 22.4997 63.4021 22.5992V24.6744H62.13V21.9311V21.9276Z" fill="#828FA4"/>
</g>
</g>
</g>
</svg>
