<svg width="33" height="33" viewBox="0 0 33 33" fill="none" xmlns="http://www.w3.org/2000/svg">
<g id="Group">
<g id="Group_2">
<path id="Subtract" fill-rule="evenodd" clip-rule="evenodd" d="M16.7975 32.4051C25.7459 32.4051 33 25.151 33 16.2027C33 7.25429 25.7459 0.000213623 16.7975 0.000213623C7.84917 0.000213623 0.595093 7.25429 0.595093 16.2027C0.595093 25.151 7.84917 32.4051 16.7975 32.4051ZM24.3797 17.5042V22.5765C24.3797 23.201 24.0472 23.5375 23.4228 23.5375C20.0509 23.5375 16.679 23.5416 13.3071 23.5456L13.3023 23.5456C12.8969 23.5456 12.5725 23.4199 12.4022 23.0266C12.2441 22.6658 12.3252 22.3495 12.6739 22.0048L12.6763 22.0024L12.6775 22.0012C16.0903 18.5965 19.5031 15.1918 22.9119 11.783C23.1836 11.5114 23.4877 11.41 23.8485 11.5438C24.2053 11.6736 24.3716 11.9614 24.3716 12.4034V17.5042H24.3797ZM20.1707 7.29855H17.4013L17.3973 7.29449C17.1247 7.29449 16.8517 7.29712 16.5786 7.29975C15.9539 7.30576 15.3285 7.31178 14.705 7.28639C14.186 7.26611 13.8008 7.63508 13.8089 8.17435C13.8228 9.02235 13.8208 9.87035 13.8188 10.7183C13.8173 11.3544 13.8158 11.9904 13.8211 12.6264C13.8251 12.8778 13.7481 12.9426 13.5007 12.9426C12.3199 12.9329 11.1392 12.9336 9.95837 12.9342C9.66326 12.9344 9.36815 12.9345 9.07304 12.9345C8.41619 12.9345 8.13236 13.2184 8.13236 13.8793V19.1625C8.13236 19.1855 8.13191 19.2084 8.13146 19.2314C8.13056 19.2774 8.12966 19.3233 8.13236 19.3693C8.1648 19.791 8.48106 20.1113 8.87842 20.1234C9.30416 20.1397 9.62448 19.864 9.68124 19.4179C9.69746 19.2922 9.69746 19.1625 9.69746 19.0327C9.69746 18.7514 9.69762 18.47 9.69779 18.1886C9.69843 17.063 9.69908 15.9374 9.68935 14.8118C9.68935 14.5564 9.75017 14.4712 10.0218 14.4712C11.0586 14.4799 12.0933 14.4783 13.1289 14.4766C13.5432 14.476 13.9577 14.4753 14.3725 14.4753C15.0537 14.4753 15.3416 14.1915 15.3416 13.5022C15.3416 12.0466 15.3416 10.5869 15.3334 9.1272C15.3334 8.89203 15.3943 8.81905 15.6375 8.81905C17.1485 8.82715 18.6553 8.82311 20.1663 8.81906L20.1707 8.81905C20.6451 8.815 21.0059 8.46629 20.9978 8.0365C20.9897 7.61481 20.641 7.29855 20.1707 7.29855Z" fill="white"/>
</g>
</g>
</svg>
