<svg width="393" height="1560" viewBox="0 0 393 1560" fill="none" xmlns="http://www.w3.org/2000/svg">
<g filter="url(#filter0_df_0_2562)">
<path d="M0 72.4131L84.0753 156.151M225.545 297.053L142.09 213.933M142.09 213.933L171.098 185.042M142.09 213.933L84.0753 156.151M284.181 239.889L200.105 156.151L171.098 185.042M171.098 185.042L254.087 267.699M84.0753 156.151L55.0678 185.042M0 187.978L26.0602 213.933L55.0678 185.042M55.0678 185.042L0 130.195M0 242.979L26.0602 268.935L84.0753 211.152L204.139 330.734M0 14.9398L142.09 156.46L200.105 98.6778C235.783 135.448 307.511 208.619 309 207.136" stroke="url(#paint0_linear_0_2562)" stroke-opacity="0.8"/>
<path d="M0 311.45L84.0753 395.188M225.545 536.091L142.09 452.971M142.09 452.971L171.098 424.08M142.09 452.971L84.0753 395.188M284.181 478.926L200.105 395.188L171.098 424.08M171.098 424.08L254.087 506.736M84.0753 395.188L55.0678 424.08M0 427.015L26.0602 452.971L55.0678 424.08M55.0678 424.08L0 369.233M0 482.016L26.0602 507.972L84.0753 450.19L204.139 569.771M0 253.977L142.09 395.497L200.105 337.715C235.783 374.486 307.511 447.656 309 446.173" stroke="url(#paint1_linear_0_2562)" stroke-opacity="0.8"/>
<path d="M393 588.335L308.925 672.073M167.455 812.975L250.91 729.855M250.91 729.855L221.902 700.964M250.91 729.855L308.925 672.073M108.819 755.811L192.895 672.073L221.902 700.964M221.902 700.964L138.913 783.621M308.925 672.073L337.932 700.964M393 703.9L366.94 729.855L337.932 700.964M337.932 700.964L393 646.117M393 758.901L366.94 784.857L308.925 727.074L188.861 846.656M393 530.862L250.91 672.382L192.895 614.6C157.217 651.37 85.4892 724.541 84 723.057" stroke="url(#paint2_linear_0_2562)" stroke-opacity="0.8"/>
<path d="M393 912.031L308.925 995.769M167.455 1136.67L250.91 1053.55M250.91 1053.55L221.902 1024.66M250.91 1053.55L308.925 995.769M108.819 1079.51L192.895 995.769L221.902 1024.66M221.902 1024.66L138.913 1107.32M308.925 995.769L337.932 1024.66M393 1027.6L366.94 1053.55L337.932 1024.66M337.932 1024.66L393 969.814M393 1082.6L366.94 1108.55L308.925 1050.77L188.861 1170.35M393 854.558L250.91 996.078L192.895 938.296C157.217 975.066 85.4892 1048.24 84 1046.75" stroke="url(#paint3_linear_0_2562)" stroke-opacity="0.8"/>
<path d="M393 1162.02L308.925 1245.76M167.455 1386.66L250.91 1303.54M250.91 1303.54L221.902 1274.65M250.91 1303.54L308.925 1245.76M108.819 1329.5L192.895 1245.76L221.902 1274.65M221.902 1274.65L138.913 1357.31M308.925 1245.76L337.932 1274.65M393 1277.59L366.94 1303.54L337.932 1274.65M337.932 1274.65L393 1219.81M393 1332.59L366.94 1358.55L308.925 1300.76L188.861 1420.35M393 1104.55L250.91 1246.07L192.895 1188.29C157.217 1225.06 85.4892 1298.23 84 1296.75" stroke="url(#paint4_linear_0_2562)" stroke-opacity="0.8"/>
<path d="M393 264.639L308.925 348.377M167.455 489.279L250.91 406.159M250.91 406.159L221.902 377.268M250.91 406.159L308.925 348.377M108.819 432.115L192.895 348.377L221.902 377.268M221.902 377.268L138.913 459.924M308.925 348.377L337.932 377.268M393 380.203L366.94 406.159L337.932 377.268M337.932 377.268L393 322.421M393 435.205L366.94 461.16L308.925 403.378L188.861 522.96M393 207.166L250.91 348.686L192.895 290.904C157.217 327.674 85.4892 400.844 84 399.361" stroke="url(#paint5_linear_0_2562)" stroke-opacity="0.8"/>
<path d="M0 867.212L84.0753 950.95M225.545 1091.85L142.09 1008.73M142.09 1008.73L171.098 979.841M142.09 1008.73L84.0753 950.95M284.181 1034.69L200.105 950.95L171.098 979.841M171.098 979.841L254.087 1062.5M84.0753 950.95L55.0678 979.841M0 982.776L26.0602 1008.73L55.0678 979.841M55.0678 979.841L0 924.994M0 1037.78L26.0602 1063.73L84.0753 1005.95L204.139 1125.53M0 809.738L142.09 951.259L200.105 893.476C235.783 930.247 307.511 1003.42 309 1001.93" stroke="url(#paint6_linear_0_2562)" stroke-opacity="0.8"/>
<path d="M0 1082.35L84.0753 1166.08M225.545 1306.99L142.09 1223.87M142.09 1223.87L171.098 1194.97M142.09 1223.87L84.0753 1166.08M284.181 1249.82L200.105 1166.08L171.098 1194.97M171.098 1194.97L254.087 1277.63M84.0753 1166.08L55.0678 1194.97M0 1197.91L26.0602 1223.87L55.0678 1194.97M55.0678 1194.97L0 1140.13M0 1252.91L26.0602 1278.87L84.0753 1221.08L204.139 1340.67M0 1024.87L142.09 1166.39L200.105 1108.61C235.783 1145.38 307.511 1218.55 309 1217.07" stroke="url(#paint7_linear_0_2562)" stroke-opacity="0.8"/>
<path d="M393 1384.13L308.925 1467.87M167.455 1608.77L250.91 1525.65M250.91 1525.65L221.902 1496.76M250.91 1525.65L308.925 1467.87M108.819 1551.61L192.895 1467.87L221.902 1496.76M221.902 1496.76L138.913 1579.42M308.925 1467.87L337.932 1496.76M393 1499.69L366.94 1525.65L337.932 1496.76M337.932 1496.76L393 1441.91M393 1554.7L366.94 1580.65L308.925 1522.87L188.861 1642.45M393 1326.66L250.91 1468.18L192.895 1410.39C157.217 1447.16 85.4892 1520.34 84 1518.85" stroke="url(#paint8_linear_0_2562)" stroke-opacity="0.8"/>
<path d="M0 1384.13L84.0753 1467.87M225.545 1608.77L142.09 1525.65M142.09 1525.65L171.098 1496.76M142.09 1525.65L84.0753 1467.87M284.181 1551.61L200.105 1467.87L171.098 1496.76M171.098 1496.76L254.087 1579.42M84.0753 1467.87L55.0678 1496.76M0 1499.69L26.0602 1525.65L55.0678 1496.76M55.0678 1496.76L0 1441.91M0 1554.7L26.0602 1580.65L84.0753 1522.87L204.139 1642.45M0 1326.66L142.09 1468.18L200.105 1410.39C235.783 1447.16 307.511 1520.34 309 1518.85" stroke="url(#paint9_linear_0_2562)" stroke-opacity="0.8"/>
<path d="M393 -12.2458L308.925 71.4922M167.455 212.394L250.91 129.274M250.91 129.274L221.902 100.383M250.91 129.274L308.925 71.4922M108.819 155.23L192.895 71.4922L221.902 100.383M221.902 100.383L138.913 183.04M308.925 71.4922L337.932 100.383M393 103.319L366.94 129.274L337.932 100.383M337.932 100.383L393 45.5365M393 158.32L366.94 184.276L308.925 126.494L188.861 246.075M393 -69.7191L250.91 71.8012L192.895 14.0189C157.217 50.7894 85.4892 123.96 84 122.477" stroke="url(#paint10_linear_0_2562)" stroke-opacity="0.8"/>
</g>
<defs>
<filter id="filter0_df_0_2562" x="-6.35278" y="-72.0734" width="405.706" height="3720.77" filterUnits="userSpaceOnUse" color-interpolation-filters="sRGB">
<feFlood flood-opacity="0" result="BackgroundImageFix"/>
<feColorMatrix in="SourceAlpha" type="matrix" values="0 0 0 0 0 0 0 0 0 0 0 0 0 0 0 0 0 0 127 0" result="hardAlpha"/>
<feOffset dy="4"/>
<feGaussianBlur stdDeviation="3"/>
<feComposite in2="hardAlpha" operator="out"/>
<feColorMatrix type="matrix" values="0 0 0 0 0 0 0 0 0 0 0 0 0 0 0 0 0 0 0.9 0"/>
<feBlend mode="normal" in2="BackgroundImageFix" result="effect1_dropShadow_0_2562"/>
<feBlend mode="normal" in="SourceGraphic" in2="effect1_dropShadow_0_2562" result="shape"/>
<feGaussianBlur stdDeviation="1" result="effect2_foregroundBlur_0_2562"/>
</filter>
<linearGradient id="paint0_linear_0_2562" x1="1.90789e-06" y1="30.3776" x2="161.853" y2="191.382" gradientUnits="userSpaceOnUse">
<stop offset="0.724206" stop-color="#00010E"/>
<stop offset="1" stop-color="#03060A" stop-opacity="0"/>
</linearGradient>
<linearGradient id="paint1_linear_0_2562" x1="1.90789e-06" y1="269.415" x2="161.853" y2="430.42" gradientUnits="userSpaceOnUse">
<stop offset="0.724206" stop-color="#00010E"/>
<stop offset="1" stop-color="#03060A" stop-opacity="0"/>
</linearGradient>
<linearGradient id="paint2_linear_0_2562" x1="393" y1="546.3" x2="231.147" y2="707.304" gradientUnits="userSpaceOnUse">
<stop offset="0.724206" stop-color="#00010E"/>
<stop offset="1" stop-color="#03060A" stop-opacity="0"/>
</linearGradient>
<linearGradient id="paint3_linear_0_2562" x1="393" y1="869.996" x2="231.147" y2="1031" gradientUnits="userSpaceOnUse">
<stop offset="0.724206" stop-color="#00010E"/>
<stop offset="1" stop-color="#03060A" stop-opacity="0"/>
</linearGradient>
<linearGradient id="paint4_linear_0_2562" x1="393" y1="1119.99" x2="231.147" y2="1280.99" gradientUnits="userSpaceOnUse">
<stop offset="0.724206" stop-color="#00010E"/>
<stop offset="1" stop-color="#03060A" stop-opacity="0"/>
</linearGradient>
<linearGradient id="paint5_linear_0_2562" x1="393" y1="222.603" x2="231.147" y2="383.608" gradientUnits="userSpaceOnUse">
<stop offset="0.724206" stop-color="#00010E"/>
<stop offset="1" stop-color="#03060A" stop-opacity="0"/>
</linearGradient>
<linearGradient id="paint6_linear_0_2562" x1="1.90789e-06" y1="825.176" x2="161.853" y2="986.181" gradientUnits="userSpaceOnUse">
<stop offset="0.724206" stop-color="#00010E"/>
<stop offset="1" stop-color="#03060A" stop-opacity="0"/>
</linearGradient>
<linearGradient id="paint7_linear_0_2562" x1="1.90789e-06" y1="1040.31" x2="161.853" y2="1201.31" gradientUnits="userSpaceOnUse">
<stop offset="0.724206" stop-color="#00010E"/>
<stop offset="1" stop-color="#03060A" stop-opacity="0"/>
</linearGradient>
<linearGradient id="paint8_linear_0_2562" x1="393" y1="1342.09" x2="231.147" y2="1503.1" gradientUnits="userSpaceOnUse">
<stop offset="0.724206" stop-color="#00010E"/>
<stop offset="1" stop-color="#03060A" stop-opacity="0"/>
</linearGradient>
<linearGradient id="paint9_linear_0_2562" x1="1.90789e-06" y1="1342.09" x2="161.853" y2="1503.1" gradientUnits="userSpaceOnUse">
<stop offset="0.724206" stop-color="#00010E"/>
<stop offset="1" stop-color="#03060A" stop-opacity="0"/>
</linearGradient>
<linearGradient id="paint10_linear_0_2562" x1="393" y1="-54.2813" x2="231.147" y2="106.723" gradientUnits="userSpaceOnUse">
<stop offset="0.724206" stop-color="#00010E"/>
<stop offset="1" stop-color="#03060A" stop-opacity="0"/>
</linearGradient>
</defs>
</svg>
