<svg width="180" height="74" viewBox="0 0 180 74" fill="none" xmlns="http://www.w3.org/2000/svg">
<path d="M2.50998 41.2909H9.96712V45.9516C9.96712 49.5368 11.5446 50.8274 14.0542 50.8274C16.5638 50.8274 18.1413 49.5368 18.1413 45.9516V34.9093C18.1413 31.3242 16.5638 29.9618 14.0542 29.9618C11.5446 29.9618 9.96712 31.3242 9.96712 34.9093V36.4151H2.50998L3.94405 7.30356H24.738V14.4739H11.0427L10.3973 26.4483C11.8314 24.0821 14.1259 22.7915 17.2809 22.7915C23.0888 22.7915 26.0287 26.8786 26.0287 34.264V45.4497C26.0287 53.4805 22.0133 58.0695 14.2693 58.0695C6.52536 58.0695 2.50998 53.4805 2.50998 45.4497V41.2909ZM38.5398 18.8478V45.9516C38.5398 49.5368 40.1172 50.8991 42.6268 50.8991C45.1365 50.8991 46.7139 49.5368 46.7139 45.9516V18.8478C46.7139 15.2626 45.1365 13.9003 42.6268 13.9003C40.1172 13.9003 38.5398 15.2626 38.5398 18.8478ZM30.6524 45.4497V19.3497C30.6524 11.3189 34.8829 6.72994 42.6268 6.72994C50.3708 6.72994 54.6013 11.3189 54.6013 19.3497V45.4497C54.6013 53.4805 50.3708 58.0695 42.6268 58.0695C34.8829 58.0695 30.6524 53.4805 30.6524 45.4497ZM64.316 14.6173V31.8261C64.316 34.0489 65.2481 34.981 66.8973 34.981C68.4747 34.981 69.4786 34.0489 69.4786 31.8261V14.6173C69.4786 12.3945 68.4747 11.4624 66.8973 11.4624C65.2481 11.4624 64.316 12.3945 64.316 14.6173ZM59.2967 31.4676V14.9758C59.2967 9.81318 61.9497 6.94505 66.8973 6.94505C71.8448 6.94505 74.4978 9.81318 74.4978 14.9758V31.4676C74.4978 36.6302 71.8448 39.4983 66.8973 39.4983C61.9497 39.4983 59.2967 36.6302 59.2967 31.4676ZM66.8973 57.4958L86.6874 7.30356H91.3481L71.558 57.4958H66.8973ZM89.197 33.1884V50.3972C89.197 52.62 90.1291 53.5522 91.7783 53.5522C93.3558 53.5522 94.3596 52.62 94.3596 50.3972V33.1884C94.3596 30.9656 93.3558 30.0335 91.7783 30.0335C90.1291 30.0335 89.197 30.9656 89.197 33.1884ZM84.1778 50.0387V33.547C84.1778 28.3843 86.8308 25.5162 91.7783 25.5162C96.7258 25.5162 99.3789 28.3843 99.3789 33.547V50.0387C99.3789 55.2013 96.7258 58.0695 91.7783 58.0695C86.8308 58.0695 84.1778 55.2013 84.1778 50.0387Z" fill="white"/>
<path d="M9.06759 0.543035H9.65532V3.55822C9.65532 3.8929 9.58084 4.17146 9.43186 4.3939C9.28289 4.61634 9.08494 4.78368 8.83801 4.89592C8.59312 5.00612 8.3268 5.06122 8.03906 5.06122C7.73703 5.06122 7.46357 5.00612 7.21868 4.89592C6.97584 4.78368 6.78299 4.61634 6.64014 4.3939C6.49933 4.17146 6.42892 3.8929 6.42892 3.55822V0.543035H7.01359V3.55822C7.01359 3.79086 7.05645 3.98269 7.14216 4.13371C7.22787 4.28472 7.34725 4.39696 7.50031 4.47043C7.6554 4.5439 7.83499 4.58063 8.03906 4.58063C8.24517 4.58063 8.42476 4.5439 8.57781 4.47043C8.73291 4.39696 8.85331 4.28472 8.93902 4.13371C9.02474 3.98269 9.06759 3.79086 9.06759 3.55822V0.543035ZM12.2266 3.25211H11.0359V2.77152H12.2266C12.4573 2.77152 12.644 2.73478 12.7868 2.66132C12.9297 2.58785 13.0338 2.48581 13.0991 2.35521C13.1664 2.2246 13.2001 2.07563 13.2001 1.90829C13.2001 1.75523 13.1664 1.61136 13.0991 1.47667C13.0338 1.34198 12.9297 1.23382 12.7868 1.15219C12.644 1.06852 12.4573 1.02669 12.2266 1.02669H11.1736V5H10.5828V0.543035H12.2266C12.5634 0.543035 12.8481 0.601196 13.0807 0.717518C13.3133 0.83384 13.4899 0.995058 13.6103 1.20117C13.7307 1.40525 13.7909 1.63891 13.7909 1.90216C13.7909 2.18787 13.7307 2.43174 13.6103 2.63377C13.4899 2.8358 13.3133 2.98988 13.0807 3.09599C12.8481 3.20007 12.5634 3.25211 12.2266 3.25211ZM16.1847 0.543035V5H15.603V0.543035H16.1847ZM17.6172 0.543035V1.02669H14.1735V0.543035H17.6172ZM21.6242 2.63071V2.91233C21.6242 3.24701 21.5824 3.547 21.4987 3.81229C21.4151 4.07759 21.2947 4.30309 21.1375 4.4888C20.9804 4.6745 20.7916 4.81633 20.5712 4.91429C20.3529 5.01224 20.108 5.06122 19.8365 5.06122C19.5733 5.06122 19.3315 5.01224 19.1111 4.91429C18.8927 4.81633 18.7029 4.6745 18.5417 4.4888C18.3825 4.30309 18.2591 4.07759 18.1713 3.81229C18.0836 3.547 18.0397 3.24701 18.0397 2.91233V2.63071C18.0397 2.29603 18.0825 1.99706 18.1682 1.7338C18.256 1.46851 18.3795 1.24301 18.5386 1.0573C18.6978 0.869553 18.8866 0.726701 19.1049 0.628746C19.3253 0.530791 19.5672 0.481813 19.8304 0.481813C20.1018 0.481813 20.3467 0.530791 20.5651 0.628746C20.7855 0.726701 20.9743 0.869553 21.1314 1.0573C21.2906 1.24301 21.412 1.46851 21.4957 1.7338C21.5814 1.99706 21.6242 2.29603 21.6242 2.63071ZM21.0396 2.91233V2.62458C21.0396 2.35929 21.012 2.1246 20.9569 1.92053C20.9039 1.71646 20.8253 1.54504 20.7212 1.40627C20.6171 1.2675 20.4896 1.1624 20.3386 1.09097C20.1896 1.01955 20.0202 0.983834 19.8304 0.983834C19.6468 0.983834 19.4804 1.01955 19.3315 1.09097C19.1845 1.1624 19.058 1.2675 18.9519 1.40627C18.8478 1.54504 18.7672 1.71646 18.7101 1.92053C18.6529 2.1246 18.6244 2.35929 18.6244 2.62458V2.91233C18.6244 3.17966 18.6529 3.41639 18.7101 3.6225C18.7672 3.82658 18.8488 3.99902 18.955 4.13983C19.0631 4.2786 19.1907 4.3837 19.3376 4.45512C19.4866 4.52655 19.6529 4.56226 19.8365 4.56226C20.0284 4.56226 20.1988 4.52655 20.3478 4.45512C20.4967 4.3837 20.6222 4.2786 20.7243 4.13983C20.8283 3.99902 20.9069 3.82658 20.96 3.6225C21.013 3.41639 21.0396 3.17966 21.0396 2.91233Z" fill="url(#paint0_linear_0_2601)"/>
<path d="M114.195 20.7684V20.5624H113.989V20.7684H114.195ZM117.68 20.7684H117.886V20.5624H117.68V20.7684ZM117.68 13.9644V14.1705H117.886V13.9644H117.68ZM114.195 13.9644H113.989V14.1705H114.195V13.9644ZM114.195 20.9744H117.68V20.5624H114.195V20.9744ZM117.474 20.7684V23.8855H117.886V20.7684H117.474ZM117.474 23.8855C117.474 25.7307 117.013 27.1484 116.138 28.1035C115.265 29.0556 113.952 29.5785 112.184 29.5785V29.9905C114.035 29.9905 115.471 29.4408 116.441 28.3819C117.409 27.326 117.886 25.7942 117.886 23.8855H117.474ZM112.184 29.5785C110.415 29.5785 109.102 29.0556 108.23 28.1035C107.354 27.1484 106.893 25.7307 106.893 23.8855H106.481C106.481 25.7942 106.958 27.326 107.926 28.3819C108.897 29.4408 110.332 29.9905 112.184 29.9905V29.5785ZM106.893 23.8855V11.6853H106.481V23.8855H106.893ZM106.893 11.6853C106.893 9.84006 107.354 8.42234 108.23 7.46725C109.102 6.51513 110.415 5.99228 112.184 5.99228V5.58022C110.332 5.58022 108.897 6.12992 107.926 7.18882C106.958 8.24475 106.481 9.77654 106.481 11.6853H106.893ZM112.184 5.99228C113.952 5.99228 115.265 6.51513 116.138 7.46725C117.013 8.42234 117.474 9.84006 117.474 11.6853H117.886C117.886 9.77654 117.409 8.24475 116.441 7.18882C115.471 6.12992 114.035 5.58022 112.184 5.58022V5.99228ZM117.474 11.6853V13.9644H117.886V11.6853H117.474ZM117.68 13.7584H114.195V14.1705H117.68V13.7584ZM114.401 13.9644V11.4506H113.989V13.9644H114.401ZM114.401 11.4506C114.401 10.5871 114.211 9.95002 113.833 9.52822C113.45 9.10196 112.907 8.93193 112.284 8.93193V9.34399C112.834 9.34399 113.247 9.49237 113.526 9.80349C113.809 10.1191 113.989 10.6383 113.989 11.4506H114.401ZM112.284 8.93193C111.661 8.93193 111.118 9.10196 110.736 9.52822C110.357 9.95002 110.168 10.5871 110.168 11.4506H110.58C110.58 10.6383 110.759 10.1191 111.042 9.80349C111.322 9.49237 111.734 9.34399 112.284 9.34399V8.93193ZM110.168 11.4506V24.1201H110.58V11.4506H110.168ZM110.168 24.1201C110.168 24.9834 110.357 25.6135 110.737 26.0275C111.121 26.4453 111.664 26.6053 112.284 26.6053V26.1932C111.731 26.1932 111.319 26.0516 111.041 25.7488C110.759 25.4421 110.58 24.9326 110.58 24.1201H110.168ZM112.284 26.6053C112.904 26.6053 113.447 26.4453 113.831 26.0275C114.211 25.6135 114.401 24.9834 114.401 24.1201H113.989C113.989 24.9326 113.809 25.4421 113.528 25.7488C113.249 26.0516 112.837 26.1932 112.284 26.1932V26.6053ZM114.401 24.1201V20.7684H113.989V24.1201H114.401ZM128.096 6.05438L128.299 6.02183L128.271 5.84836H128.096V6.05438ZM131.85 29.5164V29.7224H132.091L132.053 29.4838L131.85 29.5164ZM128.129 29.5164L127.925 29.5468L127.952 29.7224H128.129V29.5164ZM127.492 25.2597L127.696 25.2292L127.67 25.0537H127.492V25.2597ZM122.968 25.2597V25.0537H122.79L122.764 25.2292L122.968 25.2597ZM122.331 29.5164V29.7224H122.508L122.534 29.5468L122.331 29.5164ZM118.945 29.5164L118.742 29.4838L118.704 29.7224H118.945V29.5164ZM122.699 6.05438V5.84836H122.524L122.496 6.02183L122.699 6.05438ZM125.213 10.2105L125.417 10.18H125.009L125.213 10.2105ZM123.437 22.0756L123.233 22.0451L123.198 22.2816H123.437V22.0756ZM126.99 22.0756V22.2816H127.229L127.193 22.0451L126.99 22.0756ZM127.892 6.08694L131.646 29.5489L132.053 29.4838L128.299 6.02183L127.892 6.08694ZM131.85 29.3103H128.129V29.7224H131.85V29.3103ZM128.333 29.4859L127.696 25.2292L127.289 25.2902L127.925 29.5468L128.333 29.4859ZM127.492 25.0537H122.968V25.4657H127.492V25.0537ZM122.764 25.2292L122.127 29.4859L122.534 29.5468L123.171 25.2902L122.764 25.2292ZM122.331 29.3103H118.945V29.7224H122.331V29.3103ZM119.149 29.5489L122.903 6.08694L122.496 6.02183L118.742 29.4838L119.149 29.5489ZM122.699 6.26041H128.096V5.84836H122.699V6.26041ZM125.009 10.18L123.233 22.0451L123.641 22.1061L125.417 10.241L125.009 10.18ZM123.437 22.2816H126.99V21.8695H123.437V22.2816ZM127.193 22.0451L125.417 10.18L125.009 10.241L126.786 22.1061L127.193 22.0451ZM143.957 12.5902V12.7963H144.163V12.5902H143.957ZM140.471 12.5902H140.265V12.7963H140.471V12.5902ZM132.997 22.2767V22.0706H132.791V22.2767H132.997ZM136.483 22.2767H136.689V22.0706H136.483V22.2767ZM133.303 11.6853C133.303 9.83919 133.757 8.42116 134.62 7.46621C135.48 6.51472 136.776 5.99228 138.527 5.99228V5.58022C136.692 5.58022 135.272 6.13032 134.314 7.18986C133.36 8.24593 132.891 9.77741 132.891 11.6853H133.303ZM138.527 5.99228C140.278 5.99228 141.574 6.51472 142.434 7.46621C143.297 8.42116 143.751 9.83919 143.751 11.6853H144.163C144.163 9.77741 143.695 8.24593 142.74 7.18986C141.782 6.13032 140.362 5.58022 138.527 5.58022V5.99228ZM143.751 11.6853V12.5902H144.163V11.6853H143.751ZM143.957 12.3842H140.471V12.7963H143.957V12.3842ZM140.677 12.5902V11.4506H140.265V12.5902H140.677ZM140.677 11.4506C140.677 10.5913 140.506 9.95486 140.146 9.53221C139.78 9.10233 139.251 8.93193 138.628 8.93193V9.34399C139.177 9.34399 139.57 9.492 139.832 9.79949C140.101 10.1142 140.265 10.6341 140.265 11.4506H140.677ZM138.628 8.93193C138.004 8.93193 137.476 9.10233 137.109 9.53221C136.749 9.95486 136.578 10.5913 136.578 11.4506H136.99C136.99 10.6341 137.155 10.1142 137.423 9.79949C137.685 9.492 138.078 9.34399 138.628 9.34399V8.93193ZM136.578 11.4506C136.578 12.7153 137.052 13.7201 137.748 14.6136C138.436 15.4991 139.356 16.29 140.247 17.1154C142.042 18.7762 143.784 20.6258 143.784 23.8855H144.196C144.196 20.4417 142.336 18.4871 140.527 16.813C139.617 15.9709 138.735 15.2117 138.073 14.3606C137.417 13.5174 136.99 12.5992 136.99 11.4506H136.578ZM143.784 23.8855C143.784 25.7307 143.323 27.1484 142.448 28.1035C141.575 29.0556 140.262 29.5785 138.494 29.5785V29.9905C140.345 29.9905 141.781 29.4408 142.751 28.3819C143.719 27.326 144.196 25.7942 144.196 23.8855H143.784ZM138.494 29.5785C136.725 29.5785 135.412 29.0556 134.54 28.1035C133.664 27.1484 133.203 25.7307 133.203 23.8855H132.791C132.791 25.7942 133.268 27.326 134.236 28.3819C135.206 29.4408 136.642 29.9905 138.494 29.9905V29.5785ZM133.203 23.8855V22.2767H132.791V23.8855H133.203ZM132.997 22.4827H136.483V22.0706H132.997V22.4827ZM136.276 22.2767V24.1201H136.689V22.2767H136.276ZM136.276 24.1201C136.276 24.9834 136.466 25.6135 136.846 26.0275C137.23 26.4453 137.773 26.6053 138.393 26.6053V26.1932C137.84 26.1932 137.428 26.0516 137.15 25.7488C136.868 25.4421 136.689 24.9326 136.689 24.1201H136.276ZM138.393 26.6053C139.013 26.6053 139.556 26.4453 139.94 26.0275C140.32 25.6135 140.509 24.9834 140.509 24.1201H140.097C140.097 24.9326 139.918 25.4421 139.636 25.7488C139.358 26.0516 138.946 26.1932 138.393 26.1932V26.6053ZM140.509 24.1201C140.509 22.8555 140.035 21.8506 139.34 20.9571C138.651 20.0717 137.732 19.2808 136.84 18.4553C135.046 16.7945 133.303 14.9449 133.303 11.6853H132.891C132.891 15.129 134.752 17.0836 136.56 18.7577C137.47 19.5998 138.353 20.3591 139.015 21.2102C139.671 22.0533 140.097 22.9715 140.097 24.1201H140.509ZM146.103 29.5164H145.897V29.7224H146.103V29.5164ZM146.103 6.05438V5.84836H145.897V6.05438H146.103ZM149.79 6.05438H149.996V5.84836H149.79V6.05438ZM149.79 29.5164V29.7224H149.996V29.5164H149.79ZM146.309 29.5164V6.05438H145.897V29.5164H146.309ZM146.103 6.26041H149.79V5.84836H146.103V6.26041ZM149.584 6.05438V29.5164H149.996V6.05438H149.584ZM149.79 29.3103H146.103V29.7224H149.79V29.3103ZM160.362 29.5164L160.163 29.5701L160.204 29.7224H160.362V29.5164ZM155.77 12.5232L155.969 12.4694L155.564 12.5232H155.77ZM155.77 29.5164V29.7224H155.976V29.5164H155.77ZM152.452 29.5164H152.246V29.7224H152.452V29.5164ZM152.452 6.05438V5.84836H152.246V6.05438H152.452ZM157.077 6.05438L157.276 6.00074L157.235 5.84836H157.077V6.05438ZM160.865 20.0981L160.666 20.1517L161.071 20.0981H160.865ZM160.865 6.05438V5.84836H160.659V6.05438H160.865ZM164.149 6.05438H164.355V5.84836H164.149V6.05438ZM164.149 29.5164V29.7224H164.355V29.5164H164.149ZM160.561 29.4626L155.969 12.4694L155.571 12.5769L160.163 29.5701L160.561 29.4626ZM155.564 12.5232V29.5164H155.976V12.5232H155.564ZM155.77 29.3103H152.452V29.7224H155.77V29.3103ZM152.658 29.5164V6.05438H152.246V29.5164H152.658ZM152.452 6.26041H157.077V5.84836H152.452V6.26041ZM156.878 6.10803L160.666 20.1517L161.064 20.0444L157.276 6.00074L156.878 6.10803ZM161.071 20.0981V6.05438H160.659V20.0981H161.071ZM160.865 6.26041H164.149V5.84836H160.865V6.26041ZM163.943 6.05438V29.5164H164.355V6.05438H163.943ZM164.149 29.3103H160.362V29.7224H164.149V29.3103ZM169.968 11.4506V24.1201H170.38V11.4506H169.968ZM169.968 24.1201C169.968 24.9836 170.158 25.6207 170.536 26.0425C170.919 26.4688 171.462 26.6388 172.085 26.6388V26.2268C171.535 26.2268 171.122 26.0784 170.843 25.7673C170.56 25.4517 170.38 24.9324 170.38 24.1201H169.968ZM172.085 26.6388C172.708 26.6388 173.251 26.4688 173.633 26.0425C174.012 25.6207 174.201 24.9836 174.201 24.1201H173.789C173.789 24.9324 173.61 25.4517 173.327 25.7673C173.047 26.0784 172.635 26.2268 172.085 26.2268V26.6388ZM174.201 24.1201V11.4506H173.789V24.1201H174.201ZM174.201 11.4506C174.201 10.5871 174.012 9.95002 173.633 9.52822C173.251 9.10196 172.708 8.93193 172.085 8.93193V9.34399C172.635 9.34399 173.047 9.49237 173.327 9.80349C173.61 10.1191 173.789 10.6383 173.789 11.4506H174.201ZM172.085 8.93193C171.462 8.93193 170.919 9.10196 170.536 9.52822C170.158 9.95002 169.968 10.5871 169.968 11.4506H170.38C170.38 10.6383 170.56 10.1191 170.843 9.80349C171.122 9.49237 171.535 9.34399 172.085 9.34399V8.93193ZM166.693 23.8855V11.6853H166.281V23.8855H166.693ZM166.693 11.6853C166.693 9.84268 167.179 8.42515 168.079 7.46928C168.977 6.51533 170.316 5.99228 172.085 5.99228V5.58022C170.234 5.58022 168.774 6.12972 167.779 7.18679C166.785 8.24194 166.281 9.77392 166.281 11.6853H166.693ZM172.085 5.99228C173.854 5.99228 175.193 6.51533 176.091 7.46928C176.991 8.42515 177.476 9.84268 177.476 11.6853H177.888C177.888 9.77392 177.384 8.24194 176.391 7.18679C175.395 6.12972 173.936 5.58022 172.085 5.58022V5.99228ZM177.476 11.6853V23.8855H177.888V11.6853H177.476ZM177.476 23.8855C177.476 25.7281 176.991 27.1456 176.091 28.1015C175.193 29.0554 173.854 29.5785 172.085 29.5785V29.9905C173.936 29.9905 175.395 29.441 176.391 28.384C177.384 27.3288 177.888 25.7968 177.888 23.8855H177.476ZM172.085 29.5785C170.316 29.5785 168.977 29.0554 168.079 28.1015C167.179 27.1456 166.693 25.7281 166.693 23.8855H166.281C166.281 25.7968 166.785 27.3288 167.779 28.384C168.774 29.441 170.234 29.9905 172.085 29.9905V29.5785ZM115.636 45.0145L115.548 44.828L115.114 45.032L115.561 45.2064L115.636 45.0145ZM106.989 57.5164H106.782V57.7224H106.989V57.5164ZM106.989 34.0544V33.8484H106.782V34.0544H106.989ZM110.675 46.9585V46.7524H110.469V46.9585H110.675ZM110.675 54.1646H110.469V54.3707H110.675V54.1646ZM110.675 37.4061V37.2001H110.469V37.4061H110.675ZM110.675 43.6068H110.469V43.8128H110.675V43.6068ZM112.552 34.2604C114.435 34.2604 115.737 34.6983 116.57 35.5401C117.405 36.3822 117.81 37.6675 117.81 39.4506H118.222C118.222 37.6139 117.805 36.2011 116.863 35.2501C115.921 34.2987 114.491 33.8484 112.552 33.8484V34.2604ZM117.81 39.4506V40.2886H118.222V39.4506H117.81ZM117.81 40.2886C117.81 41.4762 117.628 42.4303 117.257 43.1757C116.889 43.9163 116.329 44.4617 115.548 44.828L115.723 45.201C116.585 44.7964 117.215 44.1854 117.626 43.3591C118.035 42.5375 118.222 41.5141 118.222 40.2886H117.81ZM115.561 45.2064C116.504 45.5739 117.152 46.1765 117.569 46.9819C117.988 47.7928 118.178 48.8208 118.178 50.042H118.59C118.59 48.783 118.395 47.6827 117.935 46.7926C117.471 45.897 116.746 45.2259 115.711 44.8225L115.561 45.2064ZM118.178 50.042V51.9525H118.59V50.042H118.178ZM118.178 51.9525C118.178 53.7279 117.71 55.0585 116.823 55.9462C115.935 56.8338 114.596 57.3103 112.787 57.3103V57.7224C114.665 57.7224 116.125 57.2269 117.114 56.2376C118.103 55.2483 118.59 53.797 118.59 51.9525H118.178ZM112.787 57.3103H106.989V57.7224H112.787V57.3103ZM107.195 57.5164V34.0544H106.782V57.5164H107.195ZM106.989 34.2604H112.552V33.8484H106.989V34.2604ZM112.318 46.7524H110.675V47.1645H112.318V46.7524ZM110.469 46.9585V54.1646H110.881V46.9585H110.469ZM110.675 54.3707H112.787V53.9586H110.675V54.3707ZM112.787 54.3707C113.435 54.3707 113.982 54.2219 114.361 53.7993C114.734 53.3828 114.903 52.7423 114.903 51.852H114.491C114.491 52.7046 114.326 53.2204 114.054 53.5245C113.787 53.8225 113.379 53.9586 112.787 53.9586V54.3707ZM114.903 51.852V49.8074H114.491V51.852H114.903ZM114.903 49.8074C114.903 48.707 114.728 47.9291 114.291 47.4302C113.847 46.9229 113.176 46.7524 112.318 46.7524V47.1645C113.135 47.1645 113.655 47.3292 113.981 47.7017C114.315 48.0826 114.491 48.7292 114.491 49.8074H114.903ZM112.452 37.2001H110.675V37.6121H112.452V37.2001ZM110.469 37.4061V43.6068H110.881V37.4061H110.469ZM110.675 43.8128H112.117V43.4007H110.675V43.8128ZM112.117 43.8128C112.829 43.8128 113.448 43.6568 113.884 43.2154C114.32 42.7749 114.535 42.0905 114.535 41.1265H114.123C114.123 42.0394 113.918 42.5952 113.592 42.9256C113.266 43.2551 112.778 43.4007 112.117 43.4007V43.8128ZM114.535 41.1265V39.8193H114.123V41.1265H114.535ZM114.535 39.8193C114.535 38.9661 114.391 38.3062 114.043 37.8579C113.686 37.3975 113.145 37.2001 112.452 37.2001V37.6121C113.066 37.6121 113.464 37.7834 113.718 38.1106C113.981 38.45 114.123 38.9967 114.123 39.8193H114.535ZM123.784 39.4506V52.1201H124.196V39.4506H123.784ZM123.784 52.1201C123.784 52.9836 123.973 53.6207 124.352 54.0425C124.735 54.4688 125.277 54.6388 125.901 54.6388V54.2268C125.35 54.2268 124.938 54.0784 124.659 53.7673C124.375 53.4517 124.196 52.9324 124.196 52.1201H123.784ZM125.901 54.6388C126.524 54.6388 127.066 54.4688 127.449 54.0425C127.828 53.6207 128.017 52.9836 128.017 52.1201H127.605C127.605 52.9324 127.426 53.4517 127.142 53.7673C126.863 54.0784 126.451 54.2268 125.901 54.2268V54.6388ZM128.017 52.1201V39.4506H127.605V52.1201H128.017ZM128.017 39.4506C128.017 38.5871 127.828 37.95 127.449 37.5282C127.066 37.102 126.524 36.9319 125.901 36.9319V37.344C126.451 37.344 126.863 37.4924 127.142 37.8035C127.426 38.1191 127.605 38.6383 127.605 39.4506H128.017ZM125.901 36.9319C125.277 36.9319 124.735 37.102 124.352 37.5282C123.973 37.95 123.784 38.5871 123.784 39.4506H124.196C124.196 38.6383 124.375 38.1191 124.659 37.8035C124.938 37.4924 125.35 37.344 125.901 37.344V36.9319ZM120.509 51.8855V39.6853H120.097V51.8855H120.509ZM120.509 39.6853C120.509 37.8427 120.994 36.4252 121.894 35.4693C122.793 34.5153 124.132 33.9923 125.901 33.9923V33.5802C124.05 33.5802 122.59 34.1297 121.594 35.1868C120.601 36.2419 120.097 37.7739 120.097 39.6853H120.509ZM125.901 33.9923C127.669 33.9923 129.008 34.5153 129.907 35.4693C130.807 36.4252 131.292 37.8427 131.292 39.6853H131.704C131.704 37.7739 131.2 36.2419 130.207 35.1868C129.211 34.1297 127.752 33.5802 125.901 33.5802V33.9923ZM131.292 39.6853V51.8855H131.704V39.6853H131.292ZM131.292 51.8855C131.292 53.7281 130.807 55.1456 129.907 56.1015C129.008 57.0554 127.669 57.5785 125.901 57.5785V57.9905C127.752 57.9905 129.211 57.441 130.207 56.384C131.2 55.3288 131.704 53.7968 131.704 51.8855H131.292ZM125.901 57.5785C124.132 57.5785 122.793 57.0554 121.894 56.1015C120.994 55.1456 120.509 53.7281 120.509 51.8855H120.097C120.097 53.7968 120.601 55.3288 121.594 56.384C122.59 57.441 124.05 57.9905 125.901 57.9905V57.5785ZM141.77 57.5164L141.571 57.5701L141.613 57.7224H141.77V57.5164ZM137.179 40.5232L137.377 40.4694L136.972 40.5232H137.179ZM137.179 57.5164V57.7224H137.385V57.5164H137.179ZM133.86 57.5164H133.654V57.7224H133.86V57.5164ZM133.86 34.0544V33.8484H133.654V34.0544H133.86ZM138.486 34.0544L138.685 34.0007L138.644 33.8484H138.486V34.0544ZM142.273 48.0981L142.074 48.1517L142.479 48.0981H142.273ZM142.273 34.0544V33.8484H142.067V34.0544H142.273ZM145.558 34.0544H145.764V33.8484H145.558V34.0544ZM145.558 57.5164V57.7224H145.764V57.5164H145.558ZM141.969 57.4626L137.377 40.4694L136.98 40.5769L141.571 57.5701L141.969 57.4626ZM136.972 40.5232V57.5164H137.385V40.5232H136.972ZM137.179 57.3103H133.86V57.7224H137.179V57.3103ZM134.066 57.5164V34.0544H133.654V57.5164H134.066ZM133.86 34.2604H138.486V33.8484H133.86V34.2604ZM138.287 34.108L142.074 48.1517L142.472 48.0444L138.685 34.0007L138.287 34.108ZM142.479 48.0981V34.0544H142.067V48.0981H142.479ZM142.273 34.2604H145.558V33.8484H142.273V34.2604ZM145.352 34.0544V57.5164H145.764V34.0544H145.352ZM145.558 57.3103H141.77V57.7224H145.558V57.3103ZM148.03 34.0544V33.8484H147.824V34.0544H148.03ZM151.717 34.0544H151.923V33.8484H151.717V34.0544ZM155.538 34.0544V33.8484H155.332V34.0544H155.538ZM159.024 34.0544H159.23V33.8484H159.024V34.0544ZM148.03 34.2604H151.717V33.8484H148.03V34.2604ZM151.511 34.0544V52.1536H151.923V34.0544H151.511ZM151.511 52.1536C151.511 53.0169 151.7 53.647 152.08 54.061C152.464 54.4788 153.007 54.6388 153.627 54.6388V54.2268C153.074 54.2268 152.662 54.0851 152.384 53.7823C152.102 53.4757 151.923 52.9662 151.923 52.1536H151.511ZM153.627 54.6388C154.247 54.6388 154.79 54.4788 155.174 54.061C155.554 53.647 155.744 53.0169 155.744 52.1536H155.332C155.332 52.9662 155.152 53.4757 154.871 53.7823C154.593 54.0851 154.18 54.2268 153.627 54.2268V54.6388ZM155.744 52.1536V34.0544H155.332V52.1536H155.744ZM155.538 34.2604H159.024V33.8484H155.538V34.2604ZM158.818 34.0544V51.919H159.23V34.0544H158.818ZM158.818 51.919C158.818 53.7642 158.356 55.1819 157.481 56.137C156.608 57.0891 155.295 57.612 153.527 57.612V58.024C155.378 58.024 156.814 57.4743 157.784 56.4154C158.752 55.3595 159.23 53.8277 159.23 51.919H158.818ZM153.527 57.612C151.758 57.612 150.446 57.0891 149.573 56.137C148.697 55.1819 148.236 53.7642 148.236 51.919H147.824C147.824 53.8277 148.301 55.3595 149.269 56.4154C150.24 57.4743 151.676 58.024 153.527 58.024V57.612ZM148.236 51.919V34.0544H147.824V51.919H148.236ZM171.942 40.5902V40.7962H172.148V40.5902H171.942ZM168.457 40.5902H168.25V40.7962H168.457V40.5902ZM160.982 50.2767V50.0706H160.776V50.2767H160.982ZM164.468 50.2767H164.674V50.0706H164.468V50.2767ZM161.289 39.6853C161.289 37.8392 161.742 36.4212 162.606 35.4662C163.466 34.5147 164.761 33.9923 166.513 33.9923V33.5802C164.678 33.5802 163.258 34.1303 162.3 35.1899C161.345 36.2459 160.877 37.7774 160.877 39.6853H161.289ZM166.513 33.9923C168.264 33.9923 169.559 34.5147 170.419 35.4662C171.283 36.4212 171.736 37.8392 171.736 39.6853H172.148C172.148 37.7774 171.68 36.2459 170.725 35.1899C169.767 34.1303 168.348 33.5802 166.513 33.5802V33.9923ZM171.736 39.6853V40.5902H172.148V39.6853H171.736ZM171.942 40.3842H168.457V40.7962H171.942V40.3842ZM168.663 40.5902V39.4506H168.25V40.5902H168.663ZM168.663 39.4506C168.663 38.5913 168.492 37.9549 168.132 37.5322C167.765 37.1023 167.237 36.9319 166.613 36.9319V37.344C167.163 37.344 167.556 37.492 167.818 37.7995C168.086 38.1142 168.25 38.6341 168.25 39.4506H168.663ZM166.613 36.9319C165.99 36.9319 165.461 37.1023 165.095 37.5322C164.734 37.9549 164.564 38.5913 164.564 39.4506H164.976C164.976 38.6341 165.14 38.1142 165.408 37.7995C165.67 37.492 166.063 37.344 166.613 37.344V36.9319ZM164.564 39.4506C164.564 40.7153 165.038 41.7201 165.733 42.6136C166.422 43.4991 167.341 44.29 168.233 45.1154C170.027 46.7762 171.77 48.6258 171.77 51.8855H172.182C172.182 48.4417 170.321 46.4871 168.513 44.813C167.603 43.9709 166.72 43.2117 166.058 42.3606C165.402 41.5174 164.976 40.5992 164.976 39.4506H164.564ZM171.77 51.8855C171.77 53.7307 171.308 55.1484 170.433 56.1035C169.56 57.0556 168.248 57.5785 166.479 57.5785V57.9905C168.33 57.9905 169.766 57.4408 170.737 56.3819C171.705 55.326 172.182 53.7942 172.182 51.8855H171.77ZM166.479 57.5785C164.71 57.5785 163.398 57.0556 162.525 56.1035C161.65 55.1484 161.188 53.7307 161.188 51.8855H160.776C160.776 53.7942 161.253 55.326 162.221 56.3819C163.192 57.4408 164.628 57.9905 166.479 57.9905V57.5785ZM161.188 51.8855V50.2767H160.776V51.8855H161.188ZM160.982 50.4827H164.468V50.0706H160.982V50.4827ZM164.262 50.2767V52.1201H164.674V50.2767H164.262ZM164.262 52.1201C164.262 52.9834 164.451 53.6135 164.832 54.0275C165.215 54.4453 165.758 54.6053 166.378 54.6053V54.1932C165.825 54.1932 165.413 54.0516 165.135 53.7488C164.853 53.4421 164.674 52.9326 164.674 52.1201H164.262ZM166.378 54.6053C166.999 54.6053 167.542 54.4453 167.925 54.0275C168.306 53.6135 168.495 52.9834 168.495 52.1201H168.083C168.083 52.9326 167.904 53.4421 167.622 53.7488C167.344 54.0516 166.931 54.1932 166.378 54.1932V54.6053ZM168.495 52.1201C168.495 50.8555 168.021 49.8506 167.326 48.9571C166.637 48.0717 165.718 47.2808 164.826 46.4553C163.031 44.7945 161.289 42.9449 161.289 39.6853H160.877C160.877 43.129 162.737 45.0836 164.546 46.7577C165.456 47.5998 166.338 48.3591 167 49.2102C167.656 50.0533 168.083 50.9715 168.083 52.1201H168.495Z" fill="white"/>
<defs>
<linearGradient id="paint0_linear_0_2601" x1="8.34435" y1="5.01511" x2="9.71591" y2="-1.68591" gradientUnits="userSpaceOnUse">
<stop stop-color="#3790FB"/>
<stop offset="1" stop-color="#D141F6"/>
</linearGradient>
</defs>
</svg>
