<svg width="14" height="14" viewBox="0 0 14 14" fill="none" xmlns="http://www.w3.org/2000/svg">
<g clip-path="url(#clip0_167_1277)">
<path d="M2.06743 7.41248H0C0.0911053 8.99358 0.705001 10.4756 1.75858 11.658L3.22218 10.1944C2.57493 9.43021 2.15493 8.46785 2.06743 7.41248Z" fill="white"/>
<path d="M3.22218 3.80552L1.75858 2.34192C0.705001 3.52436 0.0911053 5.00639 0 6.58752H2.06743C2.15493 5.53212 2.57493 4.56975 3.22218 3.80552Z" fill="white"/>
<path d="M11.9321 6.58752H13.9996C13.9084 5.00644 13.2945 3.52436 12.2409 2.34192L10.7773 3.80554C11.4246 4.56975 11.8446 5.53212 11.9321 6.58752Z" fill="white"/>
<path d="M7.00038 6.58752C6.77293 6.58752 6.58789 6.77257 6.58789 7.00001C6.60863 7.54648 7.39225 7.54634 7.41287 7.00001C7.41287 6.77254 7.22786 6.58752 7.00038 6.58752Z" fill="white"/>
<path d="M11.1252 7.00002C11.1252 4.72555 9.2748 2.87512 7.00032 2.87512C1.5356 3.08249 1.53708 10.9184 7.00038 11.1249C9.2748 11.1249 11.1252 9.27447 11.1252 7.00002ZM9.47527 7.41251H8.16685C8.04236 7.76352 7.76382 8.04206 7.41281 8.16655V9.47497H6.58783V8.16655C6.23683 8.04206 5.95829 7.76352 5.8338 7.41251H4.52538V6.58753H5.8338C5.95829 6.23653 6.23683 5.95799 6.58783 5.8335V4.52508H7.41281V5.8335C7.76382 5.95799 8.04236 6.23653 8.16685 6.58753H9.47527V7.41251Z" fill="white"/>
<path d="M6.58749 2.0674V0C5.00641 0.0911053 3.52436 0.704973 2.34192 1.75856L3.80552 3.22218C4.56975 2.5749 5.53209 2.1549 6.58749 2.0674Z" fill="white"/>
<path d="M11.6577 1.75858C10.4753 0.705001 8.99321 0.0911053 7.41211 0V2.06743C8.46748 2.15493 9.42982 2.57493 10.1941 3.22218L11.6577 1.75858Z" fill="white"/>
<path d="M7.41211 11.9326V14C8.99318 13.9089 10.4753 13.295 11.6577 12.2414L10.1941 10.7778C9.42982 11.4251 8.46748 11.8451 7.41211 11.9326Z" fill="white"/>
<path d="M2.34192 12.2414C3.52436 13.295 5.00641 13.9089 6.58749 14V11.9326C5.53209 11.8451 4.56975 11.4251 3.80552 10.7778L2.34192 12.2414Z" fill="white"/>
<path d="M10.7773 10.1944L12.2409 11.658C13.2946 10.4756 13.9084 8.99355 13.9996 7.41248H11.9321C11.8446 8.46785 11.4246 9.43021 10.7773 10.1944Z" fill="white"/>
</g>
<defs>
<clipPath id="clip0_167_1277">
<rect width="14" height="14" fill="white"/>
</clipPath>
</defs>
</svg>
