<svg width="26" height="22" viewBox="0 0 26 22" fill="none" xmlns="http://www.w3.org/2000/svg">
<g id="Group 48096964">
<g id="Group 48096965">
<path id="Vector" d="M25.0345 10.5055C24.7217 7.2259 21.8216 4.82269 18.5575 5.13935C18.4475 5.14917 18.3376 5.1639 18.2301 5.18109C17.2406 5.32101 16.3048 5.71622 15.5107 6.32501C15.821 7.4542 16.0727 8.59075 16.2828 9.73958C17.0231 8.16853 18.8922 7.49838 20.4583 8.24218C22.022 8.98597 22.689 10.8639 21.9487 12.4374C21.4136 13.5715 20.2604 14.2784 19.0119 14.2367C18.1739 14.2195 17.3798 13.8587 16.8154 13.2401C16.8838 13.7924 16.9498 14.3496 17.0133 14.9093C17.0524 14.9412 17.094 14.9682 17.1404 14.9928C17.3896 15.1253 17.6486 15.2358 17.9149 15.3217C17.9882 15.3414 18.0688 15.3585 18.0419 15.4494C18.0004 15.6482 17.9613 15.8249 17.9271 16.0041C17.9051 16.1122 17.8391 16.1097 17.7561 16.0851C17.5337 16.0164 17.3261 15.9379 17.1184 15.8495C17.1501 16.149 17.1819 16.4509 17.2137 16.7406C17.8049 16.937 18.4206 17.0425 19.0437 17.0523C19.9648 17.0744 20.8761 16.8707 21.7019 16.4607C23.0017 15.8348 24.0303 14.7571 24.5971 13.4242C24.7877 12.9381 24.9318 12.4374 25.0296 11.9243L25.0687 10.6429C25.0393 10.6037 25.0393 10.557 25.0393 10.5128L25.0345 10.5055ZM18.3889 6.73495C17.8611 6.81105 17.3578 7.00007 16.9083 7.28973C16.8399 7.33146 16.7837 7.34128 16.7348 7.26273C16.6346 7.10807 16.5345 6.95833 16.4318 6.81841C16.3781 6.73741 16.4099 6.69567 16.4831 6.6564C17.05 6.33482 17.6681 6.10899 18.3082 5.9887C18.3913 5.97397 18.4377 5.9887 18.4475 6.08689C18.4671 6.26118 18.4915 6.43301 18.5135 6.60976C18.5355 6.71286 18.4597 6.72759 18.3864 6.73741L18.3889 6.73495ZM21.9755 7.06143C21.868 7.18417 21.7703 7.31428 21.6775 7.44929C21.6139 7.5352 21.5577 7.5573 21.4551 7.48611C21.0984 7.21854 20.6977 7.01725 20.2677 6.89942C20.1773 6.87242 20.1138 6.8356 20.1382 6.73004C20.1749 6.55084 20.2164 6.3741 20.2531 6.1949C20.2531 6.1409 20.2799 6.09426 20.3532 6.10653C20.5072 6.15808 20.6635 6.20472 20.815 6.26118C21.2059 6.40601 21.5822 6.59012 21.9364 6.81105C22.0513 6.88715 22.0879 6.94606 21.9853 7.06143H21.978H21.9755ZM21.6897 15.5353C21.2132 15.7881 20.6977 15.955 20.1651 16.0287C20.0576 16.0434 20.0307 15.9992 20.0185 15.9133C20.0038 15.7709 19.9843 15.6261 19.9672 15.4518C19.9476 15.3855 19.999 15.3438 20.0845 15.3242C20.4974 15.2235 20.8956 15.0689 21.267 14.8627C21.3476 14.8234 21.3965 14.8111 21.4502 14.8995C21.5431 15.0541 21.6457 15.2039 21.7483 15.3438C21.7923 15.4346 21.785 15.4837 21.6921 15.5304H21.6848L21.6897 15.5353ZM22.8942 8.55393C23.0212 8.47292 23.1458 8.39192 23.2656 8.30355C23.3853 8.21517 23.4146 8.2569 23.4732 8.35264C23.8055 8.8976 24.0254 9.50147 24.1231 10.1323C24.1427 10.2575 24.1231 10.3115 23.9936 10.3238L23.4366 10.3852C23.4048 10.3852 23.3877 10.3263 23.3779 10.26C23.2827 9.72976 23.0994 9.21672 22.8404 8.7454C22.7965 8.6423 22.8184 8.60057 22.8991 8.55393H22.8917H22.8942ZM23.869 12.9823C23.7371 13.2597 23.5807 13.5273 23.4048 13.7777C23.3242 13.8881 23.2607 13.8906 23.1654 13.8096C23.0359 13.6991 22.8453 13.6181 22.7891 13.4806C22.7329 13.3432 22.9162 13.1885 22.987 13.0363C23.1361 12.7467 23.2607 12.4447 23.356 12.133C23.3902 12.0201 23.439 11.9808 23.5587 12.0151C23.7127 12.0618 23.8764 12.0839 24.0352 12.1182C24.0938 12.1182 24.1476 12.1379 24.1427 12.2091C24.084 12.4766 23.9936 12.7368 23.8764 12.9848H23.869V12.9823Z" fill="white"/>
<path id="Vector_2" d="M21.4012 11.1511C21.3646 12.4251 20.3066 13.4266 19.0386 13.3898C19.0337 13.3898 19.0288 13.3898 19.0239 13.3898C17.7535 13.3751 16.7346 12.3294 16.7493 11.0529C16.764 9.7764 17.8048 8.75276 19.0753 8.76749C19.1143 8.76749 19.151 8.76749 19.1901 8.7724C20.4508 8.81168 21.4403 9.87214 21.4012 11.1388C21.4012 11.1437 21.4012 11.1486 21.4012 11.156V11.1511Z" fill="white"/>
<path id="Vector_3" d="M0.577637 4.15499C0.577637 2.9718 1.32771 2.03162 2.41739 1.86715C4.74335 1.51367 7.0693 1.19946 9.40747 0.860698C10.2333 0.742869 11.0615 0.637314 11.8874 0.512121C13.1676 0.313285 14.2891 1.08163 14.4796 2.36792C14.8974 5.1909 15.2834 8.01388 15.6792 10.8393C15.9993 13.1149 16.3047 15.3954 16.6346 17.6685C16.8202 18.9449 16.1239 20.0643 14.8632 20.2754C12.8036 20.6166 10.7317 20.8842 8.65985 21.1788C7.57016 21.3334 6.47804 21.4783 5.38836 21.6452C4.07879 21.844 2.96712 21.0806 2.76922 19.7575C2.35387 16.9713 1.97028 14.1778 1.57692 11.3867C1.25686 9.11362 0.946565 6.83314 0.628945 4.56003C0.609399 4.3931 0.58741 4.22618 0.577637 4.15499ZM11.6357 10.0072C11.665 9.31736 11.2668 8.67912 10.6364 8.40174C9.99141 8.06543 9.20713 8.16853 8.6745 8.66439C8.47416 8.84114 8.32757 8.95651 8.02216 8.81905C7.06686 8.38701 6.11156 8.68158 5.63024 9.50638C5.14892 10.3312 5.34927 11.2861 6.19218 11.9538C6.82254 12.4496 7.46266 12.9357 8.11012 13.4119C8.7478 13.8808 9.26821 13.8145 9.7593 13.1885C10.287 12.5208 10.7879 11.8237 11.3108 11.1413C11.5477 10.8123 11.6626 10.4122 11.6357 10.0072ZM14.7068 16.6841C14.7191 16.338 14.6042 16.1833 14.4088 16.095C14.2353 15.9968 14.013 16.0581 13.9128 16.2324C13.9055 16.2447 13.9006 16.257 13.8932 16.2717C13.6709 16.9394 13.4241 17.1628 12.9599 16.4264C12.828 16.2594 12.5861 16.23 12.4175 16.365C12.4029 16.3773 12.3882 16.392 12.3736 16.4043C12.183 16.5246 12.1268 16.7774 12.249 16.9689C12.2514 16.9738 12.2563 16.9787 12.2587 16.9836C12.6032 17.4991 12.9355 18.022 13.3142 18.5105C13.5365 18.8075 13.9079 18.7928 14.0594 18.4638C14.3355 17.855 14.5187 17.2045 14.7044 16.6792V16.6841H14.7068ZM2.54932 5.46829C2.54932 5.82423 2.64705 6.00343 2.88405 6.06971C3.09905 6.13108 3.32871 6.02798 3.424 5.82178C3.54861 5.6254 3.50951 5.27191 3.73185 5.22527C4.01038 5.16635 4.05191 5.54684 4.23271 5.70395C4.41351 5.86105 4.58942 5.9617 4.8142 5.8095C5.02432 5.71377 5.11472 5.46338 5.01699 5.25473C5.00966 5.24 5.00233 5.22281 4.99256 5.20809C4.68471 4.65331 4.32311 4.1329 3.91265 3.64931C3.78071 3.45538 3.51929 3.40629 3.32871 3.53885C3.25542 3.5904 3.19922 3.66158 3.1699 3.74505C2.90604 4.31946 2.73012 4.95034 2.54932 5.46829Z" fill="white"/>
</g>
</g>
</svg>
