<svg width="9" height="8" viewBox="0 0 9 8" fill="none" xmlns="http://www.w3.org/2000/svg">
<path d="M5.98332 2.33431L6.04042 2.42536L6.14579 2.44656L8.51988 2.92432C8.51989 2.92432 8.5199 2.92432 8.51991 2.92432C8.57351 2.93514 8.62136 2.95851 8.65922 2.99032C8.69697 3.02204 8.72311 3.06067 8.73728 3.10118C8.75138 3.14153 8.75373 3.18395 8.74446 3.22487C8.73516 3.26591 8.714 3.30603 8.68086 3.34051L7.06252 5.02284L6.98149 5.10708L6.99417 5.22328L7.23912 7.46797L7.23912 7.46802C7.24364 7.5093 7.23656 7.55155 7.21754 7.59105C7.19843 7.63073 7.16731 7.66737 7.12521 7.69578C7.08302 7.72426 7.03199 7.7429 6.97709 7.74835C6.92218 7.7538 6.86713 7.74567 6.81782 7.72548L6.81778 7.72546L4.59488 6.81539L4.50016 6.77661L4.40544 6.81539L2.18255 7.72546L2.1825 7.72548C2.1332 7.74567 2.07814 7.7538 2.02323 7.74835C1.96834 7.7429 1.91731 7.72426 1.87512 7.69578L1.73527 7.90301L1.87511 7.69578C1.83302 7.66737 1.8019 7.63073 1.78279 7.59105C1.76376 7.55155 1.75669 7.5093 1.7612 7.46802L1.76121 7.46797L2.00616 5.22328L2.01884 5.10706L1.93778 5.02282L0.319382 3.34082L0.319312 3.34075C0.286105 3.30627 0.264898 3.26613 0.255568 3.22506C0.246265 3.18411 0.248602 3.14166 0.262713 3.10128C0.276881 3.06073 0.303041 3.02208 0.340832 2.99034C0.378737 2.95851 0.426646 2.93514 0.480304 2.92435L2.85454 2.44656L2.95991 2.42536L3.01701 2.33431L4.23954 0.385015C4.23954 0.385003 4.23955 0.384992 4.23956 0.38498C4.26364 0.346615 4.29955 0.312584 4.34546 0.288075C4.39147 0.263517 4.44488 0.25 4.50016 0.25C4.55545 0.25 4.60886 0.263518 4.65486 0.288075C4.70078 0.312584 4.73669 0.346615 4.76077 0.38498C4.76078 0.384992 4.76078 0.385003 4.76079 0.385015L5.98332 2.33431Z" stroke="url(#paint0_linear_0_2728)" stroke-width="0.5"/>
<defs>
<linearGradient id="paint0_linear_0_2728" x1="1.31849" y1="8.02418" x2="6.17574" y2="-0.31872" gradientUnits="userSpaceOnUse">
<stop stop-color="#3790FB"/>
<stop offset="1" stop-color="#D141F6"/>
</linearGradient>
</defs>
</svg>
