<svg width="11" height="11" viewBox="0 0 11 11" fill="none" xmlns="http://www.w3.org/2000/svg">
<g id="Group">
<g id="Group_2">
<path id="Vector" d="M10.6552 8.99039L7.16475 5.49997L10.6552 2.00955C11.1148 1.54987 11.1149 0.804549 10.6552 0.344807C10.1954 -0.114936 9.4501 -0.114877 8.99047 0.344807L5.5 3.83522L2.00953 0.344807C1.5499 -0.114936 0.80446 -0.114936 0.344777 0.344807C-0.114906 0.804549 -0.114906 1.54987 0.344836 2.00955L3.83525 5.49997L0.344836 8.99039C-0.114906 9.45013 -0.114965 10.1954 0.344777 10.6551C0.804637 11.1149 1.54996 11.1148 2.00953 10.6551L5.5 7.16472L8.99047 10.6551C9.45004 11.1148 10.1955 11.1149 10.6552 10.6551C11.115 10.1954 11.1149 9.45007 10.6552 8.99039Z" fill="white" fill-opacity="0.866667"/>
</g>
</g>
</svg>
