<svg width="20" height="22" viewBox="0 0 20 22" fill="none" xmlns="http://www.w3.org/2000/svg">
<g id="Group 48096963">
<path id="Vector" d="M13.504 0.480957C13.8782 0.708643 14.1469 1.05512 14.4483 1.35706C15.4754 2.38412 16.4925 3.42108 17.5122 4.4531C17.9416 4.88867 18.3685 5.32672 18.8005 5.75735C19.0265 5.98256 19.132 6.23747 19.019 6.54435C18.906 6.85123 18.6649 7.0022 18.3409 7.00715C17.7382 7.01705 17.138 7.01705 16.5352 7.01952C16.1962 7.01952 16.1962 7.01952 16.1962 7.3462C16.1962 9.1182 16.1962 10.8927 16.1962 12.6647C16.1962 13.3106 15.935 13.5705 15.282 13.5705C13.9234 13.5705 12.5647 13.5705 11.2086 13.5705C10.6033 13.5705 10.3396 13.3106 10.3396 12.7142C10.3396 10.9422 10.3396 9.1677 10.3396 7.3957C10.3396 7.0022 10.3873 7.022 9.95036 7.022C9.40539 7.022 8.85791 7.02695 8.31293 7.022C7.8634 7.01705 7.60974 6.85866 7.49924 6.53445C7.39628 6.23747 7.50176 5.99741 7.71271 5.78457C8.78759 4.69811 9.86246 3.60917 10.9373 2.52271C11.5099 1.9436 12.0825 1.36943 12.6501 0.787839C12.7681 0.666571 12.8937 0.560152 13.0444 0.485906L13.5065 0.485906L13.504 0.480957Z" fill="white"/>
<path id="Vector_2" d="M8.65686 11.9769C8.65686 12.9094 8.66183 13.8444 8.6519 14.7769C8.6519 14.9894 8.71646 15.0544 8.92506 15.0494C9.50615 15.0369 10.0872 15.0419 10.6683 15.0494C11.1029 15.0544 11.3488 15.2069 11.463 15.5269C11.5747 15.8344 11.468 16.0844 11.2544 16.3044C10.2114 17.382 9.16842 18.4595 8.12544 19.5395C7.52696 20.1595 6.92848 20.7795 6.33249 21.3995C5.98731 21.7595 5.56515 21.772 5.22245 21.417C3.56857 19.712 1.91966 18.0045 0.265777 16.2969C0.0546967 16.0794 -0.0322193 15.8269 0.069596 15.5344C0.173895 15.2319 0.397391 15.0694 0.712771 15.0644C1.31373 15.0519 1.91718 15.0519 2.51813 15.0469C2.86331 15.0469 2.86331 15.0469 2.86331 14.7069C2.86331 12.9169 2.86331 11.1244 2.86331 9.33433C2.86331 8.68932 3.11909 8.42932 3.75482 8.42932C5.10325 8.42932 6.45417 8.42932 7.80261 8.42932C8.38867 8.42932 8.65438 8.69433 8.65438 9.28183C8.65438 10.1818 8.65438 11.0794 8.65438 11.9794L8.65686 11.9769Z" fill="white"/>
</g>
</svg>
