<svg width="32" height="32" viewBox="0 0 32 32" fill="none" xmlns="http://www.w3.org/2000/svg">
<path id="Vector" d="M19.9882 25.3706C19.9882 23.6595 20.0045 21.9444 19.9801 20.2333C19.972 19.6981 20.1545 19.5035 20.6897 19.5278C21.4236 19.5602 22.1575 19.5278 22.8914 19.5359C23.1914 19.5359 23.3901 19.4751 23.4266 19.1142C23.528 18.1857 23.6496 17.2531 23.7915 16.3287C23.8645 15.8664 23.6699 15.7691 23.2604 15.7813C22.3845 15.8016 21.5087 15.7732 20.6329 15.7894C20.1666 15.7975 19.968 15.6232 19.9842 15.1407C20.0085 14.4473 19.9801 13.754 19.9963 13.0606C20.0247 11.8199 20.6086 11.2482 21.8615 11.2157C22.4129 11.1995 22.9644 11.1995 23.5117 11.2157C23.8767 11.2238 24.0267 11.0819 24.0186 10.713C24.0024 9.91825 24.0105 9.12353 24.0186 8.32882C24.0186 8.04094 23.9334 7.87064 23.6172 7.8382C22.3359 7.7044 21.0506 7.60709 19.7815 7.85037C17.6284 8.26394 16.2458 9.88986 16.1485 12.0875C16.1039 13.0849 16.112 14.0864 16.1282 15.0839C16.1363 15.6151 15.9214 15.8137 15.4024 15.7935C14.6888 15.7691 13.9752 15.7975 13.2616 15.7853C12.8682 15.7772 12.7142 15.9394 12.7223 16.3327C12.7385 17.2085 12.7426 18.0843 12.7223 18.9601C12.7142 19.3778 12.8561 19.5521 13.2859 19.5359C14.0198 19.5116 14.7537 19.544 15.4876 19.5237C15.9174 19.5116 16.1282 19.6576 16.1282 20.1157C16.1201 23.8257 16.1201 27.5358 16.1282 31.2458C16.1282 31.7486 15.8849 31.858 15.443 31.8459C9.77454 31.6512 5.35496 29.1657 2.38289 24.3812C-3.56125 14.8366 2.18826 2.4009 13.2859 0.604683C21.975 -0.802286 30.2668 5.40135 31.3251 14.1027C32.2414 21.6403 27.9719 28.5251 20.8235 31.0309C20.0572 31.2985 19.9923 31.2579 19.9882 30.443C19.9882 28.7522 19.9882 27.0573 19.9882 25.3665V25.3706Z" fill="white"/>
</svg>
