<svg width="14" height="15" viewBox="0 0 14 15" fill="none" xmlns="http://www.w3.org/2000/svg">
<g id="Group">
<path id="Vector" d="M6.26541 1.30567C6.34029 1.17886 6.44755 1.07365 6.57649 1.00052C6.70543 0.927398 6.85154 0.888916 7.00025 0.888916C7.14897 0.888916 7.29508 0.927398 7.42402 1.00052C7.55296 1.07365 7.66022 1.17886 7.7351 1.30567L9.63684 4.52747L13.3301 5.31714C13.4754 5.34829 13.6098 5.41648 13.7201 5.51491C13.8303 5.61334 13.9125 5.73857 13.9584 5.87811C14.0043 6.01766 14.0124 6.16664 13.9818 6.31021C13.9512 6.45379 13.8829 6.58693 13.7839 6.69637L11.2664 9.47701L11.6474 13.187C11.6625 13.3331 11.6384 13.4805 11.5777 13.6145C11.5169 13.7486 11.4216 13.8645 11.3012 13.9508C11.1808 14.0371 11.0396 14.0908 10.8917 14.1064C10.7437 14.122 10.5942 14.099 10.4581 14.0398L7.00025 12.5356L3.54242 14.0398C3.40628 14.099 3.25678 14.122 3.10883 14.1064C2.96089 14.0908 2.81968 14.0371 2.69931 13.9508C2.57893 13.8645 2.48361 13.7486 2.42285 13.6145C2.3621 13.4805 2.33803 13.3331 2.35307 13.187L2.73409 9.47701L0.216584 6.69704C0.1174 6.58761 0.0490374 6.45441 0.0183227 6.31075C-0.0123921 6.16709 -0.00438487 6.01799 0.0415449 5.87834C0.0874747 5.73868 0.16972 5.61336 0.280071 5.51489C0.390421 5.41641 0.525015 5.34823 0.670417 5.31714L4.36367 4.52747L6.26541 1.30567Z" fill="white"/>
</g>
</svg>
