<svg width="14" height="14" viewBox="0 0 14 14" fill="none" xmlns="http://www.w3.org/2000/svg">
<path d="M7.30267 8.00833C7.13861 7.82898 6.85374 7.83054 6.69214 8.01421L4.35797 10.6666C4.22166 10.8215 4.22166 11.0536 4.35797 11.2085L6.69214 13.8608C6.85325 14.0439 7.1379 14.0468 7.30267 13.8667L9.72908 11.2144C9.87244 11.0576 9.87244 10.8174 9.72908 10.6607L7.30267 8.00833Z" fill="white"/>
<path d="M5.76953 0C4.8192 0 4.12891 0.793188 4.12891 1.7587C4.12891 2.98301 5.25995 3.73918 6.7299 5.02546C6.88458 5.16078 7.11542 5.16075 7.2701 5.02546C8.7401 3.73912 9.8711 2.98274 9.8711 1.75872C9.8711 0.793133 9.18075 0 8.23047 0C7.74542 0 7.32217 0.213145 7 0.617969C6.67784 0.213145 6.25458 0 5.76953 0Z" fill="white"/>
<path d="M4.10156 8.3125C5.00621 8.3125 5.74219 7.57652 5.74219 6.67188C5.74219 5.90847 5.21809 5.26518 4.51082 5.08293C4.54322 4.17164 3.80519 3.39062 2.8711 3.39062C1.93703 3.39062 1.19897 4.17164 1.23137 5.08293C0.524098 5.26518 0 5.90847 0 6.67188C0 7.57652 0.735985 8.3125 1.64063 8.3125C1.93933 8.3125 2.21944 8.23192 2.46094 8.09187V9.13282H2.05078C1.82427 9.13282 1.64063 9.31646 1.64063 9.54297C1.64063 9.76949 1.82427 9.95313 2.05078 9.95313H3.69141C3.91792 9.95313 4.10156 9.76949 4.10156 9.54297C4.10156 9.31646 3.91792 9.13282 3.69141 9.13282H3.28125V8.09187C3.52275 8.23192 3.80286 8.3125 4.10156 8.3125Z" fill="white"/>
<path d="M11.399 3.38956C11.2444 3.25426 11.0135 3.25426 10.8588 3.38956C9.38881 4.67589 8.25781 5.43227 8.25781 6.65632C8.25781 7.62191 8.94816 8.41501 9.89844 8.41501C10.1987 8.41501 10.4752 8.33315 10.7188 8.17488V9.13279H10.3086C10.0821 9.13279 9.89844 9.31643 9.89844 9.54294C9.89844 9.76946 10.0821 9.9531 10.3086 9.9531H11.9492C12.1757 9.9531 12.3594 9.76946 12.3594 9.54294C12.3594 9.31643 12.1757 9.13279 11.9492 9.13279H11.5391V8.17488C11.7826 8.33315 12.0591 8.41501 12.3594 8.41501C13.3097 8.41501 14 7.62183 14 6.65632C14 5.432 12.869 4.67584 11.399 3.38956Z" fill="white"/>
</svg>
