<svg width="33" height="33" viewBox="0 0 33 33" fill="none" xmlns="http://www.w3.org/2000/svg">
<g id="Group">
<path id="Subtract" fill-rule="evenodd" clip-rule="evenodd" d="M32.7763 16.2024C32.7763 25.1508 25.5222 32.4049 16.5739 32.4049C7.62552 32.4049 0.37146 25.1508 0.37146 16.2024C0.37146 7.25408 7.62552 0 16.5739 0C25.5222 0 32.7763 7.25408 32.7763 16.2024ZM15.7464 25.9862C16.0167 26.065 16.2883 26.1442 16.5788 26.1079L16.591 26.112C16.595 26.1241 16.595 26.1362 16.595 26.1483V26.1485C16.6964 26.1302 16.7967 26.112 16.8971 26.0937C16.9974 26.0755 17.0978 26.0572 17.1992 26.039C17.6979 25.9498 18.1682 25.7714 18.6264 25.5646C19.4049 25.2118 20.1185 24.7496 20.8037 24.2468C21.3106 23.8738 21.789 23.4602 22.2594 23.0385C23.2771 22.1222 24.1813 21.1085 24.9598 19.9813C25.4666 19.2434 25.9207 18.4811 26.2167 17.6337C26.3424 17.2769 26.4438 16.9079 26.4965 16.5349C26.5654 16.0686 26.4803 15.6063 26.3505 15.1563C26.2005 14.6251 25.9897 14.1142 25.7099 13.6358C25.4017 13.1127 25.0855 12.5937 24.7327 12.1031C24.3759 11.6084 23.9907 11.1381 23.5853 10.688C22.896 9.92171 22.154 9.21214 21.3511 8.5634C20.8038 8.12144 20.2361 7.71192 19.632 7.35105C19.1738 7.07939 18.7075 6.83611 18.2128 6.63743C17.7952 6.46713 17.3694 6.34955 16.9315 6.28873C16.4693 6.22386 16.0071 6.29278 15.5651 6.43064C15.2124 6.54012 14.8718 6.68609 14.5352 6.83611C13.927 7.10372 13.3675 7.45647 12.8242 7.8295C12.1754 8.27551 11.5632 8.77018 10.9874 9.30134C9.91698 10.2866 8.9398 11.3652 8.12482 12.5775C7.53284 13.4574 7.01789 14.3737 6.77866 15.4198C6.76586 15.474 6.75115 15.5277 6.73643 15.5814C6.69057 15.7487 6.64475 15.9158 6.65703 16.097C6.66919 16.3362 6.68136 16.5673 6.73407 16.8065C6.85571 17.3539 7.03816 17.8729 7.28144 18.3757C7.80449 19.4542 8.49783 20.4192 9.27227 21.3234C9.994 22.1668 10.7847 22.9493 11.6443 23.6589C12.1714 24.0928 12.7188 24.5023 13.2986 24.8713C14.0081 25.3213 14.7461 25.7146 15.5611 25.9336C15.6229 25.9502 15.6846 25.9682 15.7464 25.9862ZM25.9236 15.8718C25.9345 15.9415 25.9442 16.0029 25.9532 16.0524L25.9613 16.0483C25.9451 16.7498 25.7991 17.2647 25.5964 17.7715C25.2963 18.5298 24.8827 19.2191 24.4124 19.88C23.7961 20.7477 23.1068 21.5586 22.3324 22.2844C21.8215 22.7628 21.2903 23.221 20.747 23.667C20.4969 23.8716 20.2309 24.0603 19.9657 24.2484C19.8525 24.3287 19.7395 24.4088 19.6279 24.4901C19.6264 24.4912 19.6248 24.4925 19.6229 24.4939C19.6043 24.5085 19.5664 24.538 19.5184 24.5307C19.4017 24.5151 19.341 24.2942 19.3183 24.2119C19.3174 24.2084 19.3165 24.2052 19.3157 24.2022C19.1505 23.6261 18.3567 23.0859 17.6743 22.6216L17.6614 22.6128C17.6213 22.5855 17.5818 22.5557 17.542 22.5256C17.4811 22.4797 17.4194 22.4331 17.3532 22.3939C17.3061 22.3654 17.2615 22.3403 17.2205 22.3171C17.0746 22.2349 16.9744 22.1784 16.968 22.0898C16.968 22.0492 16.9843 22.0168 16.9964 21.9965C17.337 21.4572 18.5007 20.549 18.5007 20.549C19.3152 19.9115 19.4252 19.7208 19.5029 19.5861C19.532 19.5357 19.5565 19.4932 19.6117 19.438C19.7374 19.3083 19.7374 19.2799 19.6036 19.1461L19.5995 19.1421C18.644 18.1906 17.6884 17.239 16.7329 16.2835C16.6112 16.1578 16.6112 16.0929 16.7329 15.9753C17.3085 15.406 17.6904 14.9935 18.0078 14.6507C18.4973 14.1219 18.8332 13.7591 19.49 13.2425C19.5346 13.21 19.6684 13.1046 19.6482 13.0073C19.6401 12.9708 19.6157 12.9465 19.5671 12.9019C19.4556 12.7968 19.3867 12.7343 19.3603 12.7103C19.353 12.7037 19.349 12.7 19.3481 12.6992C19.2323 12.6129 19.0466 12.405 18.8446 12.1788C18.7426 12.0646 18.6365 11.9457 18.5331 11.8355C18.3345 11.6247 18.0182 11.3327 17.3776 10.7529C17.3068 10.69 17.2714 10.6594 17.2375 10.6302C17.1841 10.584 17.1346 10.5412 16.9559 10.3799C16.8383 10.2704 16.814 10.2501 16.7612 10.2096C16.7533 10.2038 16.7455 10.1981 16.7378 10.1924C16.6862 10.1549 16.6376 10.1195 16.5707 10.0596C16.5669 10.0561 16.5633 10.0526 16.5598 10.0493C16.4941 9.98732 16.4612 9.95634 16.4612 9.92171C16.4612 9.83615 16.6319 9.77106 16.6913 9.74838C16.6967 9.74634 16.7011 9.74464 16.7045 9.7433C17.2033 9.5602 18.0978 8.5021 18.5785 7.93343C18.7152 7.7717 18.8185 7.64956 18.8697 7.59839C18.9386 7.53351 18.9873 7.55378 19.044 7.59028C19.1973 7.68961 19.3521 7.78746 19.507 7.8854C19.8643 8.11127 20.2223 8.33761 20.5645 8.58367C21.4566 9.22836 22.2634 9.97847 23.0095 10.7854C23.8001 11.6409 24.5138 12.5572 25.0936 13.575C25.3896 14.098 25.6491 14.6373 25.7991 15.2171C25.8577 15.4515 25.8951 15.6901 25.9236 15.8718Z" fill="white"/>
<path id="Vector" d="M17.5065 25.1431C16.7281 25.1269 16.0063 24.8795 15.3454 24.5065C12.4504 22.8603 10.1636 20.6181 8.64712 17.6217C8.0227 16.3891 8.07541 15.1889 8.64306 13.9644C8.84985 13.5143 9.02421 13.49 9.31615 13.9117C12.0693 17.8771 15.6576 20.9952 19.469 23.878C19.8988 24.2024 19.8948 24.3646 19.4204 24.5998C18.7392 24.9363 18.0742 25.1471 17.5106 25.1471L17.5065 25.1431ZM17.612 24.5957C17.9769 24.6241 18.4513 24.5065 18.9054 24.3078C19.1771 24.1902 19.2339 24.0159 18.9906 23.805C18.873 23.7037 18.7473 23.6104 18.6216 23.5172C15.2157 20.8451 11.9801 17.9988 9.4094 14.4753C9.30398 14.3333 9.20261 14.1428 8.99987 14.1752C8.7647 14.2158 8.74039 14.455 8.68362 14.6415C8.31465 15.8417 8.639 16.9324 9.25126 17.9623C10.6461 20.2978 12.5193 22.1791 14.7899 23.6631C15.5968 24.1862 16.4686 24.5998 17.6039 24.5998L17.612 24.5957Z" fill="white"/>
<path id="Vector_2" d="M19.9516 19.2476C19.9516 19.426 19.8259 19.5274 19.7205 19.6369C18.9663 20.3951 18.2081 21.1452 17.458 21.9075C17.2309 22.1386 17.0363 22.1792 16.7687 21.9562C13.9467 19.5882 11.2747 17.0824 9.16624 14.0333C8.7851 13.486 8.78509 13.0845 9.20677 12.5574C9.72172 11.9127 10.2204 11.264 10.7678 10.6477C11.0192 10.3639 11.2219 10.3801 11.4855 10.6477C14.2224 13.3927 16.9674 16.1296 19.7084 18.8665C19.8178 18.976 19.9395 19.0773 19.9598 19.2476H19.9516ZM11.0962 10.7896C10.9422 10.7855 10.8611 10.891 10.7719 10.9923C10.3907 11.4546 10.0137 11.9249 9.62036 12.375C9.17434 12.8859 9.17839 13.3481 9.58385 13.9198C11.5828 16.7378 14.0805 19.0692 16.6795 21.3074C17.0039 21.5831 17.2877 21.502 17.5594 21.2304C18.0784 20.7114 18.5893 20.1802 19.1245 19.6774C19.4975 19.3287 19.5056 19.0408 19.1326 18.6759C16.5903 16.1539 14.0602 13.6157 11.522 11.0856C11.3963 10.9599 11.2828 10.818 11.0922 10.7855L11.0962 10.7896Z" fill="white"/>
<path id="Vector_3" d="M19.7205 12.9629C19.7327 13.194 19.6029 13.2954 19.4934 13.4008C18.6785 14.2198 17.8513 15.0308 17.0444 15.862C16.7647 16.1499 16.5457 16.162 16.2659 15.8741C14.6441 14.1955 12.9127 12.6182 11.3476 10.8788C11.0395 10.5382 11.0192 10.303 11.3679 10.003C12.045 9.42316 12.7384 8.87173 13.4682 8.35679C13.7723 8.14189 14.0318 8.21082 14.3278 8.38923C15.3577 9.0177 16.2943 9.77187 17.2066 10.5504C17.9689 11.1991 18.6744 11.9087 19.4002 12.598C19.5259 12.7156 19.6313 12.8615 19.7205 12.9629ZM13.9305 8.44599C13.7723 8.50681 13.6182 8.5433 13.4885 8.61629C12.8114 9.01364 12.2478 9.54886 11.6598 10.0597C11.3841 10.299 11.5504 10.4936 11.7328 10.672C13.2411 12.1803 14.7576 13.6887 16.2619 15.2011C16.5498 15.493 16.8133 15.5335 17.1174 15.2254C17.7418 14.5929 18.3703 13.9603 19.0069 13.34C19.2623 13.0886 19.2826 12.8737 19.0231 12.602C17.6161 11.1423 16.1119 9.79214 14.4089 8.67711C14.2629 8.57979 14.0967 8.51897 13.9305 8.43788V8.44599Z" fill="white"/>
<path id="Vector_4" d="M16.8457 7.08762C17.539 7.13222 18.2486 7.29035 18.9419 7.54985C19.3271 7.69582 19.3798 7.89449 19.0838 8.19049C18.4797 8.79058 17.8755 9.39067 17.2835 9.99886C17.0119 10.2786 16.7645 10.303 16.4442 10.0556C15.7468 9.52041 15.0373 8.99736 14.3115 8.50269C13.7398 8.1175 13.9263 7.89044 14.425 7.67554C15.1873 7.34711 15.9739 7.14033 16.8497 7.08762H16.8457ZM18.4594 7.97964C18.4554 7.85395 18.4229 7.76474 18.3702 7.69582C18.2607 7.54985 18.0904 7.50525 17.9891 7.48497C17.024 7.28629 16.3469 7.38766 16.3469 7.38766C15.9252 7.44848 14.4818 7.65932 14.4818 7.97964C14.4818 8.0283 14.5183 8.05668 14.8873 8.32023C15.5522 8.79463 15.5076 8.76625 15.6049 8.83518C16.7483 9.62584 16.0996 9.14333 16.3875 9.35012C16.5821 9.48798 16.6835 9.56907 16.8335 9.56907C17.0484 9.56907 17.2106 9.41499 17.3079 9.31768C17.7904 8.83518 18.2688 8.22698 18.4594 7.97964Z" fill="white"/>
</g>
</svg>
