<svg width="24" height="24" viewBox="0 0 24 24" fill="none" xmlns="http://www.w3.org/2000/svg">
<path id="Vector" fill-rule="evenodd" clip-rule="evenodd" d="M0.949026 6.93616C0.34436 8.03735 0.34436 9.36878 0.34436 12.0293V13.7991C0.34436 18.3341 0.34436 20.6028 1.70718 22.0121C3.06884 23.4214 5.26192 23.4214 9.64691 23.4214H14.2982C18.6832 23.4214 20.8762 23.4214 22.2379 22.0121C23.6007 20.6028 23.6007 18.3353 23.6007 13.7991V12.0305C23.6007 9.36878 23.6007 8.03851 22.9961 6.93616C22.3937 5.83265 21.2902 5.14891 19.0843 3.77911L16.7587 2.33605C14.4273 0.888343 13.261 0.16507 11.9725 0.16507C10.6841 0.16507 9.519 0.888343 7.18639 2.33605L4.86075 3.77911C2.65488 5.14891 1.55253 5.83265 0.949026 6.93616ZM11.1004 18.7702C11.1004 19.0015 11.1923 19.2233 11.3559 19.3868C11.5194 19.5504 11.7412 19.6423 11.9725 19.6423C12.2038 19.6423 12.4257 19.5504 12.5892 19.3868C12.7528 19.2233 12.8447 19.0015 12.8447 18.7702V15.2817C12.8447 15.0504 12.7528 14.8286 12.5892 14.665C12.4257 14.5015 12.2038 14.4096 11.9725 14.4096C11.7412 14.4096 11.5194 14.5015 11.3559 14.665C11.1923 14.8286 11.1004 15.0504 11.1004 15.2817V18.7702Z" fill="white"/>
</svg>
