<svg width="19" height="24" viewBox="0 0 19 24" fill="none" xmlns="http://www.w3.org/2000/svg">
<g id="Group 48097809">
<path id="Vector 2" d="M13.7704 4.04965H6.01831V2.30372C6.01831 1.8032 6.33859 1.35885 6.81341 1.20057L9.15894 0.418728C9.63632 0.259602 10.1524 0.259602 10.6298 0.418728L12.9753 1.20057C13.4502 1.35885 13.7704 1.8032 13.7704 2.30372V4.04965Z" fill="white"/>
<path id="Subtract" fill-rule="evenodd" clip-rule="evenodd" d="M9.89437 23.4298C14.8893 23.4298 18.9385 19.3806 18.9385 14.3856C18.9385 9.39069 14.8893 5.34149 9.89437 5.34149C4.89942 5.34149 0.85022 9.39069 0.85022 14.3856C0.85022 19.3806 4.89942 23.4298 9.89437 23.4298ZM9.24837 13.4219V6.65984C9.46138 6.64226 9.67683 6.6333 9.89437 6.6333C14.1758 6.6333 17.6465 10.104 17.6465 14.3854C17.6465 16.6904 16.6405 18.7605 15.0436 20.1804L9.92953 15.0664C9.49339 14.6302 9.24837 14.0387 9.24837 13.4219Z" fill="white"/>
</g>
</svg>
