<svg width="33" height="32" viewBox="0 0 33 32" fill="none" xmlns="http://www.w3.org/2000/svg">
<g id="Group">
<path id="Vector" d="M16.6329 0.407192C25.2288 0.273388 32.3974 7.50691 32.3853 16.1352C32.3731 24.719 25.2369 31.8471 16.6451 31.843C8.0289 31.8389 0.856193 24.6662 0.933232 16.0582C1.01027 7.38527 7.94374 0.411247 16.6329 0.407192ZM25.5694 16.1352C25.5045 14.631 25.618 13.1267 25.4437 11.6183C25.168 9.25447 23.5177 7.52718 21.1498 7.34067C18.1615 7.10144 15.1692 7.10144 12.1809 7.34067C9.80078 7.53124 8.09377 9.20581 7.88698 11.6021C7.62748 14.5864 7.6437 17.5828 7.88293 20.571C8.0735 22.9876 9.78051 24.6946 12.193 24.8852C15.1813 25.1244 18.1737 25.1244 21.162 24.8852C23.5177 24.6946 25.1761 22.9592 25.4477 20.5954C25.6221 19.1114 25.5045 17.6233 25.5734 16.1393L25.5694 16.1352Z" fill="white"/>
<path id="Vector_2" d="M9.19206 16.1152C9.14746 14.7894 9.21234 13.4676 9.28127 12.1457C9.39074 10.1184 10.6882 8.84118 12.7237 8.73576C15.3511 8.60196 17.9745 8.5979 20.6019 8.73576C22.6373 8.84118 23.9186 10.1306 24.024 12.166C24.1619 14.7934 24.1619 17.4168 24.024 20.0442C23.9186 22.0959 22.6089 23.3853 20.5451 23.4866C17.938 23.6164 15.3349 23.6164 12.7277 23.4866C10.668 23.3812 9.37047 22.0878 9.27315 20.0239C9.20828 18.7224 9.14746 17.4209 9.18801 16.1152H9.19206ZM16.6689 20.624C19.2152 20.62 21.1776 18.6373 21.1695 16.0828C21.1614 13.5649 19.1949 11.6024 16.6729 11.5984C14.1104 11.5943 12.1398 13.5527 12.1398 16.1071C12.1398 18.6575 14.1144 20.6281 16.6689 20.624ZM21.4615 10.2968C20.9263 10.2968 20.464 10.7834 20.4802 11.3348C20.4924 11.9025 20.8938 12.2917 21.4534 12.2876C22.0089 12.2836 22.4873 11.8092 22.4711 11.278C22.4549 10.7915 21.944 10.2968 21.4655 10.3009L21.4615 10.2968Z" fill="white"/>
<path id="Vector_3" d="M16.6733 13.0336C18.3519 13.0458 19.7467 14.4568 19.7345 16.1274C19.7224 17.8019 18.3113 19.2008 16.6449 19.1927C14.9784 19.1805 13.5674 17.7573 13.5795 16.099C13.5917 14.4325 15.0149 13.0215 16.6733 13.0336Z" fill="white"/>
</g>
</svg>
