<svg width="27" height="22" viewBox="0 0 27 22" fill="none" xmlns="http://www.w3.org/2000/svg">
<g id="Live Casino 1" clip-path="url(#clip0_167_2903)">
<path id="Vector" d="M4.00025 11.0001C4.00025 4.92493 8.92511 7.62939e-05 15.0002 7.62939e-05C21.0754 7.62939e-05 26.0002 4.92493 26.0002 11.0001C26.0002 17.0752 21.0754 22.0001 15.0002 22.0001C13.1397 22.0001 11.3844 21.5373 9.84596 20.7201L5.50254 21.9553C5.30067 22.0125 5.08719 22.0148 4.88414 21.9619C4.68109 21.9091 4.49584 21.8029 4.34752 21.6545C4.19919 21.5061 4.09318 21.3208 4.04041 21.1178C3.98765 20.9147 3.99006 20.7012 4.0474 20.4994L5.28254 16.1567C4.43841 14.5691 3.99803 12.7981 4.00025 11.0001ZM10.286 8.64293C10.286 8.85132 10.3687 9.05117 10.5161 9.19852C10.6634 9.34587 10.8633 9.42865 11.0717 9.42865H18.9288C19.1372 9.42865 19.3371 9.34587 19.4844 9.19852C19.6318 9.05117 19.7145 8.85132 19.7145 8.64293C19.7145 8.43455 19.6318 8.2347 19.4844 8.08735C19.3371 7.94 19.1372 7.85722 18.9288 7.85722H11.0717C10.8633 7.85722 10.6634 7.94 10.5161 8.08735C10.3687 8.2347 10.286 8.43455 10.286 8.64293ZM11.0717 12.5715C10.8633 12.5715 10.6634 12.6543 10.5161 12.8016C10.3687 12.949 10.286 13.1488 10.286 13.3572C10.286 13.5656 10.3687 13.7655 10.5161 13.9128C10.6634 14.0602 10.8633 14.1429 11.0717 14.1429H15.786C15.9943 14.1429 16.1942 14.0602 16.3415 13.9128C16.4889 13.7655 16.5717 13.5656 16.5717 13.3572C16.5717 13.1488 16.4889 12.949 16.3415 12.8016C16.1942 12.6543 15.9943 12.5715 15.786 12.5715H11.0717Z" fill="white"/>
</g>
<defs>
<clipPath id="clip0_167_2903">
<rect width="27" height="22" fill="white" transform="translate(0.000244141 7.62939e-05)"/>
</clipPath>
</defs>
</svg>
