<svg width="101" height="23" viewBox="0 0 101 23" fill="none" xmlns="http://www.w3.org/2000/svg">
<path d="M6.47754 13.6775V12.3576L9.77164 8.78606L9.76786 0H16.6229C19.3506 0 21.5619 2.22248 21.5619 4.964V15.8711C21.5619 15.8711 21.6549 18.1473 19.7863 19.6717L12.9765 11.0375L17.3489 6.41346L13.3656 6.40456L6.47754 13.6775Z" fill="url(#paint0_linear_138_3419)"/>
<path d="M16.7746 20.7899L10.9233 13.6822L6.53723 18.378L6.54014 17.9448L10.9371 13.2559L17.1299 20.7924L16.7746 20.7899Z" fill="url(#paint1_linear_138_3419)"/>
<path d="M21.561 15.8711V4.94009C21.561 2.21175 19.3605 0 16.6457 0H9.76685L9.7707 8.79945L9.97008 0.205144L16.7254 0.219952C16.9485 0.221243 17.1718 0.240127 17.3906 0.284077C21.2037 1.05051 21.2784 4.61057 21.2784 4.61057V15.9634C21.2784 18.2679 19.6002 19.4372 19.6002 19.4372L19.7854 19.6717C20.8701 18.7656 21.561 17.3995 21.561 15.8711Z" fill="url(#paint2_linear_138_3419)"/>
<path opacity="0.4" d="M13.3677 6.40419L13.6246 6.146H17.6164L17.3507 6.41309L13.3677 6.40419Z" fill="url(#paint3_linear_138_3419)"/>
<path d="M9.77212 8.78589V9.05903L6.47754 12.6287L6.47794 12.3574L9.77212 8.78589Z" fill="url(#paint4_linear_138_3419)"/>
<path d="M2.66016 1.24662C1.03626 2.81067 1.15062 3.88761 1.02497 4.70364V15.9474C1.02497 15.9474 0.875068 18.8605 3.80326 20.1977C4.56023 20.5434 5.38695 20.7071 6.21833 20.7131L17.3015 21L10.9395 13.2735L6.53984 17.9652V13.6607L6.54031 13.6603V12.3428L6.53984 12.3432V0.0336925C6.5372 0.0333528 6.32093 0 5.97576 0C5.2023 0 3.78075 0.167172 2.66016 1.24662Z" fill="url(#paint5_linear_138_3419)"/>
<path d="M17.1294 20.9955H6.21614C5.32873 20.9891 4.49694 20.8114 3.74396 20.4674C0.763053 19.1062 0.88187 16.1114 0.883424 16.0814L0.883289 4.83399L0.884911 4.82326C0.90174 4.71423 0.914176 4.59943 0.927423 4.47777C1.01035 3.71514 1.1241 2.67061 2.56173 1.28588C3.72328 0.167036 5.19856 0 5.97452 0C6.31259 0 6.51535 0.0301602 6.53961 0.0336925V0.310025C6.51758 0.306697 6.29245 0.282378 5.97452 0.282378C5.24066 0.282378 3.84669 0.439225 2.75625 1.48967C1.39228 2.80334 1.28942 3.74876 1.20683 4.50848C1.19365 4.62939 1.18121 4.74385 1.16431 4.85559V16.0886C1.15843 16.2109 1.05739 18.9303 3.86014 20.2103C4.57703 20.5378 5.37043 20.707 6.21817 20.7131L17.1294 20.7926V20.9955Z" fill="url(#paint6_linear_138_3419)"/>
<path d="M29.0648 0.55326V11.0518H26.9017V0.55326H29.0648ZM35.3524 0.55326L31.1919 5.73761L28.7908 8.31898L28.4015 6.27119L30.0238 4.05036L32.6989 0.55326H35.3524ZM32.8936 11.0518L29.8003 6.19909L31.401 4.85793L35.4533 11.0518H32.8936ZM43.2912 4.82909V6.51635H37.8112V4.82909H43.2912ZM38.4529 0.55326V11.0518H36.2897V0.55326H38.4529ZM44.8342 0.55326V11.0518H42.6783V0.55326H44.8342ZM53.7608 9.3645V11.0518H48.1727V9.3645H53.7608ZM48.8793 0.55326V11.0518H46.7161V0.55326H48.8793ZM53.0325 4.82909V6.47309H48.1727V4.82909H53.0325ZM53.7536 0.55326V2.24773H48.1727V0.55326H53.7536ZM61.7717 9.3645V11.0518H56.4864V9.3645H61.7717ZM57.1858 0.55326V11.0518H55.0226V0.55326H57.1858ZM71.1598 5.55735V6.05488C71.1598 6.85284 71.0516 7.56908 70.8353 8.20361C70.619 8.83813 70.3137 9.37892 69.9196 9.82597C69.5254 10.2682 69.0543 10.6071 68.5063 10.8427C67.9631 11.0782 67.3598 11.196 66.6965 11.196C66.0379 11.196 65.4346 11.0782 64.8866 10.8427C64.3434 10.6071 63.8723 10.2682 63.4734 9.82597C63.0744 9.37892 62.7643 8.83813 62.5432 8.20361C62.3269 7.56908 62.2187 6.85284 62.2187 6.05488V5.55735C62.2187 4.75458 62.3269 4.03834 62.5432 3.40862C62.7595 2.7741 63.0648 2.23331 63.4589 1.78626C63.8579 1.3392 64.329 0.997907 64.8722 0.762364C65.4202 0.526821 66.0235 0.409049 66.682 0.409049C67.3454 0.409049 67.9487 0.526821 68.4919 0.762364C69.0399 0.997907 69.511 1.3392 69.9051 1.78626C70.3041 2.23331 70.6118 2.7741 70.8281 3.40862C71.0492 4.03834 71.1598 4.75458 71.1598 5.55735ZM68.975 6.05488V5.54293C68.975 4.98532 68.9245 4.495 68.8236 4.07199C68.7226 3.64897 68.5736 3.29325 68.3765 3.00483C68.1794 2.71641 67.9391 2.5001 67.6555 2.35589C67.3718 2.20687 67.0474 2.13236 66.682 2.13236C66.3167 2.13236 65.9922 2.20687 65.7086 2.35589C65.4298 2.5001 65.1919 2.71641 64.9948 3.00483C64.8025 3.29325 64.6559 3.64897 64.5549 4.07199C64.454 4.495 64.4035 4.98532 64.4035 5.54293V6.05488C64.4035 6.60768 64.454 7.098 64.5549 7.52582C64.6559 7.94884 64.8049 8.30696 65.002 8.60019C65.1991 8.88861 65.4394 9.10732 65.723 9.25634C66.0067 9.40536 66.3311 9.47987 66.6965 9.47987C67.0618 9.47987 67.3863 9.40536 67.6699 9.25634C67.9535 9.10732 68.1914 8.88861 68.3837 8.60019C68.576 8.30696 68.7226 7.94884 68.8236 7.52582C68.9245 7.098 68.975 6.60768 68.975 6.05488ZM73.8421 0.55326L76.0341 5.34104L78.2261 0.55326H80.5839L77.1301 7.23019V11.0518H74.9381V7.23019L71.477 0.55326H73.8421ZM84.8597 2.34868L82.0044 11.0518H79.7042L83.6051 0.55326H85.0688L84.8597 2.34868ZM87.232 11.0518L84.3694 2.34868L84.1387 0.55326H85.6168L89.5393 11.0518H87.232ZM87.1022 7.14366V8.83813H81.5573V7.14366H87.1022ZM90.5128 0.55326H94.4281C95.2308 0.55326 95.9206 0.673435 96.4975 0.913785C97.0791 1.15414 97.5262 1.50985 97.8386 1.98094C98.1511 2.45203 98.3073 3.03127 98.3073 3.71867C98.3073 4.28109 98.2112 4.7642 98.0189 5.16798C97.8314 5.56697 97.5646 5.90105 97.2185 6.17024C96.8772 6.43463 96.4759 6.64614 96.0144 6.80477L95.3294 7.16529H91.926L91.9116 5.47804H94.4425C94.8222 5.47804 95.1371 5.41074 95.3871 5.27614C95.637 5.14155 95.8245 4.95407 95.9495 4.71372C96.0793 4.47337 96.1442 4.19457 96.1442 3.8773C96.1442 3.54081 96.0817 3.24999 95.9567 3.00483C95.8317 2.75967 95.6418 2.5722 95.3871 2.44241C95.1323 2.31262 94.8126 2.24773 94.4281 2.24773H92.6759V11.0518H90.5128V0.55326ZM96.3821 11.0518L93.9882 6.37214L96.274 6.35772L98.6967 10.9508V11.0518H96.3821Z" fill="white"/>
<path d="M26.6292 14.8657L26.6721 14.8013H33.5306L33.8026 15.3454L33.7596 15.4098H32.743L32.7645 20.5644L32.7073 20.6288L32.0772 20.457L32.0987 17.1853H30.6812C31.0105 17.6936 31.1609 18.1231 31.1609 18.4954C31.1609 19.2185 30.5738 19.7196 29.908 19.7196C28.8556 19.7196 27.925 18.8605 27.1446 16.9132V16.8703L27.5097 16.677C28.154 18.2377 28.8556 18.9679 29.6002 18.9679C30.0226 18.9679 30.6025 18.6529 30.6025 18.0086C30.6025 17.7294 30.3805 17.2998 29.457 17.1853L29.1993 16.5911L29.2422 16.5266H32.0987V15.4098H26.9012L26.6292 14.8657Z" fill="white"/>
<path d="M33.2657 14.8658L33.3087 14.8014H34.3324C34.2394 13.4984 33.7239 12.8613 32.9579 12.8613C32.4209 12.8613 32.1274 13.2264 32.1274 13.6273C32.1274 13.9638 32.2778 14.2788 32.5069 14.5723L32.4567 14.6367L31.8625 14.3647C31.6048 14.0568 31.433 13.7204 31.433 13.3696C31.433 12.7754 31.8554 12.3029 32.6429 12.3029C33.7239 12.3029 34.7691 13.3409 34.9624 14.8086H35.7714L36.0435 15.3526L36.0005 15.4171H34.9839L35.0054 20.5717L34.9481 20.6361L34.3181 20.4643L34.3324 15.4171H33.5306L33.2586 14.873L33.2657 14.8658Z" fill="white"/>
<path d="M35.4993 14.8657L35.5422 14.8013H40.8257L41.0977 15.3454L41.0548 15.4098H40.0382L40.0596 20.5644L40.0024 20.6288L39.3724 20.457L39.3938 17.1638C39.1218 17.1495 38.8283 17.1495 38.5204 17.1495C37.2676 17.1495 36.8022 17.579 36.8022 18.0802C36.8022 18.6529 37.3678 19.3115 38.3916 19.9272L37.9047 20.6216H37.8546C36.7736 19.6337 36.2295 18.6815 36.2295 17.8081C36.2295 16.9347 36.702 16.455 38.1553 16.455C38.592 16.455 39.0001 16.455 39.401 16.4908V15.417H35.7785L35.5064 14.8729L35.4993 14.8657Z" fill="white"/>
<path d="M42.8948 14.8657L42.9377 14.8013H49.832L50.104 15.3454L50.0611 15.4098H47.1258V17.1566L47.1401 17.1709C47.4695 16.8416 47.8561 16.6412 48.2928 16.6412C49.023 16.6412 49.5742 17.3141 49.5742 18.0658C49.5742 18.6815 49.2378 19.2686 48.7724 19.8485H48.7152L48.1209 19.4189C48.6579 18.8032 49.023 18.2233 49.023 17.7079C49.023 17.4358 48.8798 17.2497 48.5863 17.2497C48.0995 17.2497 47.5768 17.6506 47.133 18.209L47.1473 20.5715L47.09 20.636L46.4743 20.4641L46.4958 18.8032L46.4815 18.7889C46.1235 19.1039 45.7298 19.2328 45.336 19.2328C44.3051 19.2328 43.5892 18.4524 43.5892 17.5647C43.5892 16.677 44.298 16.2259 45.2215 16.2259C45.6439 16.2259 46.0734 16.2832 46.503 16.4049V15.417H43.1668L42.8948 14.8729V14.8657ZM46.503 16.8917C46.2309 16.8345 45.9374 16.7987 45.6439 16.7987C44.8564 16.7987 44.2622 17.3284 44.2622 17.9155C44.2622 18.3808 44.5485 18.6242 45.0139 18.6242C45.4792 18.6242 45.9947 18.3522 46.503 17.8009V16.8917Z" fill="white"/>
<path d="M52.3018 15.4171H51.2852L51.3067 20.5717L51.2494 20.6361L50.6194 20.4643L50.6337 15.4171H49.8319L49.5598 14.873L49.6028 14.8086H50.7125C50.5621 14.4721 50.4046 14.1356 50.2328 13.792C49.9106 13.1477 49.7245 12.8756 49.0659 12.8756C48.7294 12.8756 48.3929 12.9329 48.0636 13.0188L48.0206 12.983L47.7343 12.2098C48.0421 12.1168 48.4001 12.0667 48.8224 12.0667C49.8748 12.0667 50.0968 12.7468 51.1635 14.8086H52.0655L52.3376 15.3527L52.2946 15.4171H52.3018Z" fill="white"/>
<path d="M55.4948 15.2737V15.2308C55.9887 14.9015 56.4612 14.7153 56.8693 14.7153C57.3704 14.7153 57.7857 14.9373 58.1222 15.3597C58.3727 15.6818 58.5016 16.0326 58.5016 16.4335C58.5016 16.7628 58.3942 17.0206 58.2009 17.2353C58.3656 17.3427 58.4801 17.4573 58.5803 17.5647C58.7235 17.7078 58.9455 17.7866 59.2676 17.7866C59.6041 17.7866 59.9263 17.6935 60.1983 17.5002V15.4312H59.1173L58.8452 14.8872L58.8882 14.8227H63.8709L64.143 15.3668L64.1 15.4312H63.0834L63.1049 20.5858L63.0476 20.6503L62.4176 20.4784L62.4319 15.4312H60.8426L60.8641 20.5858L60.8068 20.6503L60.184 20.4784V18.388C60.0408 18.4309 59.8833 18.4524 59.6972 18.4524C59.3822 18.4524 59.0886 18.3593 58.8524 18.1804L58.8381 18.1947C58.9025 18.3665 58.9025 18.5455 58.9025 18.7459C58.9025 19.5263 58.2797 20.0704 57.4921 20.0704C56.2751 20.0704 55.4303 19.0681 54.743 17.6864V17.6434L55.0795 17.4358C55.7167 18.6815 56.4326 19.333 57.2058 19.333C57.7642 19.333 58.3298 18.9106 58.3298 18.345C58.3298 17.8654 58.0362 17.5503 57.5208 17.5503C57.2559 17.5503 56.9051 17.6506 56.4827 17.8367L56.0532 17.1638L56.0675 17.1208C56.6116 16.8989 57.0984 16.7628 57.4921 16.7628C57.7714 16.5695 57.9503 16.319 57.9503 16.0183C57.9503 15.689 57.6711 15.4241 57.2845 15.4241C56.8979 15.4241 56.4398 15.6102 55.9315 15.9395L55.4948 15.2881V15.2737Z" fill="white"/>
<path d="M63.6134 14.8657L63.6564 14.8013H68.8754L69.1474 15.3454L69.1045 15.4098H67.8516V17.0779L67.8015 17.1351H66.971C65.6681 17.1351 65.0524 17.5432 65.0524 18.2806C65.0524 18.9321 65.5535 19.4332 66.3267 19.4332C66.6274 19.4332 66.9066 19.3545 67.193 19.2113C67.0426 19.0681 66.971 18.882 66.971 18.66C66.971 18.3307 67.2574 18.0086 67.6512 18.0086C67.8731 18.0086 68.0592 18.0945 68.2167 18.252C68.3885 18.4238 68.4745 18.6314 68.4745 18.8605C68.4745 19.1612 68.3098 19.4189 67.9948 19.6337C68.5818 20.1706 68.8038 20.6073 68.8038 20.9581C68.8038 21.4163 68.5317 21.7456 68.138 22.0177H68.095L67.4292 21.4807C67.8158 21.223 68.0735 20.9438 68.0735 20.593C68.0735 20.3496 67.9518 20.099 67.6798 19.827C67.3433 19.9988 67.0068 20.0489 66.656 20.0489C65.303 20.0489 64.3651 19.0108 64.3651 17.9728C64.3651 16.9347 65.1669 16.4837 66.2694 16.4837H67.0498C67.1643 16.4837 67.2216 16.4264 67.2216 16.3262V15.4098H63.8855L63.6134 14.8657Z" fill="white"/>
<path d="M68.6102 14.8657L68.6532 14.8013H73.9366L74.2087 15.3454L74.1657 15.4098H73.1491L73.1706 20.5644L73.1133 20.6288L72.4833 20.457L72.5048 17.1638C72.2328 17.1495 71.9392 17.1495 71.6314 17.1495C70.3785 17.1495 69.9132 17.579 69.9132 18.0802C69.9132 18.6529 70.4788 19.3115 71.5025 19.9272L71.0157 20.6216H70.9656C69.8846 19.6337 69.3405 18.6815 69.3405 17.8081C69.3405 16.9347 69.813 16.455 71.2663 16.455C71.703 16.455 72.111 16.455 72.512 16.4908V15.417H68.8894L68.6174 14.8729L68.6102 14.8657Z" fill="white"/>
<path d="M76.0056 14.8657L76.0486 14.8013H81.3821L81.6542 15.3454L81.6112 15.4098H80.5946L80.6161 20.5644L80.5588 20.6288L79.9288 20.457L79.9503 18.9464C79.5709 19.2256 79.1413 19.3616 78.6617 19.3616C77.6379 19.3616 76.7001 18.5527 76.7001 17.5719C76.7001 16.7128 77.4231 16.183 78.4182 16.183C78.9122 16.183 79.4277 16.2474 79.9575 16.3834V15.4098H76.2848L76.0128 14.8657H76.0056ZM77.9529 16.9776C77.5591 17.1781 77.3587 17.4931 77.3587 17.9227C77.3587 18.3737 77.6737 18.7531 78.3681 18.7531C78.6259 18.7531 78.8693 18.7102 79.0912 18.6314L77.9529 16.9848V16.9776ZM79.442 18.4524C79.7355 18.2663 79.9575 17.9656 79.9575 17.5504V16.9061C79.6281 16.8201 79.2917 16.7843 78.9695 16.7843C78.7332 16.7843 78.5185 16.7987 78.3395 16.8488L79.4348 18.4596L79.442 18.4524Z" fill="white"/>
<path d="M81.1175 14.8657L81.1605 14.8013H86.3938L86.6658 15.3454L86.6229 15.4098H85.6063L85.6349 20.5644L85.5776 20.6288L84.9405 20.457L84.962 17.5933C84.6899 17.5647 84.425 17.5504 84.1243 17.5504C83.7521 17.5504 83.4299 17.5862 83.1937 17.6578V18.0873C83.1937 18.3379 83.1722 18.5025 83.1364 18.5741C83.0505 18.7173 82.9216 18.7889 82.757 18.7889C82.5064 18.7889 81.769 18.0444 81.769 17.5504C81.769 17.3499 81.8979 17.1709 82.1699 17.0492C82.4706 16.9132 82.85 16.8703 83.2581 16.8703C83.7735 16.8703 84.3463 16.9132 84.9548 16.9776V15.417H81.3824L81.1104 14.8729L81.1175 14.8657Z" fill="white"/>
<path d="M86.1215 14.8657L86.1645 14.8013H88.6272L88.8993 15.3454L88.8563 15.4098H87.8397L87.8612 20.5644L87.8039 20.6288L87.1739 20.457L87.1882 15.4098H86.3864L86.1144 14.8657H86.1215Z" fill="white"/>
<path d="M98.3278 15.4171H97.3112L97.3327 20.5717L97.2754 20.6361L96.6454 20.4643L96.6597 15.4171H95.0704L95.0919 20.5717L95.0346 20.6361L94.4118 20.4643V18.3738C94.2686 18.4168 94.1111 18.4382 93.9249 18.4382C93.6099 18.4382 93.3164 18.3452 93.0802 18.1662L93.0658 18.1805C93.1303 18.3523 93.1303 18.5313 93.1303 18.7318C93.1303 19.5121 92.5074 20.0562 91.7199 20.0562C90.5029 20.0562 89.6581 19.0539 88.9708 17.6722V17.6293L89.3073 17.4216C89.9445 18.6673 90.6604 19.3188 91.4336 19.3188C91.992 19.3188 92.5575 18.8964 92.5575 18.3309C92.5575 17.8512 92.264 17.5362 91.7486 17.5362C91.4837 17.5362 91.1329 17.6364 90.7105 17.8226L90.2809 17.1496L90.2953 17.1066C90.8394 16.8847 91.3262 16.7487 91.7199 16.7487C91.9991 16.5554 92.1781 16.3048 92.1781 16.0041C92.1781 15.6748 91.8989 15.4099 91.5123 15.4099C91.1257 15.4099 90.6675 15.5961 90.1592 15.9254L89.7225 15.2739V15.231C90.2165 14.9016 90.689 14.7155 91.0971 14.7155C91.5982 14.7155 92.0135 14.9374 92.3499 15.3598C92.6005 15.682 92.7294 16.0328 92.7294 16.4337C92.7294 16.763 92.622 17.0207 92.4287 17.2355C92.5933 17.3429 92.7079 17.4574 92.8081 17.5648C92.9513 17.708 93.1732 17.7868 93.4954 17.7868C93.8319 17.7868 94.154 17.6937 94.4261 17.5004V15.4314H93.3451L93.073 14.8873L93.116 14.8229H96.7456C96.5953 14.4864 96.4378 14.1499 96.266 13.8063C95.9438 13.162 95.7505 12.8899 95.099 12.8899C94.7626 12.8899 94.4261 12.9472 94.0968 13.0331L94.0538 12.9973L93.7674 12.2241C94.0753 12.131 94.4332 12.0809 94.8556 12.0809C95.908 12.0809 96.13 12.761 97.1967 14.8229H98.0987L98.3708 15.367L98.3278 15.4314V15.4171Z" fill="white"/>
<defs>
<linearGradient id="paint0_linear_138_3419" x1="6.47754" y1="9.83586" x2="21.5627" y2="9.83586" gradientUnits="userSpaceOnUse">
<stop stop-color="#F2D71A"/>
<stop offset="1" stop-color="#ECB024"/>
</linearGradient>
<linearGradient id="paint1_linear_138_3419" x1="6.53723" y1="17.0242" x2="17.1299" y2="17.0242" gradientUnits="userSpaceOnUse">
<stop stop-color="#F2D71A"/>
<stop offset="1" stop-color="#ECB024"/>
</linearGradient>
<linearGradient id="paint2_linear_138_3419" x1="9.76685" y1="9.83586" x2="21.561" y2="9.83586" gradientUnits="userSpaceOnUse">
<stop stop-color="#F2D71A"/>
<stop offset="1" stop-color="#ECB024"/>
</linearGradient>
<linearGradient id="paint3_linear_138_3419" x1="13.3677" y1="6.27954" x2="17.6164" y2="6.27954" gradientUnits="userSpaceOnUse">
<stop stop-color="#F2D71A"/>
<stop offset="1" stop-color="#ECB024"/>
</linearGradient>
<linearGradient id="paint4_linear_138_3419" x1="6.47754" y1="10.7073" x2="9.77212" y2="10.7073" gradientUnits="userSpaceOnUse">
<stop stop-color="#F2D71A"/>
<stop offset="1" stop-color="#ECB024"/>
</linearGradient>
<linearGradient id="paint5_linear_138_3419" x1="1.02368" y1="10.5" x2="17.3015" y2="10.5" gradientUnits="userSpaceOnUse">
<stop stop-color="#F2D71A"/>
<stop offset="1" stop-color="#ECB024"/>
</linearGradient>
<linearGradient id="paint6_linear_138_3419" x1="0.882446" y1="10.4978" x2="17.1294" y2="10.4978" gradientUnits="userSpaceOnUse">
<stop stop-color="#F2D71A"/>
<stop offset="1" stop-color="#ECB024"/>
</linearGradient>
</defs>
</svg>
