<svg width="32" height="26" viewBox="0 0 32 26" fill="none" xmlns="http://www.w3.org/2000/svg">
<g filter="url(#filter0_b_0_2611)">
<rect width="32" height="26" rx="4" fill="#464965" fill-opacity="0.21"/>
<rect x="0.5" y="0.5" width="31" height="25" rx="3.5" stroke="white" stroke-opacity="0.07"/>
</g>
<path d="M20.6088 8.82314H14.651C14.4872 8.34526 14.0271 8 13.4861 8C12.9451 8 12.4849 8.34526 12.3211 8.82314H11.3912C11.1751 8.82314 11 8.99518 11 9.20739C11 9.4196 11.1751 9.59164 11.3912 9.59164H12.3212C12.485 10.0695 12.9451 10.4148 13.4861 10.4148C14.0271 10.4148 14.4873 10.0695 14.6511 9.59164H20.6088C20.8249 9.59164 21 9.4196 21 9.20739C21 8.99518 20.8249 8.82314 20.6088 8.82314ZM13.4861 9.64628C13.2397 9.64628 13.0393 9.44939 13.0393 9.20739C13.0393 8.96539 13.2397 8.7685 13.4861 8.7685C13.7324 8.7685 13.9329 8.96539 13.9329 9.20739C13.9329 9.44939 13.7324 9.64628 13.4861 9.64628Z" fill="#828FA4"/>
<path d="M20.6088 12.1157H19.6788C19.515 11.6379 19.0549 11.2926 18.5139 11.2926C17.9729 11.2926 17.5127 11.6379 17.3489 12.1157H11.3912C11.1751 12.1157 11 12.2878 11 12.5C11 12.7122 11.1751 12.8842 11.3912 12.8842H17.3489C17.5127 13.3621 17.9729 13.7074 18.5139 13.7074C19.0549 13.7074 19.515 13.3621 19.6788 12.8842H20.6088C20.8249 12.8842 21 12.7122 21 12.5C21 12.2878 20.8249 12.1157 20.6088 12.1157ZM18.5139 12.9389C18.2675 12.9389 18.0671 12.742 18.0671 12.5C18.0671 12.258 18.2675 12.0611 18.5139 12.0611C18.7603 12.0611 18.9607 12.258 18.9607 12.5C18.9607 12.742 18.7603 12.9389 18.5139 12.9389Z" fill="#828FA4"/>
<path d="M20.6088 15.4085H16.327C16.1632 14.9306 15.703 14.5853 15.162 14.5853C14.621 14.5853 14.1609 14.9306 13.9971 15.4085H11.3912C11.1751 15.4085 11 15.5805 11 15.7927C11 16.0049 11.1751 16.177 11.3912 16.177H13.9971C14.1609 16.6548 14.621 17.0001 15.162 17.0001C15.703 17.0001 16.1632 16.6548 16.327 16.177H20.6088C20.8249 16.177 21 16.0049 21 15.7927C21 15.5805 20.8249 15.4085 20.6088 15.4085ZM15.162 16.2316C14.9157 16.2316 14.7152 16.0347 14.7152 15.7927C14.7152 15.5507 14.9157 15.3539 15.162 15.3539C15.4084 15.3539 15.6088 15.5507 15.6088 15.7927C15.6088 16.0347 15.4084 16.2316 15.162 16.2316Z" fill="#828FA4"/>
<defs>
<filter id="filter0_b_0_2611" x="-5.2" y="-5.2" width="42.4" height="36.4" filterUnits="userSpaceOnUse" color-interpolation-filters="sRGB">
<feFlood flood-opacity="0" result="BackgroundImageFix"/>
<feGaussianBlur in="BackgroundImageFix" stdDeviation="2.6"/>
<feComposite in2="SourceAlpha" operator="in" result="effect1_backgroundBlur_0_2611"/>
<feBlend mode="normal" in="SourceGraphic" in2="effect1_backgroundBlur_0_2611" result="shape"/>
</filter>
</defs>
</svg>
