<svg width="13" height="14" viewBox="0 0 13 14" fill="none" xmlns="http://www.w3.org/2000/svg">
<path id="Vector" fill-rule="evenodd" clip-rule="evenodd" d="M6.19775 1.0339C6.24614 0.927318 6.26485 0.809647 6.2519 0.693312C6.23895 0.576978 6.19483 0.466298 6.1242 0.37296C6.05356 0.279622 5.95903 0.207091 5.85059 0.163024C5.74215 0.118958 5.62382 0.104992 5.5081 0.122602C2.38875 0.601002 0 3.2946 0 6.5472C0 10.1372 2.91005 13.0472 6.5 13.0472C10.0899 13.0472 13 10.1372 13 6.5472C12.9999 6.48653 12.9991 6.42585 12.9974 6.3652C12.9942 6.24801 12.9593 6.13388 12.8965 6.03489C12.8336 5.93591 12.7452 5.85576 12.6406 5.80293C12.5359 5.7501 12.4189 5.72656 12.3019 5.7348C12.185 5.74305 12.0725 5.78277 11.9762 5.84975C11.275 6.33814 10.4327 6.58267 9.57889 6.54574C8.72509 6.50881 7.90707 6.19246 7.25058 5.64534C6.59409 5.09821 6.13548 4.3506 5.94526 3.51745C5.75505 2.6843 5.84376 1.81173 6.19775 1.0339Z" fill="white"/>
</svg>
