<svg width="17" height="17" viewBox="0 0 17 17" fill="none" xmlns="http://www.w3.org/2000/svg">
<g id="Group 48097812">
<path id="Vector" d="M1.77857 -1.52588e-05C0.922352 -1.52588e-05 0.228149 0.694188 0.228149 1.55041V5.42647C0.228149 6.28269 0.922352 6.9769 1.77857 6.9769H5.65464C6.51086 6.9769 7.20506 6.28269 7.20506 5.42647V1.55041C7.20506 0.694188 6.51086 -1.52588e-05 5.65464 -1.52588e-05H1.77857Z" fill="white"/>
<path id="Vector_2" d="M1.77857 9.3024C0.922352 9.3024 0.228149 9.9966 0.228149 10.8528V14.7289C0.228149 15.5851 0.922352 16.2793 1.77857 16.2793H5.65464C6.51086 16.2793 7.20506 15.5851 7.20506 14.7289V10.8528C7.20506 9.9966 6.51086 9.3024 5.65464 9.3024H1.77857Z" fill="white"/>
<path id="Vector_3" d="M11.0811 -3.05176e-05C10.2248 -3.05176e-05 9.53064 0.694172 9.53064 1.55039V5.42646C9.53064 6.28268 10.2248 6.97688 11.0811 6.97688H14.9571C15.8133 6.97688 16.5076 6.28268 16.5076 5.42646V1.55039C16.5076 0.694172 15.8133 -3.05176e-05 14.9571 -3.05176e-05H11.0811Z" fill="white"/>
<path id="Vector_4" d="M11.0811 9.3024C10.2248 9.3024 9.53064 9.9966 9.53064 10.8528V14.7289C9.53064 15.5851 10.2248 16.2793 11.0811 16.2793H14.9571C15.8133 16.2793 16.5076 15.5851 16.5076 14.7289V10.8528C16.5076 9.9966 15.8133 9.3024 14.9571 9.3024H11.0811Z" fill="white"/>
</g>
</svg>
