<svg width="72" height="32" viewBox="0 0 72 32" fill="none" xmlns="http://www.w3.org/2000/svg">
<g id="Group 48097828">
<g id="layer1">
<g id="g52">
<path id="path54" d="M64.7973 12.3611C64.2717 10.855 62.8363 9.77618 61.1519 9.77618H61.1181C60.0239 9.77618 59.0342 10.2311 58.3334 10.9626C57.6295 10.2311 56.6429 9.77618 55.5486 9.77618H55.5148C54.5528 9.77618 53.6706 10.1297 52.9944 10.7136V10.4155C52.9698 10.1204 52.727 9.88684 52.4289 9.88684H49.8439C49.5273 9.88684 49.2722 10.1419 49.2722 10.4585V24.4959C49.2722 24.8125 49.5273 25.0676 49.8439 25.0676H52.4289C52.7178 25.0676 52.9545 24.8525 52.9914 24.5728V14.4973C52.9914 14.4635 52.9914 14.4297 52.9944 14.3959C53.0344 13.9471 53.3663 13.5752 53.8858 13.5291H54.3622C54.5804 13.5476 54.7649 13.6244 54.9093 13.7412C55.1337 13.9195 55.2597 14.1961 55.2597 14.4973L55.2689 24.5236C55.2689 24.8402 55.5241 25.0984 55.8406 25.0984H58.4256C58.7299 25.0984 58.9788 24.8555 58.9942 24.5513V14.482C58.9942 14.15 59.1448 13.8519 59.4122 13.6736C59.5444 13.5875 59.7042 13.5322 59.8886 13.5138H60.3651C60.9245 13.5629 61.2626 13.9871 61.2626 14.4789L61.2718 24.4929C61.2718 24.8094 61.5269 25.0646 61.8435 25.0646H64.4284C64.7419 25.0646 65.0001 24.8094 65.0001 24.4929V13.7289C65.0001 12.9943 64.9171 12.6808 64.8034 12.3611" fill="#828FA4"/>
</g>
<g id="g56">
<path id="path58" d="M47.2991 9.92299H45.8207V7.52861V7.52246C45.8207 7.23354 45.5871 6.99994 45.2981 6.99994C45.2643 6.99994 45.2305 7.00609 45.1998 7.01223C43.5615 7.46099 43.8904 9.73242 40.8967 9.92606H40.6047C40.5616 9.92606 40.5186 9.93221 40.4786 9.94143C40.2235 9.99983 40.0299 10.2273 40.0299 10.4978V13.0827C40.0299 13.3962 40.285 13.6544 40.6016 13.6544H42.1599V24.6151C42.1599 24.9286 42.4089 25.1806 42.7224 25.1806H45.2766C45.5871 25.1806 45.8422 24.9286 45.8422 24.6151V13.6513H47.2899C47.6034 13.6513 47.8616 13.3962 47.8616 13.0796V10.4947C47.8616 10.1812 47.6065 9.92299 47.2899 9.92299" fill="#828FA4"/>
</g>
<g id="g60">
<path id="path62" d="M38.0011 9.92395H35.4162C35.1027 9.92395 34.8445 10.1791 34.8445 10.4957V15.8407C34.8383 16.1727 34.5709 16.437 34.239 16.437H33.157C32.822 16.437 32.5515 16.1665 32.5515 15.8315L32.5423 10.4957C32.5423 10.1821 32.2872 9.92395 31.9706 9.92395H29.3857C29.0691 9.92395 28.814 10.1791 28.814 10.4957V16.354C28.814 18.5794 30.4 20.1654 32.6253 20.1654C32.6253 20.1654 34.2943 20.1654 34.3465 20.1746C34.6478 20.2084 34.8814 20.4605 34.8814 20.774C34.8814 21.0875 34.6508 21.3334 34.3527 21.3703C34.3373 21.3703 34.325 21.3764 34.3097 21.3795L30.5291 21.3918C30.2125 21.3918 29.9574 21.6469 29.9574 21.9635V24.5484C29.9574 24.865 30.2125 25.1201 30.5291 25.1201H34.7554C36.9838 25.1201 38.5667 23.5341 38.5667 21.3088V10.4957C38.5667 10.1821 38.3116 9.92395 37.995 9.92395" fill="#828FA4"/>
</g>
<g id="g64">
<path id="path66" d="M12.9813 14.6604V16.2556C12.9813 16.5907 12.7109 16.8612 12.3758 16.8612H10.7345V13.6676H12.3758C12.7109 13.6676 12.9813 13.9381 12.9813 14.2731V14.6604ZM13.2088 9.92391H7.55941C7.24897 9.92391 7 10.176 7 10.4833V13.016C7 13.016 7 13.0252 7 13.0314C7 13.0437 7 13.056 7 13.0652V24.5269C7 24.8373 7.2336 25.0924 7.52253 25.0986H10.1567C10.4702 25.0986 10.7283 24.8434 10.7283 24.5269L10.7376 20.5987H13.2119C15.2804 20.5987 16.722 19.1633 16.722 17.0855V13.4402C16.722 11.3624 15.2804 9.92084 13.2119 9.92084" fill="#828FA4"/>
</g>
<g id="g68">
<path id="path70" d="M23.7057 20.7285V21.1312C23.7057 21.165 23.6995 21.1957 23.6964 21.2265C23.6903 21.2541 23.6811 21.2849 23.6719 21.3095C23.5919 21.5369 23.3645 21.6998 23.0971 21.6998H22.0213C21.6863 21.6998 21.4127 21.4447 21.4127 21.1312V20.6425C21.4127 20.6425 21.4127 20.6302 21.4127 20.624V19.327V18.9243C21.4127 18.6077 21.6863 18.3557 22.0213 18.3557H23.0971C23.4352 18.3557 23.7057 18.6108 23.7057 18.9243V20.7285ZM23.2938 9.94H19.7068C19.3902 9.94 19.1321 10.1797 19.1321 10.4748V11.4799C19.1321 11.4799 19.1321 11.4922 19.1321 11.4983C19.1321 11.5045 19.1321 11.5137 19.1321 11.5199V12.8969C19.1321 13.2104 19.4056 13.4655 19.7407 13.4655H23.1555C23.426 13.5085 23.638 13.7052 23.6688 14.0126V14.3446C23.638 14.6366 23.426 14.8517 23.1678 14.8763H21.4773C19.2273 14.8763 17.626 16.3701 17.626 18.4694V21.4754C17.626 23.5625 19.003 25.047 21.2375 25.047H25.9249C26.767 25.047 27.4494 24.4108 27.4494 23.627V13.819C27.4494 11.4399 26.223 9.94 23.2938 9.94Z" fill="#828FA4"/>
</g>
</g>
</g>
</svg>
