<svg width="72" height="32" viewBox="0 0 72 32" fill="none" xmlns="http://www.w3.org/2000/svg">
<g id="Group 48097829">
<g id="Group 48097003">
<path id="Vector" d="M49.238 21.3236V18.0139C49.238 17.1993 48.9248 16.792 48.142 16.792C47.8288 16.792 47.4636 16.843 47.2547 16.8938V21.7309C47.2547 21.8837 47.0981 22.0364 46.9415 22.0364H45.7409C45.5843 22.0364 45.4277 21.8837 45.4277 21.7309V16.0792C45.4277 15.8754 45.5843 15.7229 45.7409 15.6719C46.5239 15.4174 47.3067 15.2646 48.1418 15.2646C50.0208 15.2646 51.0648 16.232 51.0648 18.0142V21.7819C51.0648 21.9347 50.9082 22.0875 50.7515 22.0875H50.0208C49.5513 22.0872 49.238 21.7309 49.238 21.3236ZM53.9357 19.3378L53.8834 19.7962C53.8834 20.4072 54.301 20.7635 54.9794 20.7635C55.5013 20.7635 55.9711 20.6108 56.4932 20.3562C56.5455 20.3562 56.5975 20.3052 56.6498 20.3052C56.7541 20.3052 56.8064 20.3562 56.8587 20.407C56.911 20.458 57.0153 20.6108 57.0153 20.6108C57.1196 20.7635 57.2242 20.967 57.2242 21.1198C57.2242 21.3743 57.0676 21.6289 56.859 21.7309C56.2849 22.0364 55.6064 22.1892 54.8757 22.1892C54.0406 22.1892 53.3619 21.9854 52.84 21.5781C52.3182 21.1198 52.005 20.509 52.005 19.7451V17.7594C52.005 16.1809 53.0489 15.2136 54.8236 15.2136C56.5461 15.2136 57.5377 16.1302 57.5377 17.7594V18.9813C57.5377 19.1341 57.3811 19.2868 57.2245 19.2868H53.9363L53.9357 19.3378ZM53.8834 18.2177H55.8668V17.7087C55.8668 17.0976 55.5015 16.6903 54.8751 16.6903C54.2487 16.6903 53.8834 17.0466 53.8834 17.7087V18.2177ZM67.1935 19.3378L67.1412 19.7962C67.1412 20.4072 67.5587 20.7635 68.2372 20.7635C68.759 20.7635 69.2289 20.6108 69.751 20.3562C69.8033 20.3562 69.8553 20.3052 69.9076 20.3052C70.0119 20.3052 70.0642 20.3562 70.1165 20.407C70.1688 20.458 70.2731 20.6108 70.2731 20.6108C70.3774 20.7635 70.482 20.967 70.482 21.1198C70.482 21.3743 70.3254 21.6289 70.1168 21.7309C69.5426 22.0364 68.8642 22.1892 68.1334 22.1892C67.2984 22.1892 66.6196 21.9854 66.0978 21.5781C65.576 21.1198 65.2627 20.509 65.2627 19.7451V17.7594C65.2627 16.1809 66.3067 15.2136 68.0814 15.2136C69.8038 15.2136 70.7955 16.1302 70.7955 17.7594V18.9813C70.7955 19.1341 70.6389 19.2868 70.4823 19.2868H67.194V19.3378H67.1935ZM67.1412 18.2177H69.1245V17.7087C69.1245 17.0976 68.7593 16.6903 68.1329 16.6903C67.5064 16.6903 67.1412 17.0466 67.1412 17.7087V18.2177ZM36.4501 22.0872H37.1808C37.3374 22.0872 37.4941 21.9344 37.4941 21.7816V18.0139C37.4941 16.2827 36.5544 15.2643 34.9886 15.2643C34.5188 15.2643 33.9969 15.3661 33.6837 15.4681V13.5841C33.6837 13.1768 33.3185 12.8203 32.9007 12.8203H32.1699C32.0133 12.8203 31.8567 12.973 31.8567 13.1258V21.7816C31.8567 21.9344 32.0133 22.0872 32.1699 22.0872H33.3705C33.5271 22.0872 33.6837 21.9344 33.6837 21.7816V16.9955C33.9446 16.8938 34.3101 16.8428 34.5711 16.8428C35.3541 16.8428 35.6671 17.1991 35.6671 18.0647V21.3743C35.7193 21.7309 36.0326 22.0872 36.4501 22.0872ZM44.3317 17.8101V19.6941C44.3317 21.2726 43.2357 22.24 41.4087 22.24C39.634 22.24 38.4857 21.2726 38.4857 19.6941V17.8101C38.4857 16.2317 39.5817 15.2643 41.4087 15.2643C43.2357 15.2643 44.3317 16.232 44.3317 17.8101ZM42.505 17.8101C42.505 17.1991 42.1397 16.7918 41.461 16.7918C40.7823 16.7918 40.417 17.148 40.417 17.8101V19.6941C40.417 20.3052 40.7823 20.6615 41.461 20.6615C42.1397 20.6615 42.505 20.3052 42.505 19.6941V17.8101ZM30.8653 16.9448C30.8653 18.5743 29.6127 19.6944 27.9423 19.6944C27.5248 19.6944 27.1593 19.6434 26.794 19.4906V21.7819C26.794 21.9347 26.6374 22.0875 26.4808 22.0875H25.2803C25.1236 22.0875 24.967 21.9347 24.967 21.7819V13.6861C24.967 13.4823 25.1236 13.3298 25.2803 13.2788C26.0633 13.0243 26.8461 12.8715 27.6811 12.8715C29.5602 12.8715 30.865 13.9917 30.865 15.7229C30.8653 15.7226 30.8653 16.9448 30.8653 16.9448ZM28.9863 15.6209C28.9863 14.8063 28.4121 14.399 27.6291 14.399C27.1593 14.399 26.8461 14.5517 26.8461 14.5517V17.9122C27.1593 18.0649 27.3159 18.116 27.6811 18.116C28.4642 18.116 29.0383 17.6576 29.0383 16.8941V15.6211H28.9863V15.6209ZM64.5837 16.9448C64.5837 18.5743 63.3311 19.6944 61.6607 19.6944C61.2432 19.6944 60.8777 19.6434 60.5125 19.4906V21.7819C60.5125 21.9347 60.3559 22.0875 60.1992 22.0875H58.9987C58.8421 22.0875 58.6855 21.9347 58.6855 21.7819V13.6861C58.6855 13.4823 58.8421 13.3298 58.9987 13.2788C59.7817 13.0243 60.5645 12.8715 61.3995 12.8715C63.2786 12.8715 64.5835 13.9917 64.5835 15.7229C64.5837 15.7226 64.5837 16.9448 64.5837 16.9448ZM62.7047 15.6209C62.7047 14.8063 62.1306 14.399 61.3475 14.399C60.8777 14.399 60.5645 14.5517 60.5645 14.5517V17.9122C60.8777 18.0649 61.0343 18.116 61.3995 18.116C62.1826 18.116 62.7567 17.6576 62.7567 16.8941V15.6211H62.7047V15.6209Z" fill="#828FA4"/>
<path id="Subtract" fill-rule="evenodd" clip-rule="evenodd" d="M20.6277 16.1022C20.6277 21.1292 16.4578 25.2044 11.3139 25.2044C6.16996 25.2044 2 21.1292 2 16.1022C2 11.0752 6.16996 7 11.3139 7C16.4578 7 20.6277 11.0752 20.6277 16.1022ZM14.8675 13.0707C15.2334 13.0707 15.5473 13.3744 15.5473 13.7286V14.2349C15.5473 14.3867 15.4427 14.4879 15.2858 14.4879H14.0829V21.7258C14.0829 21.8776 13.926 22.0295 13.7691 22.0295H13.0369C12.5662 22.0295 12.2003 21.6753 12.2003 21.2197V19.6C11.6774 19.8023 11.2588 19.853 10.7359 19.853C9.06229 19.853 8.06869 18.7899 8.06869 16.9679V14.5383H7.33653C6.97058 14.5383 6.65676 14.2346 6.65676 13.8804V13.3744C6.65676 13.2225 6.76127 13.1214 6.91818 13.1214H11.6777L8.53998 10.2363C8.43519 10.1351 8.48758 9.93282 8.6445 9.88211L9.63809 9.57838C10.0564 9.47723 10.4748 9.57838 10.7362 9.88211L13.6125 13.0707H14.8675ZM11.1543 18.2839C11.4681 18.2839 11.8864 18.2332 12.2003 18.0813V14.5383H9.89924V16.9679C9.89924 17.879 10.3176 18.2839 11.1543 18.2839Z" fill="#828FA4"/>
</g>
</g>
</svg>
