<svg width="14" height="14" viewBox="0 0 14 14" fill="none" xmlns="http://www.w3.org/2000/svg">
<g id="Group">
<g id="Group 48097846">
<g id="Group 48098123">
<path id="Vector" d="M2.83088 7.60291H0.404412C0.181069 7.60291 0 7.78397 0 8.00732V13.3995C0 13.6228 0.181069 13.8039 0.404412 13.8039H2.83088C3.05423 13.8039 3.23529 13.6228 3.23529 13.3995V8.00732C3.23529 7.78397 3.05423 7.60291 2.83088 7.60291Z" fill="white"/>
<path id="Vector_2" d="M13.1242 8.1144C12.7176 7.92853 12.2384 8.01488 11.9223 8.33103C11.5423 8.71104 11.0165 9.23691 10.5529 9.70061C10.5485 10.7007 9.73379 11.513 8.73274 11.513H6.65926C6.43592 11.513 6.25485 11.3319 6.25485 11.1086C6.25485 10.8852 6.43592 10.7042 6.65926 10.7042H8.73276C9.29136 10.7042 9.74423 10.2513 9.74423 9.69271C9.74423 9.13397 9.29126 8.68106 8.73252 8.68114L7.29397 8.68133C6.29165 8.1058 5.10125 8.02332 4.04407 8.43501V12.863C4.98972 13.083 5.95901 13.1946 6.92855 13.1946C7.86064 13.1946 8.79523 13.0912 9.70659 12.8874C10.2801 12.7589 10.8031 12.4717 11.2192 12.0568L13.4353 9.84584C13.9641 9.31825 13.8036 8.42493 13.1242 8.1144Z" fill="white"/>
<path id="Vector_3" d="M4.68015 6.30804L5.01317 6.11576C5.2151 6.26887 5.432 6.39505 5.66211 6.49321V6.875C5.66211 7.09834 5.84318 7.27941 6.06652 7.27941H7.68417C7.90751 7.27941 8.08858 7.09834 8.08858 6.875V6.49321C8.31869 6.39505 8.53559 6.26887 8.73753 6.11576L9.07055 6.30804C9.26397 6.41971 9.5113 6.35344 9.62298 6.16003L10.4318 4.75909C10.5435 4.56567 10.4772 4.31834 10.2838 4.20667L9.95217 4.01519C9.96794 3.88926 9.97586 3.76373 9.97586 3.63971C9.97586 3.51569 9.96794 3.39016 9.95222 3.26422L10.2838 3.07275C10.4773 2.96108 10.5435 2.71374 10.4319 2.52032L9.62303 1.11939C9.51136 0.925968 9.26402 0.859672 9.0706 0.97137L8.73756 1.16363C8.53567 1.01054 8.31872 0.884341 8.08861 0.786177V0.404412C8.08861 0.181069 7.90754 0 7.6842 0H6.06655C5.84321 0 5.66214 0.181069 5.66214 0.404412V0.786177C5.43203 0.884341 5.21507 1.01054 5.01319 1.16363L4.68017 0.971343C4.48676 0.859672 4.23942 0.925941 4.12775 1.11936L3.31892 2.52029C3.20725 2.71371 3.27352 2.96105 3.46694 3.07272L3.79856 3.2642C3.78281 3.39016 3.77488 3.51569 3.77488 3.63971C3.77488 3.76373 3.78281 3.88926 3.79853 4.01519L3.46691 4.20667C3.27349 4.31834 3.20722 4.56567 3.3189 4.75909L4.12772 6.16003C4.23939 6.35347 4.48673 6.41974 4.68015 6.30804ZM6.87537 2.42647C7.54435 2.42647 8.08861 2.97073 8.08861 3.63971C8.08861 4.30868 7.54435 4.85294 6.87537 4.85294C6.2064 4.85294 5.66214 4.30868 5.66214 3.63971C5.66214 2.97073 6.2064 2.42647 6.87537 2.42647Z" fill="white"/>
</g>
</g>
</g>
</svg>
