<svg width="10" height="10" viewBox="0 0 10 10" fill="none" xmlns="http://www.w3.org/2000/svg">
<path id="Vector" d="M4.43044 0C6.87605 0 8.86088 1.98484 8.86088 4.43044C8.86088 6.87605 6.87605 8.86088 4.43044 8.86088C1.98484 8.86088 0 6.87605 0 4.43044C0 1.98484 1.98484 0 4.43044 0ZM4.43044 7.87634C6.33406 7.87634 7.87634 6.33406 7.87634 4.43044C7.87634 2.52683 6.33406 0.984543 4.43044 0.984543C2.52683 0.984543 0.984543 2.52683 0.984543 4.43044C0.984543 6.33406 2.52683 7.87634 4.43044 7.87634ZM8.60736 7.91129L10 9.30344L9.30344 10L7.91129 8.60736L8.60736 7.91129Z" fill="#828FA4"/>
</svg>
