<svg width="33" height="32" viewBox="0 0 33 32" fill="none" xmlns="http://www.w3.org/2000/svg">
<path id="Vector" d="M16.9554 0.0058143C25.1702 -0.0955523 32.8619 6.54599 32.8903 15.892C32.9186 25.2096 25.2918 31.9566 16.8703 31.9079C8.09598 31.8593 0.935451 24.7068 0.959779 15.9001C0.984107 6.95145 8.38385 -0.11988 16.9554 0.00175964V0.0058143ZM21.9873 12.2996C21.9751 11.2453 21.9062 10.3776 21.4723 9.57888C20.3127 7.45423 17.7258 6.46895 15.2038 7.25555C13.3346 7.83943 12.179 9.08421 11.8749 11.0791C11.729 12.0279 11.8992 12.9524 11.9155 13.889C11.9236 14.5012 11.6965 14.7161 11.1005 14.631C10.8086 14.5904 10.5247 14.4769 10.2409 14.3918C9.90435 14.2904 9.62459 14.4039 9.46646 14.6837C9.284 15.0202 9.56782 15.2067 9.81515 15.3243C10.1963 15.5108 10.6099 15.6365 10.9991 15.8109C11.7736 16.1637 11.956 16.6543 11.587 17.4125C10.8045 19.01 9.67325 20.2345 7.90542 20.7454C7.74323 20.7941 7.53237 20.8103 7.50399 21.009C7.47155 21.2441 7.69456 21.3252 7.8608 21.4063C8.30276 21.6253 8.78122 21.755 9.26778 21.8199C9.77462 21.8888 10.0909 22.1078 10.1598 22.6471C10.2044 22.9876 10.3342 23.2593 10.7923 23.1417C12.2317 22.7646 13.4481 23.1904 14.6159 24.0702C16.0107 25.1245 17.7137 25.1366 19.1531 24.0946C20.3046 23.2593 21.4764 22.7646 22.9077 23.1012C23.305 23.1944 23.5889 23.0525 23.6416 22.6187C23.7105 22.0672 24.0673 21.8848 24.562 21.8199C25.0485 21.755 25.527 21.6253 25.9649 21.3982C26.1149 21.3212 26.2974 21.2441 26.2974 21.0414C26.2974 20.8225 26.0946 20.7941 25.9324 20.7495C24.1241 20.2589 22.9928 19.01 22.1981 17.3922C21.8454 16.6705 22.0237 16.1718 22.7617 15.8312C23.1307 15.6609 23.524 15.5514 23.8889 15.377C24.1525 15.2514 24.4971 15.0811 24.3349 14.7161C24.1808 14.3674 23.8321 14.2782 23.4591 14.3837C23.232 14.4485 23.0171 14.5458 22.786 14.5904C22.0967 14.7283 21.8575 14.5418 21.8778 13.8525C21.8981 13.2767 21.9589 12.705 21.9873 12.2996Z" fill="white"/>
</svg>
