<svg width="18" height="22" viewBox="0 0 18 22" fill="none" xmlns="http://www.w3.org/2000/svg">
<g id="Group 48096964">
<path id="Vector" d="M17.0934 21.6734H2.66159C2.64315 21.6671 2.62472 21.6578 2.60322 21.6516C1.25465 21.3254 0.480531 20.3314 0.480531 18.9272C0.480531 13.6928 0.489747 8.45532 0.474387 3.21781C0.468243 1.61798 1.74923 0.471694 3.16845 0.481013C7.69337 0.505865 12.2152 0.490333 16.7401 0.490333C17.2962 0.490333 17.5173 0.713999 17.5173 1.28248C17.5173 7.8216 17.5173 14.3607 17.5204 20.8998C17.5204 21.254 17.4098 21.5149 17.0934 21.6765V21.6734ZM9.50887 17.7157C7.69644 17.7157 5.88402 17.7157 4.07159 17.7157C3.73675 17.7157 3.40499 17.7126 3.07015 17.7157C2.124 17.7344 1.49426 18.6943 1.86596 19.5734C2.11786 20.1729 2.60936 20.4121 3.22374 20.4121C7.47526 20.4121 11.7237 20.4121 15.9752 20.4183C16.1718 20.4183 16.2394 20.3531 16.2363 20.1543C16.2302 19.446 16.2363 18.7346 16.2363 18.0264C16.2363 17.7219 16.2302 17.7126 15.9261 17.7126C13.788 17.7126 11.6469 17.7126 9.50887 17.7126V17.7157ZM9.01122 4.52564C8.94978 4.52564 8.88834 4.52564 8.8269 4.52564C7.58585 4.52564 6.34787 4.52564 5.10682 4.52564C4.72898 4.52564 4.47708 4.76173 4.47401 5.10655C4.47094 5.45758 4.72591 5.69678 5.11297 5.70299C5.16212 5.70299 5.2082 5.70299 5.25735 5.70299C7.75174 5.70299 10.2431 5.70299 12.7374 5.70299C12.8265 5.70299 12.9156 5.7061 13.0016 5.69678C13.3119 5.66571 13.5331 5.40166 13.5208 5.08791C13.5085 4.75552 13.2597 4.52874 12.891 4.52564C11.5978 4.52564 10.3014 4.52564 9.00815 4.52564H9.01122Z" fill="white"/>
</g>
</svg>
