<svg width="33" height="32" viewBox="0 0 33 32" fill="none" xmlns="http://www.w3.org/2000/svg">
<path id="Vector" d="M16.6094 0.407094C25.1282 0.277345 32.305 7.46626 32.2806 16.0865C32.2604 24.6864 25.0836 31.7334 16.5931 31.7172C7.98915 31.6969 0.909693 24.5161 0.946185 15.9811C0.982677 7.51087 8.03374 0.305728 16.6053 0.407094H16.6094ZM11.3748 17.4772C11.018 17.7367 10.7058 17.6759 10.4219 17.6719C10.0205 17.6637 9.96376 17.7975 10.1503 18.1381C10.649 19.0464 11.4153 19.5938 12.3966 19.8857C12.6317 19.9546 13.0291 19.8127 13.0615 20.129C13.0859 20.3723 12.7088 20.4777 12.4939 20.6196C12.3763 20.6966 12.2465 20.7575 12.1208 20.8264C10.9734 21.4346 9.7367 21.686 8.43515 21.7022C8.50003 21.8968 8.65816 21.9211 8.77574 21.982C11.2531 23.2227 13.8279 23.4214 16.4675 22.6348C20.5262 21.4224 23.4618 17.4732 23.5145 13.1631C23.5226 12.6481 23.6442 12.2751 24.078 11.9791C24.4592 11.7156 24.7592 11.3547 25.0431 10.9087C24.4754 10.9492 24.0091 11.2858 23.4009 11.1438C23.851 10.6289 24.4186 10.268 24.597 9.53009C24.0537 9.71255 23.5753 9.86257 23.1049 10.0288C22.7846 10.1423 22.5373 10.0815 22.2656 9.86257C21.0776 8.90162 19.7598 8.71916 18.3975 9.40845C17.0797 10.0734 16.4634 11.2006 16.4999 12.6887C16.5201 13.3901 16.4228 13.4631 15.7376 13.3658C13.2602 13.009 11.1356 11.9548 9.44071 10.0937C9.13661 9.7612 8.99876 9.82608 8.88523 10.2113C8.47165 11.6101 8.71492 12.8549 9.72859 13.9335C9.85023 14.0632 10.1057 14.124 10.0327 14.3957C9.55019 14.4849 9.13662 14.2011 8.646 14.1281C8.79602 15.8594 9.76103 16.8852 11.3748 17.4813V17.4772Z" fill="white"/>
</svg>
