<svg width="72" height="32" viewBox="0 0 72 32" fill="none" xmlns="http://www.w3.org/2000/svg">
<g id="Group 48097827">
<g id="g24">
<g id="g30">
<path id="path32" d="M6.48504 23.1473H6.93098L6.51335 24.8851C6.45318 25.1434 6.4638 25.3381 6.54874 25.4655C6.63369 25.5964 6.79295 25.6602 7.023 25.6602C7.25305 25.6602 7.44063 25.5964 7.58928 25.4655C7.73792 25.3345 7.84056 25.1434 7.90427 24.8851L8.31836 23.1473H8.77138L8.34667 24.9275C8.25465 25.3133 8.0883 25.6035 7.85118 25.7946C7.61405 25.9858 7.30614 26.0813 6.92036 26.0813C6.53459 26.0813 6.27268 25.9858 6.13111 25.7946C5.98601 25.6035 5.96123 25.3133 6.05679 24.924L6.4815 23.1438L6.48504 23.1473Z" fill="#828FA4"/>
</g>
<g id="g34">
<path id="path36" d="M8.71472 26.0098L9.42611 23.0368L10.7781 24.7852C10.8135 24.8347 10.8524 24.8878 10.8878 24.9444C10.9232 25.0011 10.9621 25.0648 10.9975 25.1356L11.4718 23.1536H11.8894L11.178 26.1265L9.79772 24.3463C9.76233 24.2968 9.72694 24.2472 9.69509 24.1941C9.66323 24.141 9.63492 24.0844 9.6066 24.0278L9.12881 26.0168H8.71118L8.71472 26.0098Z" fill="#828FA4"/>
</g>
<g id="g38">
<path id="path40" d="M11.8544 26.0083L12.541 23.1486H12.994L12.3109 26.0083H11.8579H11.8544Z" fill="#828FA4"/>
</g>
<g id="g42">
<path id="path44" d="M12.9584 26.0083L13.645 23.1486H15.2022L15.1067 23.545H14.0024L13.8326 24.2599H14.9368L14.8377 24.6669H13.7335L13.4114 26.0118H12.9584V26.0083Z" fill="#828FA4"/>
</g>
<g id="g46">
<path id="path48" d="M15.0144 26.0083L15.701 23.1486H16.154L15.471 26.0083H15.0179H15.0144Z" fill="#828FA4"/>
</g>
<g id="g50">
<path id="path52" d="M16.1189 26.0083L16.8055 23.1486H18.3628L18.2672 23.545H17.163L16.9895 24.2634H18.0938L17.9947 24.6704H16.8904L16.6675 25.5942H17.7717L17.6726 26.0118H16.1154L16.1189 26.0083Z" fill="#828FA4"/>
</g>
<g id="g54">
<path id="path56" d="M18.7485 25.5871H19.1308C19.3396 25.5871 19.5024 25.5729 19.6121 25.5446C19.7254 25.5163 19.828 25.4668 19.92 25.3995C20.0474 25.3075 20.1536 25.1907 20.2385 25.0562C20.3235 24.9182 20.3872 24.7589 20.4332 24.5749C20.4757 24.3908 20.4898 24.2316 20.4686 24.0971C20.4474 23.959 20.3978 23.8458 20.3129 23.7502C20.2492 23.683 20.1678 23.6334 20.0651 23.6051C19.9625 23.5768 19.7926 23.5627 19.559 23.5627H19.2299L18.745 25.5871H18.7485ZM18.1964 26.0083L18.883 23.1486H19.4953C19.8917 23.1486 20.1678 23.1698 20.3199 23.2087C20.4721 23.2512 20.596 23.3184 20.6951 23.414C20.8261 23.5414 20.911 23.7042 20.9464 23.8989C20.9818 24.0971 20.9712 24.3236 20.9075 24.5784C20.8473 24.8332 20.7517 25.0562 20.6208 25.2544C20.4898 25.4491 20.3306 25.6119 20.1394 25.7393C19.9943 25.8348 19.8386 25.9056 19.6723 25.9445C19.5059 25.987 19.2582 26.0047 18.929 26.0047H18.1964V26.0083Z" fill="#828FA4"/>
</g>
<g id="g58">
<path id="path60" d="M23.1124 24.3437H23.2291C23.4804 24.3437 23.6539 24.3154 23.753 24.2587C23.8521 24.2021 23.9158 24.103 23.9511 23.9615C23.9865 23.8093 23.9688 23.7031 23.8945 23.6394C23.8202 23.5757 23.6645 23.5438 23.4238 23.5438H23.307L23.1159 24.3401L23.1124 24.3437ZM22.992 24.7259L22.6841 26.0107H22.2594L22.946 23.151H23.6326C23.8344 23.151 23.983 23.1616 24.0715 23.1864C24.16 23.2076 24.2378 23.2465 24.2945 23.2996C24.3652 23.3669 24.4148 23.4553 24.436 23.5686C24.4573 23.6819 24.4537 23.8057 24.4219 23.9402C24.39 24.0747 24.3334 24.2021 24.2591 24.3154C24.1812 24.4286 24.0927 24.5207 23.9901 24.5844C23.9051 24.6374 23.8131 24.6728 23.714 24.6941C23.6114 24.7153 23.4592 24.7259 23.2575 24.7259H22.9956H22.992Z" fill="#828FA4"/>
</g>
<g id="g62">
<path id="path64" d="M24.9813 24.8878H25.7599L25.629 24.2366C25.6219 24.1941 25.6183 24.1481 25.6113 24.0915C25.6077 24.0384 25.6042 23.9782 25.6006 23.911C25.5723 23.9747 25.5405 24.0313 25.5086 24.0844C25.4803 24.1375 25.4485 24.1871 25.4201 24.2331L24.9777 24.8843L24.9813 24.8878ZM25.9652 26.0098L25.8236 25.2736H24.7194L24.2203 26.0098H23.7461L25.8095 23.0368L26.4465 26.0098H25.9687H25.9652Z" fill="#828FA4"/>
</g>
<g id="g66">
<path id="path68" d="M27.0941 26.0083L27.4055 24.6987L26.8392 23.1486H27.317L27.671 24.1183C27.678 24.1431 27.6886 24.1749 27.6993 24.2174C27.7099 24.2563 27.7205 24.3023 27.7311 24.3484C27.7594 24.3023 27.7877 24.2599 27.8196 24.2209C27.8479 24.182 27.8798 24.1431 27.9081 24.1112L28.7363 23.1521H29.1893L27.8585 24.7023L27.5435 26.0118H27.0941V26.0083Z" fill="#828FA4"/>
</g>
<g id="g70">
<path id="path72" d="M31.419 24.5962C31.419 24.575 31.4261 24.5113 31.4367 24.4122C31.4473 24.3272 31.4544 24.26 31.4579 24.2033C31.4296 24.267 31.3978 24.3343 31.3624 24.398C31.327 24.4617 31.2845 24.5289 31.235 24.5962L30.1413 26.1216L29.7839 24.5643C29.7697 24.5006 29.7556 24.4369 29.7485 24.3803C29.7414 24.3201 29.7343 24.26 29.7343 24.2033C29.7202 24.2635 29.699 24.3272 29.6742 24.3909C29.6494 24.4582 29.6211 24.5254 29.5892 24.5962L28.9522 26.0048H28.5345L29.9078 23.0212L30.2971 24.8262C30.3042 24.8546 30.3112 24.9041 30.3218 24.9678C30.3325 25.0351 30.3431 25.1165 30.3572 25.2156C30.4033 25.1342 30.4705 25.028 30.559 24.9041C30.5838 24.8687 30.6015 24.8439 30.6121 24.8262L31.8473 23.0212L31.8083 26.0048H31.3872L31.4155 24.5927L31.419 24.5962Z" fill="#828FA4"/>
</g>
<g id="g74">
<path id="path76" d="M32.173 26.0083L32.8596 23.1486H34.4168L34.3213 23.545H33.217L33.0472 24.2634H34.1514L34.0523 24.6704H32.9481L32.7251 25.5942H33.8293L33.7302 26.0118H32.173V26.0083Z" fill="#828FA4"/>
</g>
<g id="g78">
<path id="path80" d="M34.2502 26.0098L34.9616 23.0368L36.3136 24.7852C36.349 24.8347 36.3879 24.8878 36.4233 24.9444C36.4587 25.0011 36.4976 25.0648 36.533 25.1356L37.0073 23.1536H37.4249L36.7135 26.1265L35.3332 24.3463C35.2979 24.2968 35.2625 24.2472 35.2306 24.1941C35.1988 24.141 35.1704 24.0844 35.1421 24.0278L34.6643 26.0168H34.2467L34.2502 26.0098Z" fill="#828FA4"/>
</g>
<g id="g82">
<path id="path84" d="M38.8761 23.5402L38.285 26.007H37.832L38.4231 23.5402H37.6833L37.7789 23.1438H39.7113L39.6158 23.5402H38.8796H38.8761Z" fill="#828FA4"/>
</g>
<g id="g86">
<path id="path88" d="M39.3433 25.4361L39.7468 25.2627C39.7503 25.3901 39.7892 25.4892 39.8671 25.5564C39.9414 25.6237 40.0511 25.6555 40.1927 25.6555C40.3272 25.6555 40.444 25.6166 40.5395 25.5387C40.6386 25.4609 40.7023 25.3582 40.7342 25.2308C40.7731 25.0609 40.674 24.9123 40.4334 24.7813C40.4015 24.7601 40.3732 24.746 40.3555 24.7389C40.0865 24.5867 39.9131 24.4451 39.8423 24.3212C39.7715 24.1974 39.7538 24.0452 39.7998 23.8647C39.8565 23.6311 39.9768 23.4435 40.1679 23.2984C40.3555 23.1533 40.5749 23.0825 40.8262 23.0825C41.0315 23.0825 41.1943 23.125 41.3146 23.2064C41.435 23.2878 41.5022 23.4046 41.5199 23.5568L41.12 23.7444C41.0846 23.6559 41.0386 23.5886 40.9819 23.5462C40.9253 23.5037 40.8545 23.4825 40.7661 23.4825C40.6457 23.4825 40.5395 23.5143 40.4511 23.5815C40.3626 23.6453 40.306 23.7337 40.2812 23.8435C40.2387 24.0169 40.359 24.1761 40.6386 24.3248C40.6599 24.3354 40.6776 24.346 40.6882 24.3531C40.9324 24.4841 41.0917 24.6115 41.166 24.7353C41.2403 24.8592 41.2545 25.0149 41.2085 25.2025C41.1448 25.475 41.0103 25.6874 40.805 25.8502C40.5997 26.0095 40.3555 26.0909 40.0724 26.0909C39.8352 26.0909 39.6547 26.0342 39.5273 25.9245C39.4035 25.8113 39.3397 25.652 39.3433 25.4432" fill="#828FA4"/>
</g>
<g id="g90">
<path id="path92" d="M42.6948 26.0083L43.3814 23.1486H43.8345L43.1478 26.0083H42.6948Z" fill="#828FA4"/>
</g>
<g id="g94">
<path id="path96" d="M43.7988 26.0098L44.5102 23.0368L45.8622 24.7852C45.8976 24.8347 45.9365 24.8878 45.9719 24.9444C46.0073 25.0011 46.0462 25.0648 46.0816 25.1356L46.5559 23.1536H46.9735L46.2621 26.1265L44.8818 24.3463C44.8464 24.2968 44.811 24.2472 44.7792 24.1941C44.7473 24.141 44.719 24.0844 44.6907 24.0278L44.2129 26.0168H43.7953L43.7988 26.0098Z" fill="#828FA4"/>
</g>
<g id="g98">
<path id="path100" d="M48.4246 23.5402L47.8336 26.007H47.3806L47.9716 23.5402H47.2319L47.3275 23.1438H49.2599L49.1643 23.5402H48.4282H48.4246Z" fill="#828FA4"/>
</g>
<g id="g102">
<path id="path104" d="M48.917 26.0083L49.6036 23.1486H51.1609L51.0653 23.545H49.9611L49.7876 24.2634H50.8919L50.7928 24.6704H49.6885L49.4656 25.5942H50.5698L50.4707 26.0118H48.9135L48.917 26.0083Z" fill="#828FA4"/>
</g>
<g id="g106">
<path id="path108" d="M51.8401 24.3661H51.9215C52.1622 24.3661 52.3286 24.3377 52.4206 24.2811C52.5126 24.2245 52.5763 24.1218 52.6117 23.9767C52.6506 23.8175 52.6329 23.7078 52.5657 23.6441C52.4984 23.5803 52.3498 23.5485 52.1197 23.5485H52.0383L51.8401 24.3696V24.3661ZM51.7233 24.7271L51.4154 26.0083H50.9907L51.6773 23.1486H52.3109C52.4949 23.1486 52.6365 23.1592 52.732 23.1875C52.8276 23.2123 52.9054 23.2547 52.9656 23.3114C53.0364 23.3786 53.0824 23.4706 53.1001 23.5803C53.1213 23.6901 53.1143 23.8104 53.0859 23.9413C53.0329 24.1714 52.9338 24.3519 52.7957 24.4793C52.6577 24.6103 52.4772 24.6881 52.2613 24.7129L52.909 26.0153H52.3958L51.7729 24.7341H51.7198L51.7233 24.7271Z" fill="#828FA4"/>
</g>
<g id="g110">
<path id="path112" d="M53.178 26.0083L53.8646 23.1486H55.4219L55.3263 23.545H54.2221L54.0522 24.2599H55.1564L55.0573 24.6669H53.9531L53.631 26.0118H53.178V26.0083Z" fill="#828FA4"/>
</g>
<g id="g114">
<path id="path116" d="M55.9455 24.8878H56.7241L56.5932 24.2366C56.5861 24.1941 56.5826 24.1481 56.5755 24.0915C56.572 24.0384 56.5684 23.9782 56.5649 23.911C56.533 23.9747 56.5047 24.0313 56.4729 24.0844C56.4446 24.1375 56.4127 24.1871 56.3844 24.2331L55.942 24.8843L55.9455 24.8878ZM56.9294 26.0098L56.7879 25.2736H55.6836L55.1846 26.0098H54.7068L56.7702 23.0368L57.4072 26.0098H56.9294Z" fill="#828FA4"/>
</g>
<g id="g118">
<path id="path120" d="M60.3591 23.8435C60.2564 23.7302 60.1432 23.6488 60.0122 23.5922C59.8813 23.5355 59.7397 23.5072 59.5805 23.5072C59.2761 23.5072 59.0036 23.6063 58.7664 23.8081C58.5258 24.0098 58.37 24.2682 58.2922 24.5867C58.2179 24.8946 58.2497 25.1494 58.3877 25.3512C58.5258 25.5529 58.7381 25.652 59.0177 25.652C59.1841 25.652 59.3469 25.6237 59.5097 25.5635C59.6725 25.5033 59.8388 25.4113 60.0052 25.291L59.8778 25.8183C59.7326 25.9068 59.584 25.9741 59.4318 26.0201C59.2761 26.0661 59.1168 26.0873 58.9505 26.0873C58.7381 26.0873 58.547 26.0519 58.3842 25.9811C58.2214 25.9104 58.0869 25.8042 57.9843 25.6662C57.8816 25.5281 57.8144 25.3689 57.7861 25.1813C57.7578 24.9972 57.7684 24.799 57.8179 24.5867C57.8675 24.3779 57.9524 24.1797 58.0692 23.9956C58.186 23.8116 58.3311 23.6488 58.501 23.5108C58.6744 23.3692 58.8585 23.263 59.0531 23.1922C59.2478 23.1215 59.453 23.0825 59.6619 23.0825C59.8247 23.0825 59.9769 23.1073 60.1113 23.1568C60.2494 23.2064 60.3732 23.2807 60.49 23.3798L60.352 23.847L60.3591 23.8435Z" fill="#828FA4"/>
</g>
<g id="g122">
<path id="path124" d="M60.4016 26.0083L61.0882 23.1486H62.6455L62.5499 23.545H61.4457L61.2723 24.2634H62.3765L62.2774 24.6704H61.1732L60.9502 25.5942H62.0544L61.9553 26.0118H60.3981L60.4016 26.0083Z" fill="#828FA4"/>
</g>
<g id="g126">
<path id="path128" d="M52.1339 20.654H49.0194L53.355 5.00003H56.473L52.1375 20.654H52.1339Z" fill="#828FA4"/>
</g>
<g id="g130">
<path id="path132" d="M50.5166 5.498C50.3007 5.20071 49.968 5.04852 49.515 5.04852H32.378L31.5286 8.11349H34.6467H47.1189L46.2129 11.3908H33.7406V11.3837H30.6261L28.0389 20.7237H31.157L32.8912 14.4558H46.9101C47.3489 14.4558 47.7595 14.3071 48.1488 14.0063C48.5346 13.709 48.7894 13.3374 48.9133 12.8985L50.6475 6.63056C50.7749 6.174 50.7289 5.79884 50.5166 5.50154" fill="#828FA4"/>
</g>
<g id="g134">
<path id="path136" d="M26.2234 19.6761C26.0499 20.2955 25.4872 20.7237 24.8431 20.7237H8.76437C8.32551 20.7237 7.9999 20.5751 7.78755 20.2778C7.57519 19.9805 7.52918 19.6089 7.64952 19.17L11.571 5.04852H14.689L11.1852 17.6623H23.661L27.1648 5.04852H30.2828L26.2198 19.6797L26.2234 19.6761Z" fill="#828FA4"/>
</g>
<g id="g138">
<path id="path140" d="M61.8493 5.02939L65.7956 12.8758L57.5032 20.7188L61.8529 5.02939H61.8493Z" fill="#828FA4"/>
</g>
<g id="g142">
<path id="path144" d="M59.0849 5.02939L63.0276 12.8758L54.7317 20.7188L59.0849 5.02939Z" fill="#828FA4"/>
</g>
</g>
</g>
</svg>
