<svg width="62" height="63" viewBox="0 0 62 63" fill="none" xmlns="http://www.w3.org/2000/svg">
<g id="Group 48097828" filter="url(#filter0_d_0_3188)">
<g id="WA_Logo">
<g id="Group">
<path id="Vector" fill-rule="evenodd" clip-rule="evenodd" d="M45.1018 11.8018C40.1396 6.85386 33.5359 4.12183 26.503 4.12183C12.0078 4.12183 0.227276 15.8809 0.21465 30.3217C0.21465 34.9422 1.42679 39.4495 3.72481 43.4153L0 57L13.9396 53.3615C17.7781 55.4514 22.0963 56.5468 26.503 56.5468H26.5156C40.9982 56.5468 52.7913 44.7877 52.8039 30.3469C52.8039 23.3342 50.064 16.7496 45.1018 11.8018Z" fill="#42E55F"/>
<path id="Vector_2" fill-rule="evenodd" clip-rule="evenodd" d="M45.1018 11.8018C40.1396 6.85386 33.5359 4.12183 26.503 4.12183C12.0078 4.12183 0.227276 15.8809 0.21465 30.3217C0.21465 34.9422 1.42679 39.4495 3.72481 43.4153L0 57L13.9396 53.3615C17.7781 55.4514 22.0963 56.5468 26.503 56.5468H26.5156C40.9982 56.5468 52.7913 44.7877 52.8039 30.3469C52.8039 23.3342 50.064 16.7496 45.1018 11.8018ZM26.5156 52.1151C22.5888 52.1151 18.7377 51.0575 15.3917 49.0809L14.5962 48.615L6.32587 50.7805L8.5355 42.7481L8.01781 41.9297C5.83343 38.4675 4.6718 34.4512 4.6718 30.3343C4.6718 18.3234 14.4826 8.55352 26.5282 8.55352C32.3617 8.55352 37.8542 10.8197 41.9704 14.9367C46.0993 19.0536 48.372 24.5303 48.3594 30.3469C48.3468 42.3452 38.5486 52.1151 26.5156 52.1151ZM38.4981 35.811C37.8416 35.4836 34.6092 33.8973 34.0157 33.6832C33.4097 33.4692 32.9804 33.3559 32.5384 34.0106C32.0965 34.6653 30.8465 36.1383 30.4551 36.5789C30.0763 37.0196 29.6848 37.07 29.0283 36.7426C28.3717 36.4153 26.2504 35.7228 23.7504 33.4944C21.7933 31.757 20.4801 29.6167 20.1014 28.962C19.7226 28.3073 20.0635 27.9548 20.3918 27.6274C20.6822 27.3379 21.0483 26.8594 21.3766 26.4817C21.7049 26.104 21.8186 25.8271 22.0332 25.3864C22.2479 24.9458 22.1468 24.5681 21.9827 24.2407C21.8186 23.9134 20.5054 20.6903 19.9625 19.381C19.4321 18.1094 18.8892 18.273 18.4852 18.2604C18.1064 18.2353 17.6644 18.2353 17.2225 18.2353C16.7806 18.2353 16.0735 18.3989 15.4674 19.0536C14.8614 19.7083 13.1694 21.2946 13.1694 24.5177C13.1694 27.7407 15.5179 30.8505 15.8462 31.2911C16.1745 31.7318 20.4801 38.3416 27.0712 41.1743C28.6369 41.8542 29.8616 42.2571 30.8212 42.5592C32.3995 43.0628 33.8263 42.9873 34.9627 42.8236C36.2254 42.6348 38.8517 41.2373 39.3946 39.7139C39.9375 38.1905 39.9375 36.8685 39.7734 36.6041C39.584 36.302 39.1547 36.1383 38.4981 35.811Z" fill="white"/>
</g>
</g>
</g>
<defs>
<filter id="filter0_d_0_3188" x="0" y="0.68387" width="61.9718" height="62.0461" filterUnits="userSpaceOnUse" color-interpolation-filters="sRGB">
<feFlood flood-opacity="0" result="BackgroundImageFix"/>
<feColorMatrix in="SourceAlpha" type="matrix" values="0 0 0 0 0 0 0 0 0 0 0 0 0 0 0 0 0 0 127 0" result="hardAlpha"/>
<feOffset dx="4.58394" dy="1.14599"/>
<feGaussianBlur stdDeviation="2.29197"/>
<feComposite in2="hardAlpha" operator="out"/>
<feColorMatrix type="matrix" values="0 0 0 0 0 0 0 0 0 0 0 0 0 0 0 0 0 0 0.25 0"/>
<feBlend mode="normal" in2="BackgroundImageFix" result="effect1_dropShadow_0_3188"/>
<feBlend mode="normal" in="SourceGraphic" in2="effect1_dropShadow_0_3188" result="shape"/>
</filter>
</defs>
</svg>
