<svg width="33" height="32" viewBox="0 0 33 32" fill="none" xmlns="http://www.w3.org/2000/svg">
<g id="Group">
<path id="Vector" d="M16.6241 0.406891C25.1673 0.289305 32.3116 7.49039 32.2832 16.1025C32.2548 24.6376 25.147 31.7373 16.5795 31.713C8.01201 31.6927 0.908244 24.5524 0.952846 15.9606C0.997447 7.4539 8.07283 0.285251 16.6282 0.406891H16.6241ZM16.6403 9.242C14.4549 9.33526 12.3018 9.39203 10.1569 9.52178C8.23095 9.63936 7.46463 10.2841 7.20513 12.1127C6.82399 14.7969 6.81182 17.4932 7.24567 20.1734C7.493 21.7101 8.14174 22.2778 9.69874 22.4886C10.2015 22.5575 10.7084 22.5859 11.2111 22.6224C15.1847 22.8981 19.1623 22.8535 23.1318 22.5656C25.0456 22.4278 25.7674 21.7871 26.0228 19.9869C26.3959 17.3635 26.404 14.7239 26.0228 12.1005C25.7714 10.3854 25.1632 9.83398 23.4724 9.59476C21.1937 9.27039 18.8907 9.42446 16.6403 9.242Z" fill="white"/>
<path id="Vector_2" d="M14.6254 16.0097C14.6254 15.1987 14.6294 14.3837 14.6254 13.5728C14.6254 13.1876 14.7632 13.0984 15.1038 13.293C16.5635 14.1364 18.0232 14.9757 19.4869 15.815C19.7829 15.9853 19.7424 16.1353 19.4748 16.2894C18.0151 17.1287 16.5513 17.964 15.0917 18.8074C14.7227 19.0182 14.6294 18.856 14.6294 18.5033C14.6335 17.6721 14.6294 16.8368 14.6294 16.0056L14.6254 16.0097Z" fill="white"/>
</g>
</svg>
